<ttFont>
    <TTGlyph name=".notdef" xMin="65" yMin="0" xMax="449" yMax="768">
      <contour>
        <pt x="65" y="0" on="1"/>
        <pt x="65" y="768" on="1"/>
        <pt x="449" y="768" on="1"/>
        <pt x="449" y="0" on="1"/>
      </contour>
      <contour>
        <pt x="128" y="65" on="1"/>
        <pt x="384" y="65" on="1"/>
        <pt x="384" y="705" on="1"/>
        <pt x="128" y="705" on="1"/>
      </contour>
    </TTGlyph>
    <TTGlyph name="A" xMin="-5" yMin="-10" xMax="516" yMax="670">
      <contour>
        <pt x="428" y="-10" on="1"/>
        <pt x="388" y="183" on="1"/>
        <pt x="158" y="183" on="1"/>
        <pt x="78" y="-10" on="1"/>
        <pt x="-5" y="0" on="1"/>
        <pt x="284" y="670" on="1"/>
        <pt x="366" y="670" on="1"/>
        <pt x="516" y="4" on="1"/>
      </contour>
      <contour>
        <pt x="312" y="564" on="1"/>
        <pt x="186" y="254" on="1"/>
        <pt x="375" y="254" on="1"/>
      </contour>
    </TTGlyph>
    <TTGlyph name="AE" xMin="-5" yMin="-10" xMax="877" yMax="670">
      <contour>
        <pt x="312" y="564" on="1"/>
        <pt x="186" y="254" on="1"/>
        <pt x="375" y="254" on="1"/>
      </contour>
      <contour>
        <pt x="592" y="582" on="1"/>
        <pt x="571" y="384" on="1"/>
        <pt x="829" y="384" on="1"/>
        <pt x="821" y="307" on="1"/>
        <pt x="563" y="308" on="1"/>
        <pt x="539" y="78" on="1"/>
        <pt x="812" y="79" on="1"/>
        <pt x="804" y="0" on="1"/>
        <pt x="425" y="0" on="1"/>
        <pt x="388" y="183" on="1"/>
        <pt x="158" y="183" on="1"/>
        <pt x="78" y="-10" on="1"/>
        <pt x="-5" y="0" on="1"/>
        <pt x="284" y="670" on="1"/>
        <pt x="366" y="670" on="1"/>
        <pt x="464" y="232" on="1"/>
        <pt x="509" y="655" on="1"/>
        <pt x="877" y="655" on="1"/>
        <pt x="868" y="582" on="1"/>
      </contour>
    </TTGlyph>
    <TTGlyph name="Aacute" xMin="-9" yMin="-10" xMax="511" yMax="862">
      <contour>
        <pt x="423" y="-10" on="1"/>
        <pt x="383" y="183" on="1"/>
        <pt x="153" y="183" on="1"/>
        <pt x="74" y="-10" on="1"/>
        <pt x="-9" y="0" on="1"/>
        <pt x="279" y="670" on="1"/>
        <pt x="361" y="670" on="1"/>
        <pt x="511" y="4" on="1"/>
      </contour>
      <contour>
        <pt x="308" y="564" on="1"/>
        <pt x="181" y="254" on="1"/>
        <pt x="370" y="254" on="1"/>
      </contour>
      <contour>
        <pt x="238" y="703" on="1"/>
        <pt x="196" y="764" on="1"/>
        <pt x="421" y="862" on="1"/>
        <pt x="462" y="796" on="1"/>
      </contour>
    </TTGlyph>
    <TTGlyph name="Acircumflex" xMin="-9" yMin="-10" xMax="511" yMax="860">
      <contour>
        <pt x="423" y="-10" on="1"/>
        <pt x="383" y="183" on="1"/>
        <pt x="153" y="183" on="1"/>
        <pt x="74" y="-10" on="1"/>
        <pt x="-9" y="0" on="1"/>
        <pt x="279" y="670" on="1"/>
        <pt x="361" y="670" on="1"/>
        <pt x="511" y="4" on="1"/>
      </contour>
      <contour>
        <pt x="308" y="564" on="1"/>
        <pt x="181" y="254" on="1"/>
        <pt x="370" y="254" on="1"/>
      </contour>
      <contour>
        <pt x="326" y="767" on="1"/>
        <pt x="176" y="672" on="1"/>
        <pt x="183" y="744" on="1"/>
        <pt x="336" y="860" on="1"/>
        <pt x="469" y="744" on="1"/>
        <pt x="462" y="672" on="1"/>
      </contour>
    </TTGlyph>
    <TTGlyph name="Adieresis" xMin="-7" yMin="-10" xMax="514" yMax="816">
      <contour>
        <pt x="425" y="-10" on="1"/>
        <pt x="385" y="183" on="1"/>
        <pt x="155" y="183" on="1"/>
        <pt x="76" y="-10" on="1"/>
        <pt x="-7" y="0" on="1"/>
        <pt x="282" y="670" on="1"/>
        <pt x="365" y="670" on="1"/>
        <pt x="514" y="4" on="1"/>
      </contour>
      <contour>
        <pt x="311" y="564" on="1"/>
        <pt x="184" y="254" on="1"/>
        <pt x="373" y="254" on="1"/>
      </contour>
      <contour>
        <pt x="438" y="711" on="1"/>
        <pt x="412" y="711" on="0"/>
        <pt x="400" y="728" on="1"/>
        <pt x="390" y="742" on="0"/>
        <pt x="392" y="764" on="1"/>
        <pt x="394" y="784" on="0"/>
        <pt x="425" y="816" on="0"/>
        <pt x="450" y="816" on="1"/>
        <pt x="474" y="816" on="0"/>
        <pt x="497" y="783" on="0"/>
        <pt x="495" y="764" on="1"/>
        <pt x="493" y="744" on="0"/>
        <pt x="462" y="711" on="0"/>
      </contour>
      <contour>
        <pt x="223" y="711" on="1"/>
        <pt x="197" y="711" on="0"/>
        <pt x="185" y="728" on="1"/>
        <pt x="175" y="742" on="0"/>
        <pt x="177" y="764" on="1"/>
        <pt x="179" y="784" on="0"/>
        <pt x="210" y="816" on="0"/>
        <pt x="258" y="816" on="0"/>
        <pt x="282" y="783" on="0"/>
        <pt x="280" y="764" on="1"/>
        <pt x="278" y="744" on="0"/>
        <pt x="247" y="711" on="0"/>
      </contour>
    </TTGlyph>
    <TTGlyph name="Agrave" xMin="-9" yMin="-10" xMax="511" yMax="861">
      <contour>
        <pt x="423" y="-10" on="1"/>
        <pt x="383" y="183" on="1"/>
        <pt x="153" y="183" on="1"/>
        <pt x="74" y="-10" on="1"/>
        <pt x="-9" y="0" on="1"/>
        <pt x="279" y="670" on="1"/>
        <pt x="361" y="670" on="1"/>
        <pt x="511" y="4" on="1"/>
      </contour>
      <contour>
        <pt x="308" y="564" on="1"/>
        <pt x="181" y="254" on="1"/>
        <pt x="370" y="254" on="1"/>
      </contour>
      <contour>
        <pt x="403" y="702" on="1"/>
        <pt x="199" y="795" on="1"/>
        <pt x="254" y="861" on="1"/>
        <pt x="459" y="763" on="1"/>
      </contour>
    </TTGlyph>
    <TTGlyph name="Aring" xMin="-10" yMin="-10" xMax="510" yMax="880">
      <contour>
        <pt x="422" y="-10" on="1"/>
        <pt x="382" y="183" on="1"/>
        <pt x="152" y="183" on="1"/>
        <pt x="73" y="-10" on="1"/>
        <pt x="-10" y="0" on="1"/>
        <pt x="278" y="670" on="1"/>
        <pt x="360" y="670" on="1"/>
        <pt x="510" y="4" on="1"/>
      </contour>
      <contour>
        <pt x="307" y="564" on="1"/>
        <pt x="180" y="254" on="1"/>
        <pt x="369" y="254" on="1"/>
      </contour>
      <contour>
        <pt x="329" y="702" on="1"/>
        <pt x="288" y="702" on="0"/>
        <pt x="241" y="753" on="0"/>
        <pt x="245" y="792" on="1"/>
        <pt x="249" y="830" on="0"/>
        <pt x="306" y="880" on="0"/>
        <pt x="347" y="880" on="1"/>
        <pt x="388" y="880" on="0"/>
        <pt x="435" y="829" on="0"/>
        <pt x="431" y="792" on="1"/>
        <pt x="427" y="753" on="0"/>
        <pt x="370" y="702" on="0"/>
      </contour>
      <contour>
        <pt x="342" y="836" on="1"/>
        <pt x="298" y="836" on="0"/>
        <pt x="294" y="792" on="1"/>
        <pt x="289" y="747" on="0"/>
        <pt x="333" y="746" on="1"/>
        <pt x="377" y="746" on="0"/>
        <pt x="382" y="792" on="1"/>
        <pt x="386" y="836" on="0"/>
      </contour>
    </TTGlyph>
    <TTGlyph name="Atilde" xMin="-7" yMin="-10" xMax="513" yMax="824">
      <contour>
        <pt x="425" y="-10" on="1"/>
        <pt x="385" y="183" on="1"/>
        <pt x="155" y="183" on="1"/>
        <pt x="76" y="-10" on="1"/>
        <pt x="-7" y="0" on="1"/>
        <pt x="281" y="670" on="1"/>
        <pt x="364" y="670" on="1"/>
        <pt x="513" y="4" on="1"/>
      </contour>
      <contour>
        <pt x="310" y="564" on="1"/>
        <pt x="183" y="254" on="1"/>
        <pt x="372" y="254" on="1"/>
      </contour>
      <contour>
        <pt x="402" y="685" on="1"/>
        <pt x="373" y="685" on="0"/>
        <pt x="288" y="756" on="0"/>
        <pt x="271" y="756" on="1"/>
        <pt x="231" y="756" on="0"/>
        <pt x="196" y="713" on="1"/>
        <pt x="174" y="773" on="1"/>
        <pt x="190" y="795" on="0"/>
        <pt x="223" y="809" on="1"/>
        <pt x="253" y="823" on="0"/>
        <pt x="279" y="824" on="1"/>
        <pt x="308" y="825" on="0"/>
        <pt x="387" y="755" on="0"/>
        <pt x="408" y="755" on="1"/>
        <pt x="434" y="755" on="0"/>
        <pt x="462" y="780" on="1"/>
        <pt x="481" y="719" on="1"/>
        <pt x="471" y="708" on="0"/>
        <pt x="414" y="685" on="0"/>
      </contour>
    </TTGlyph>
    <TTGlyph name="B" xMin="30" yMin="0" xMax="469" yMax="660">
      <contour>
        <pt x="238" y="0" on="1"/>
        <pt x="30" y="2" on="1"/>
        <pt x="99" y="656" on="1"/>
        <pt x="269" y="659" on="1"/>
        <pt x="270" y="659" on="0"/>
        <pt x="284" y="660" on="1"/>
        <pt x="296" y="660" on="0"/>
        <pt x="297" y="660" on="1"/>
        <pt x="373" y="660" on="0"/>
        <pt x="456" y="591" on="0"/>
        <pt x="456" y="526" on="1"/>
        <pt x="456" y="468" on="0"/>
        <pt x="438" y="433" on="1"/>
        <pt x="422" y="402" on="0"/>
        <pt x="376" y="372" on="0"/>
        <pt x="329" y="359" on="1"/>
        <pt x="469" y="328" on="0"/>
        <pt x="469" y="212" on="1"/>
        <pt x="469" y="201" on="0"/>
        <pt x="467" y="188" on="1"/>
        <pt x="458" y="98" on="0"/>
        <pt x="332" y="-1" on="0"/>
      </contour>
      <contour>
        <pt x="269" y="599" on="1"/>
        <pt x="255" y="599" on="0"/>
        <pt x="184" y="596" on="1"/>
        <pt x="162" y="384" on="1"/>
        <pt x="231" y="383" on="1"/>
        <pt x="290" y="382" on="0"/>
        <pt x="368" y="443" on="0"/>
        <pt x="373" y="494" on="1"/>
        <pt x="383" y="599" on="0"/>
      </contour>
      <contour>
        <pt x="249" y="319" on="1"/>
        <pt x="155" y="319" on="1"/>
        <pt x="128" y="69" on="1"/>
        <pt x="224" y="69" on="1"/>
        <pt x="366" y="69" on="0"/>
        <pt x="379" y="189" on="1"/>
        <pt x="385" y="242" on="0"/>
        <pt x="316" y="319" on="0"/>
      </contour>
    </TTGlyph>
    <TTGlyph name="C" xMin="30" yMin="-8" xMax="546" yMax="676">
      <contour>
        <pt x="283" y="-8" on="1"/>
        <pt x="157" y="-8" on="0"/>
        <pt x="89" y="80" on="1"/>
        <pt x="30" y="159" on="0"/>
        <pt x="30" y="285" on="1"/>
        <pt x="30" y="439" on="0"/>
        <pt x="114" y="551" on="1"/>
        <pt x="207" y="675" on="0"/>
        <pt x="356" y="676" on="1"/>
        <pt x="406" y="676" on="0"/>
        <pt x="468" y="654" on="1"/>
        <pt x="516" y="638" on="0"/>
        <pt x="546" y="620" on="1"/>
        <pt x="498" y="539" on="1"/>
        <pt x="411" y="596" on="0"/>
        <pt x="353" y="596" on="1"/>
        <pt x="251" y="596" on="0"/>
        <pt x="185" y="499" on="1"/>
        <pt x="133" y="423" on="0"/>
        <pt x="123" y="325" on="1"/>
        <pt x="121" y="306" on="0"/>
        <pt x="121" y="287" on="1"/>
        <pt x="121" y="193" on="0"/>
        <pt x="215" y="74" on="0"/>
        <pt x="290" y="74" on="1"/>
        <pt x="377" y="74" on="0"/>
        <pt x="459" y="118" on="1"/>
        <pt x="492" y="51" on="1"/>
        <pt x="424" y="16" on="0"/>
        <pt x="388" y="6" on="1"/>
        <pt x="342" y="-8" on="0"/>
      </contour>
    </TTGlyph>
    <TTGlyph name="Ccedilla" xMin="47" yMin="-224" xMax="562" yMax="676">
      <contour>
        <pt x="308" y="-224" on="1"/>
        <pt x="242" y="-224" on="0"/>
        <pt x="225" y="-175" on="1"/>
        <pt x="266" y="-140" on="1"/>
        <pt x="292" y="-173" on="0"/>
        <pt x="315" y="-173" on="1"/>
        <pt x="351" y="-173" on="0"/>
        <pt x="354" y="-138" on="1"/>
        <pt x="358" y="-98" on="0"/>
        <pt x="325" y="-98" on="1"/>
        <pt x="311" y="-98" on="0"/>
        <pt x="288" y="-114" on="1"/>
        <pt x="243" y="-92" on="1"/>
        <pt x="257" y="-5" on="1"/>
        <pt x="153" y="8" on="0"/>
        <pt x="96" y="93" on="1"/>
        <pt x="47" y="169" on="0"/>
        <pt x="47" y="284" on="1"/>
        <pt x="47" y="438" on="0"/>
        <pt x="131" y="550" on="1"/>
        <pt x="223" y="675" on="0"/>
        <pt x="374" y="676" on="1"/>
        <pt x="424" y="676" on="0"/>
        <pt x="485" y="654" on="1"/>
        <pt x="532" y="638" on="0"/>
        <pt x="562" y="620" on="1"/>
        <pt x="514" y="539" on="1"/>
        <pt x="427" y="596" on="0"/>
        <pt x="370" y="596" on="1"/>
        <pt x="268" y="596" on="0"/>
        <pt x="202" y="499" on="1"/>
        <pt x="150" y="423" on="0"/>
        <pt x="139" y="325" on="1"/>
        <pt x="137" y="306" on="0"/>
        <pt x="137" y="287" on="1"/>
        <pt x="137" y="193" on="0"/>
        <pt x="232" y="74" on="0"/>
        <pt x="306" y="74" on="1"/>
        <pt x="393" y="74" on="0"/>
        <pt x="476" y="118" on="1"/>
        <pt x="508" y="51" on="1"/>
        <pt x="445" y="19" on="0"/>
        <pt x="411" y="8" on="1"/>
        <pt x="368" y="-6" on="0"/>
        <pt x="315" y="-8" on="1"/>
        <pt x="308" y="-48" on="1"/>
        <pt x="317" y="-44" on="0"/>
        <pt x="334" y="-44" on="1"/>
        <pt x="377" y="-44" on="0"/>
        <pt x="400" y="-74" on="1"/>
        <pt x="419" y="-100" on="0"/>
        <pt x="417" y="-135" on="1"/>
        <pt x="413" y="-171" on="0"/>
        <pt x="386" y="-197" on="1"/>
        <pt x="355" y="-224" on="0"/>
      </contour>
    </TTGlyph>
    <TTGlyph name="D" xMin="30" yMin="-2" xMax="550" yMax="663">
      <contour>
        <pt x="185" y="-2" on="1"/>
        <pt x="155" y="-2" on="0"/>
        <pt x="62" y="2" on="0"/>
        <pt x="30" y="2" on="1"/>
        <pt x="99" y="659" on="1"/>
        <pt x="170" y="662" on="0"/>
        <pt x="249" y="663" on="1"/>
        <pt x="403" y="663" on="0"/>
        <pt x="474" y="601" on="1"/>
        <pt x="550" y="538" on="0"/>
        <pt x="550" y="397" on="1"/>
        <pt x="550" y="366" on="0"/>
        <pt x="546" y="331" on="1"/>
        <pt x="530" y="173" on="0"/>
        <pt x="440" y="87" on="1"/>
        <pt x="347" y="-2" on="0"/>
      </contour>
      <contour>
        <pt x="447" y="319" on="1"/>
        <pt x="451" y="356" on="0"/>
        <pt x="452" y="388" on="1"/>
        <pt x="452" y="597" on="0"/>
        <pt x="269" y="597" on="1"/>
        <pt x="239" y="597" on="0"/>
        <pt x="183" y="595" on="1"/>
        <pt x="129" y="76" on="1"/>
        <pt x="221" y="76" on="1"/>
        <pt x="318" y="76" on="0"/>
        <pt x="381" y="153" on="1"/>
        <pt x="437" y="220" on="0"/>
      </contour>
    </TTGlyph>
    <TTGlyph name="Delta" xMin="51" yMin="0" xMax="622" yMax="673">
      <contour>
        <pt x="51" y="0" on="1"/>
        <pt x="374" y="673" on="1"/>
        <pt x="462" y="673" on="1"/>
        <pt x="622" y="0" on="1"/>
      </contour>
      <contour>
        <pt x="408" y="579" on="1"/>
        <pt x="173" y="57" on="1"/>
        <pt x="512" y="57" on="1"/>
      </contour>
    </TTGlyph>
    <TTGlyph name="E" xMin="30" yMin="0" xMax="467" yMax="655">
      <contour>
        <pt x="182" y="582" on="1"/>
        <pt x="162" y="384" on="1"/>
        <pt x="420" y="384" on="1"/>
        <pt x="412" y="307" on="1"/>
        <pt x="154" y="308" on="1"/>
        <pt x="129" y="78" on="1"/>
        <pt x="402" y="79" on="1"/>
        <pt x="394" y="0" on="1"/>
        <pt x="30" y="0" on="1"/>
        <pt x="99" y="655" on="1"/>
        <pt x="467" y="655" on="1"/>
        <pt x="459" y="582" on="1"/>
      </contour>
    </TTGlyph>
    <TTGlyph name="Eacute" xMin="24" yMin="0" xMax="461" yMax="862">
      <contour>
        <pt x="177" y="582" on="1"/>
        <pt x="156" y="384" on="1"/>
        <pt x="414" y="384" on="1"/>
        <pt x="406" y="307" on="1"/>
        <pt x="147" y="308" on="1"/>
        <pt x="123" y="78" on="1"/>
        <pt x="397" y="79" on="1"/>
        <pt x="388" y="0" on="1"/>
        <pt x="24" y="0" on="1"/>
        <pt x="93" y="655" on="1"/>
        <pt x="461" y="655" on="1"/>
        <pt x="454" y="582" on="1"/>
      </contour>
      <contour>
        <pt x="205" y="703" on="1"/>
        <pt x="164" y="764" on="1"/>
        <pt x="390" y="862" on="1"/>
        <pt x="431" y="796" on="1"/>
      </contour>
    </TTGlyph>
    <TTGlyph name="Ecircumflex" xMin="24" yMin="0" xMax="461" yMax="860">
      <contour>
        <pt x="177" y="582" on="1"/>
        <pt x="156" y="384" on="1"/>
        <pt x="414" y="384" on="1"/>
        <pt x="406" y="307" on="1"/>
        <pt x="147" y="308" on="1"/>
        <pt x="124" y="78" on="1"/>
        <pt x="397" y="79" on="1"/>
        <pt x="388" y="0" on="1"/>
        <pt x="24" y="0" on="1"/>
        <pt x="93" y="655" on="1"/>
        <pt x="461" y="655" on="1"/>
        <pt x="454" y="582" on="1"/>
      </contour>
      <contour>
        <pt x="294" y="767" on="1"/>
        <pt x="142" y="672" on="1"/>
        <pt x="151" y="744" on="1"/>
        <pt x="304" y="860" on="1"/>
        <pt x="437" y="744" on="1"/>
        <pt x="429" y="672" on="1"/>
      </contour>
    </TTGlyph>
    <TTGlyph name="Edieresis" xMin="27" yMin="0" xMax="463" yMax="819">
      <contour>
        <pt x="179" y="582" on="1"/>
        <pt x="158" y="384" on="1"/>
        <pt x="416" y="384" on="1"/>
        <pt x="408" y="307" on="1"/>
        <pt x="151" y="308" on="1"/>
        <pt x="126" y="78" on="1"/>
        <pt x="399" y="79" on="1"/>
        <pt x="391" y="0" on="1"/>
        <pt x="27" y="0" on="1"/>
        <pt x="95" y="655" on="1"/>
        <pt x="463" y="655" on="1"/>
        <pt x="456" y="582" on="1"/>
      </contour>
      <contour>
        <pt x="406" y="713" on="1"/>
        <pt x="381" y="713" on="0"/>
        <pt x="358" y="745" on="0"/>
        <pt x="360" y="766" on="1"/>
        <pt x="362" y="786" on="0"/>
        <pt x="392" y="819" on="0"/>
        <pt x="417" y="819" on="1"/>
        <pt x="441" y="819" on="0"/>
        <pt x="465" y="785" on="0"/>
        <pt x="463" y="766" on="1"/>
        <pt x="461" y="746" on="0"/>
        <pt x="431" y="713" on="0"/>
      </contour>
      <contour>
        <pt x="191" y="713" on="1"/>
        <pt x="166" y="713" on="0"/>
        <pt x="144" y="745" on="0"/>
        <pt x="146" y="766" on="1"/>
        <pt x="148" y="786" on="0"/>
        <pt x="178" y="819" on="0"/>
        <pt x="203" y="819" on="1"/>
        <pt x="227" y="819" on="0"/>
        <pt x="250" y="786" on="0"/>
        <pt x="248" y="766" on="1"/>
        <pt x="246" y="746" on="0"/>
        <pt x="215" y="713" on="0"/>
      </contour>
    </TTGlyph>
    <TTGlyph name="Egrave" xMin="24" yMin="0" xMax="461" yMax="861">
      <contour>
        <pt x="177" y="582" on="1"/>
        <pt x="156" y="384" on="1"/>
        <pt x="414" y="384" on="1"/>
        <pt x="406" y="307" on="1"/>
        <pt x="147" y="308" on="1"/>
        <pt x="123" y="78" on="1"/>
        <pt x="397" y="79" on="1"/>
        <pt x="388" y="0" on="1"/>
        <pt x="24" y="0" on="1"/>
        <pt x="93" y="655" on="1"/>
        <pt x="461" y="655" on="1"/>
        <pt x="454" y="582" on="1"/>
      </contour>
      <contour>
        <pt x="371" y="702" on="1"/>
        <pt x="168" y="795" on="1"/>
        <pt x="222" y="861" on="1"/>
        <pt x="427" y="763" on="1"/>
      </contour>
    </TTGlyph>
    <TTGlyph name="Eth" xMin="0" yMin="-2" xMax="550" yMax="663">
      <contour>
        <pt x="157" y="343" on="1"/>
        <pt x="226" y="343" on="1"/>
        <pt x="219" y="273" on="1"/>
        <pt x="150" y="273" on="1"/>
        <pt x="129" y="76" on="1"/>
        <pt x="221" y="76" on="1"/>
        <pt x="318" y="76" on="0"/>
        <pt x="381" y="153" on="1"/>
        <pt x="437" y="221" on="0"/>
        <pt x="447" y="319" on="1"/>
        <pt x="451" y="356" on="0"/>
        <pt x="452" y="388" on="1"/>
        <pt x="452" y="597" on="0"/>
        <pt x="269" y="597" on="1"/>
        <pt x="239" y="597" on="0"/>
        <pt x="183" y="595" on="1"/>
      </contour>
      <contour>
        <pt x="7" y="343" on="1"/>
        <pt x="66" y="343" on="1"/>
        <pt x="99" y="659" on="1"/>
        <pt x="170" y="662" on="0"/>
        <pt x="249" y="663" on="1"/>
        <pt x="403" y="663" on="0"/>
        <pt x="474" y="601" on="1"/>
        <pt x="550" y="538" on="0"/>
        <pt x="550" y="397" on="1"/>
        <pt x="550" y="366" on="0"/>
        <pt x="546" y="331" on="1"/>
        <pt x="530" y="173" on="0"/>
        <pt x="440" y="87" on="1"/>
        <pt x="347" y="-2" on="0"/>
        <pt x="185" y="-2" on="1"/>
        <pt x="155" y="-2" on="0"/>
        <pt x="62" y="2" on="0"/>
        <pt x="30" y="2" on="1"/>
        <pt x="58" y="273" on="1"/>
        <pt x="0" y="273" on="1"/>
      </contour>
    </TTGlyph>
    <TTGlyph name="F" xMin="30" yMin="0" xMax="468" yMax="655">
      <contour>
        <pt x="182" y="582" on="1"/>
        <pt x="162" y="384" on="1"/>
        <pt x="422" y="384" on="1"/>
        <pt x="414" y="307" on="1"/>
        <pt x="154" y="307" on="1"/>
        <pt x="121" y="0" on="1"/>
        <pt x="30" y="0" on="1"/>
        <pt x="99" y="655" on="1"/>
        <pt x="468" y="655" on="1"/>
        <pt x="460" y="582" on="1"/>
      </contour>
    </TTGlyph>
    <TTGlyph name="G" xMin="29" yMin="-6" xMax="545" yMax="676">
      <contour>
        <pt x="503" y="62" on="1"/>
        <pt x="436" y="24" on="0"/>
        <pt x="395" y="11" on="1"/>
        <pt x="343" y="-6" on="0"/>
        <pt x="276" y="-6" on="1"/>
        <pt x="155" y="-6" on="0"/>
        <pt x="89" y="83" on="1"/>
        <pt x="29" y="162" on="0"/>
        <pt x="29" y="285" on="1"/>
        <pt x="29" y="309" on="0"/>
        <pt x="32" y="331" on="1"/>
        <pt x="44" y="457" on="0"/>
        <pt x="122" y="557" on="1"/>
        <pt x="213" y="676" on="0"/>
        <pt x="344" y="676" on="1"/>
        <pt x="391" y="676" on="0"/>
        <pt x="451" y="659" on="1"/>
        <pt x="517" y="640" on="0"/>
        <pt x="545" y="614" on="1"/>
        <pt x="499" y="538" on="1"/>
        <pt x="420" y="596" on="0"/>
        <pt x="345" y="596" on="1"/>
        <pt x="249" y="596" on="0"/>
        <pt x="184" y="497" on="1"/>
        <pt x="134" y="419" on="0"/>
        <pt x="124" y="325" on="1"/>
        <pt x="122" y="306" on="0"/>
        <pt x="122" y="286" on="1"/>
        <pt x="122" y="194" on="0"/>
        <pt x="210" y="74" on="0"/>
        <pt x="282" y="74" on="1"/>
        <pt x="355" y="74" on="0"/>
        <pt x="417" y="105" on="1"/>
        <pt x="438" y="308" on="1"/>
        <pt x="293" y="308" on="1"/>
        <pt x="301" y="384" on="1"/>
        <pt x="537" y="384" on="1"/>
      </contour>
    </TTGlyph>
    <TTGlyph name="H" xMin="30" yMin="0" xMax="566" yMax="655">
      <contour>
        <pt x="407" y="0" on="1"/>
        <pt x="439" y="307" on="1"/>
        <pt x="154" y="307" on="1"/>
        <pt x="121" y="0" on="1"/>
        <pt x="30" y="0" on="1"/>
        <pt x="99" y="655" on="1"/>
        <pt x="190" y="655" on="1"/>
        <pt x="162" y="384" on="1"/>
        <pt x="447" y="384" on="1"/>
        <pt x="476" y="655" on="1"/>
        <pt x="566" y="655" on="1"/>
        <pt x="497" y="0" on="1"/>
      </contour>
    </TTGlyph>
    <TTGlyph name="I" xMin="30" yMin="0" xMax="190" yMax="657">
      <contour>
        <pt x="30" y="0" on="1"/>
        <pt x="99" y="657" on="1"/>
        <pt x="190" y="657" on="1"/>
        <pt x="121" y="0" on="1"/>
      </contour>
    </TTGlyph>
    <TTGlyph name="Iacute" xMin="24" yMin="0" xMax="291" yMax="862">
      <contour>
        <pt x="24" y="0" on="1"/>
        <pt x="93" y="657" on="1"/>
        <pt x="184" y="657" on="1"/>
        <pt x="115" y="0" on="1"/>
      </contour>
      <contour>
        <pt x="66" y="703" on="1"/>
        <pt x="24" y="764" on="1"/>
        <pt x="250" y="862" on="1"/>
        <pt x="291" y="796" on="1"/>
      </contour>
    </TTGlyph>
    <TTGlyph name="Icircumflex" xMin="3" yMin="0" xMax="297" yMax="860">
      <contour>
        <pt x="24" y="0" on="1"/>
        <pt x="94" y="657" on="1"/>
        <pt x="185" y="657" on="1"/>
        <pt x="115" y="0" on="1"/>
      </contour>
      <contour>
        <pt x="154" y="767" on="1"/>
        <pt x="3" y="672" on="1"/>
        <pt x="11" y="744" on="1"/>
        <pt x="164" y="860" on="1"/>
        <pt x="297" y="744" on="1"/>
        <pt x="289" y="672" on="1"/>
      </contour>
    </TTGlyph>
    <TTGlyph name="Idieresis" xMin="-4" yMin="0" xMax="312" yMax="819">
      <contour>
        <pt x="27" y="0" on="1"/>
        <pt x="96" y="657" on="1"/>
        <pt x="187" y="657" on="1"/>
        <pt x="118" y="0" on="1"/>
      </contour>
      <contour>
        <pt x="255" y="713" on="1"/>
        <pt x="230" y="713" on="0"/>
        <pt x="208" y="745" on="0"/>
        <pt x="210" y="766" on="1"/>
        <pt x="212" y="786" on="0"/>
        <pt x="242" y="819" on="0"/>
        <pt x="290" y="819" on="0"/>
        <pt x="314" y="785" on="0"/>
        <pt x="312" y="766" on="1"/>
        <pt x="310" y="746" on="0"/>
        <pt x="280" y="713" on="0"/>
      </contour>
      <contour>
        <pt x="41" y="713" on="1"/>
        <pt x="16" y="713" on="0"/>
        <pt x="-6" y="745" on="0"/>
        <pt x="-4" y="766" on="1"/>
        <pt x="-2" y="786" on="0"/>
        <pt x="28" y="819" on="0"/>
        <pt x="76" y="819" on="0"/>
        <pt x="99" y="786" on="0"/>
        <pt x="97" y="766" on="1"/>
        <pt x="95" y="746" on="0"/>
        <pt x="65" y="713" on="0"/>
      </contour>
    </TTGlyph>
    <TTGlyph name="Igrave" xMin="24" yMin="0" xMax="287" yMax="861">
      <contour>
        <pt x="24" y="0" on="1"/>
        <pt x="93" y="657" on="1"/>
        <pt x="184" y="657" on="1"/>
        <pt x="115" y="0" on="1"/>
      </contour>
      <contour>
        <pt x="231" y="702" on="1"/>
        <pt x="28" y="795" on="1"/>
        <pt x="83" y="861" on="1"/>
        <pt x="287" y="763" on="1"/>
      </contour>
    </TTGlyph>
    <TTGlyph name="J" xMin="-189" yMin="-163" xMax="199" yMax="653">
      <contour>
        <pt x="137" y="71" on="1"/>
        <pt x="126" y="-31" on="0"/>
        <pt x="76" y="-92" on="1"/>
        <pt x="17" y="-163" on="0"/>
        <pt x="-92" y="-163" on="1"/>
        <pt x="-153" y="-163" on="0"/>
        <pt x="-189" y="-112" on="1"/>
        <pt x="-135" y="-43" on="1"/>
        <pt x="-124" y="-57" on="0"/>
        <pt x="-83" y="-79" on="0"/>
        <pt x="-71" y="-79" on="1"/>
        <pt x="29" y="-79" on="0"/>
        <pt x="45" y="62" on="1"/>
        <pt x="108" y="653" on="1"/>
        <pt x="199" y="653" on="1"/>
      </contour>
    </TTGlyph>
    <TTGlyph name="K" xMin="30" yMin="-22" xMax="515" yMax="681">
      <contour>
        <pt x="393" y="-22" on="1"/>
        <pt x="315" y="98" on="0"/>
        <pt x="199" y="283" on="1"/>
        <pt x="143" y="211" on="1"/>
        <pt x="121" y="0" on="1"/>
        <pt x="30" y="0" on="1"/>
        <pt x="99" y="655" on="1"/>
        <pt x="190" y="655" on="1"/>
        <pt x="156" y="333" on="1"/>
        <pt x="344" y="550" on="0"/>
        <pt x="449" y="681" on="1"/>
        <pt x="515" y="630" on="1"/>
        <pt x="419" y="525" on="0"/>
        <pt x="263" y="343" on="1"/>
        <pt x="297" y="277" on="0"/>
        <pt x="381" y="164" on="1"/>
        <pt x="381" y="164" on="0"/>
        <pt x="504" y="2" on="1"/>
      </contour>
    </TTGlyph>
    <TTGlyph name="L" xMin="30" yMin="0" xMax="422" yMax="656">
      <contour>
        <pt x="30" y="0" on="1"/>
        <pt x="99" y="656" on="1"/>
        <pt x="190" y="656" on="1"/>
        <pt x="129" y="74" on="1"/>
        <pt x="422" y="74" on="1"/>
        <pt x="414" y="0" on="1"/>
      </contour>
    </TTGlyph>
    <TTGlyph name="Lslash" xMin="-1" yMin="0" xMax="422" yMax="656">
      <contour>
        <pt x="8" y="343" on="1"/>
        <pt x="69" y="365" on="1"/>
        <pt x="99" y="656" on="1"/>
        <pt x="190" y="656" on="1"/>
        <pt x="163" y="399" on="1"/>
        <pt x="236" y="425" on="1"/>
        <pt x="227" y="345" on="1"/>
        <pt x="155" y="319" on="1"/>
        <pt x="129" y="74" on="1"/>
        <pt x="422" y="74" on="1"/>
        <pt x="414" y="0" on="1"/>
        <pt x="30" y="0" on="1"/>
        <pt x="59" y="285" on="1"/>
        <pt x="-1" y="263" on="1"/>
      </contour>
    </TTGlyph>
    <TTGlyph name="M" xMin="41" yMin="-1" xMax="771" yMax="657">
      <contour>
        <pt x="610" y="0" on="1"/>
        <pt x="666" y="523" on="1"/>
        <pt x="412" y="-1" on="1"/>
        <pt x="327" y="-1" on="1"/>
        <pt x="181" y="527" on="1"/>
        <pt x="125" y="0" on="1"/>
        <pt x="41" y="0" on="1"/>
        <pt x="111" y="657" on="1"/>
        <pt x="241" y="657" on="1"/>
        <pt x="387" y="130" on="1"/>
        <pt x="651" y="657" on="1"/>
        <pt x="771" y="657" on="1"/>
        <pt x="701" y="0" on="1"/>
      </contour>
    </TTGlyph>
    <TTGlyph name="N" xMin="30" yMin="-11" xMax="566" yMax="659">
      <contour>
        <pt x="431" y="-11" on="1"/>
        <pt x="356" y="155" on="0"/>
        <pt x="166" y="475" on="1"/>
        <pt x="116" y="1" on="1"/>
        <pt x="30" y="0" on="1"/>
        <pt x="100" y="659" on="1"/>
        <pt x="176" y="659" on="1"/>
        <pt x="433" y="194" on="1"/>
        <pt x="482" y="655" on="1"/>
        <pt x="566" y="655" on="1"/>
        <pt x="499" y="11" on="1"/>
      </contour>
    </TTGlyph>
    <TTGlyph name="Ntilde" xMin="27" yMin="-11" xMax="563" yMax="814">
      <contour>
        <pt x="428" y="-11" on="1"/>
        <pt x="353" y="155" on="0"/>
        <pt x="163" y="475" on="1"/>
        <pt x="113" y="1" on="1"/>
        <pt x="27" y="0" on="1"/>
        <pt x="97" y="659" on="1"/>
        <pt x="173" y="659" on="1"/>
        <pt x="430" y="194" on="1"/>
        <pt x="479" y="655" on="1"/>
        <pt x="563" y="655" on="1"/>
        <pt x="496" y="11" on="1"/>
      </contour>
      <contour>
        <pt x="423" y="675" on="1"/>
        <pt x="395" y="675" on="0"/>
        <pt x="308" y="745" on="0"/>
        <pt x="293" y="745" on="1"/>
        <pt x="252" y="745" on="0"/>
        <pt x="216" y="702" on="1"/>
        <pt x="195" y="763" on="1"/>
        <pt x="212" y="785" on="0"/>
        <pt x="245" y="799" on="1"/>
        <pt x="275" y="813" on="0"/>
        <pt x="300" y="814" on="1"/>
        <pt x="328" y="815" on="0"/>
        <pt x="408" y="744" on="0"/>
        <pt x="428" y="744" on="1"/>
        <pt x="454" y="744" on="0"/>
        <pt x="482" y="770" on="1"/>
        <pt x="503" y="709" on="1"/>
        <pt x="493" y="698" on="0"/>
        <pt x="436" y="675" on="0"/>
      </contour>
    </TTGlyph>
    <TTGlyph name="O" xMin="31" yMin="-16" xMax="631" yMax="662">
      <contour>
        <pt x="291" y="-16" on="1"/>
        <pt x="174" y="-16" on="0"/>
        <pt x="104" y="56" on="1"/>
        <pt x="30" y="134" on="0"/>
        <pt x="31" y="272" on="1"/>
        <pt x="31" y="300" on="0"/>
        <pt x="34" y="330" on="1"/>
        <pt x="49" y="474" on="0"/>
        <pt x="239" y="662" on="0"/>
        <pt x="370" y="662" on="1"/>
        <pt x="489" y="662" on="0"/>
        <pt x="631" y="504" on="0"/>
        <pt x="631" y="377" on="1"/>
        <pt x="631" y="353" on="0"/>
        <pt x="629" y="330" on="1"/>
        <pt x="612" y="166" on="0"/>
        <pt x="512" y="72" on="1"/>
        <pt x="421" y="-16" on="0"/>
      </contour>
      <contour>
        <pt x="359" y="586" on="1"/>
        <pt x="251" y="586" on="0"/>
        <pt x="180" y="486" on="1"/>
        <pt x="115" y="397" on="0"/>
        <pt x="116" y="285" on="1"/>
        <pt x="116" y="190" on="0"/>
        <pt x="217" y="62" on="0"/>
        <pt x="299" y="62" on="1"/>
        <pt x="407" y="62" on="0"/>
        <pt x="479" y="159" on="1"/>
        <pt x="546" y="248" on="0"/>
        <pt x="546" y="357" on="1"/>
        <pt x="546" y="455" on="0"/>
        <pt x="497" y="519" on="1"/>
        <pt x="444" y="586" on="0"/>
      </contour>
    </TTGlyph>
    <TTGlyph name="OE" xMin="41" yMin="-3" xMax="1022" yMax="673">
      <contour>
        <pt x="588" y="0" on="1"/>
        <pt x="612" y="228" on="1"/>
        <pt x="496" y="-3" on="0"/>
        <pt x="301" y="-3" on="1"/>
        <pt x="185" y="-3" on="0"/>
        <pt x="115" y="73" on="1"/>
        <pt x="41" y="152" on="0"/>
        <pt x="41" y="291" on="1"/>
        <pt x="41" y="320" on="0"/>
        <pt x="44" y="349" on="1"/>
        <pt x="59" y="492" on="0"/>
        <pt x="247" y="673" on="0"/>
        <pt x="379" y="673" on="1"/>
        <pt x="569" y="673" on="0"/>
        <pt x="637" y="460" on="1"/>
        <pt x="658" y="665" on="1"/>
        <pt x="1022" y="665" on="1"/>
        <pt x="1014" y="591" on="1"/>
        <pt x="742" y="591" on="1"/>
        <pt x="722" y="393" on="1"/>
        <pt x="983" y="393" on="1"/>
        <pt x="975" y="316" on="1"/>
        <pt x="711" y="316" on="1"/>
        <pt x="687" y="86" on="1"/>
        <pt x="961" y="86" on="1"/>
        <pt x="951" y="0" on="1"/>
      </contour>
      <contour>
        <pt x="370" y="595" on="1"/>
        <pt x="260" y="595" on="0"/>
        <pt x="190" y="501" on="1"/>
        <pt x="128" y="415" on="0"/>
        <pt x="128" y="303" on="1"/>
        <pt x="128" y="206" on="0"/>
        <pt x="228" y="77" on="0"/>
        <pt x="309" y="77" on="1"/>
        <pt x="415" y="77" on="0"/>
        <pt x="488" y="176" on="1"/>
        <pt x="554" y="267" on="0"/>
        <pt x="554" y="377" on="1"/>
        <pt x="554" y="473" on="0"/>
        <pt x="506" y="532" on="1"/>
        <pt x="455" y="595" on="0"/>
      </contour>
    </TTGlyph>
    <TTGlyph name="Oacute" xMin="25" yMin="-16" xMax="626" yMax="862">
      <contour>
        <pt x="286" y="-16" on="1"/>
        <pt x="169" y="-16" on="0"/>
        <pt x="98" y="56" on="1"/>
        <pt x="24" y="134" on="0"/>
        <pt x="25" y="272" on="1"/>
        <pt x="25" y="300" on="0"/>
        <pt x="28" y="330" on="1"/>
        <pt x="43" y="474" on="0"/>
        <pt x="233" y="662" on="0"/>
        <pt x="365" y="662" on="1"/>
        <pt x="484" y="662" on="0"/>
        <pt x="626" y="504" on="0"/>
        <pt x="626" y="377" on="1"/>
        <pt x="626" y="353" on="0"/>
        <pt x="623" y="330" on="1"/>
        <pt x="606" y="166" on="0"/>
        <pt x="507" y="72" on="1"/>
        <pt x="416" y="-16" on="0"/>
      </contour>
      <contour>
        <pt x="354" y="586" on="1"/>
        <pt x="245" y="586" on="0"/>
        <pt x="174" y="486" on="1"/>
        <pt x="111" y="397" on="0"/>
        <pt x="111" y="285" on="1"/>
        <pt x="111" y="190" on="0"/>
        <pt x="212" y="62" on="0"/>
        <pt x="294" y="62" on="1"/>
        <pt x="400" y="62" on="0"/>
        <pt x="473" y="159" on="1"/>
        <pt x="540" y="248" on="0"/>
        <pt x="540" y="357" on="1"/>
        <pt x="540" y="455" on="0"/>
        <pt x="439" y="586" on="0"/>
      </contour>
      <contour>
        <pt x="282" y="703" on="1"/>
        <pt x="240" y="764" on="1"/>
        <pt x="465" y="862" on="1"/>
        <pt x="507" y="796" on="1"/>
      </contour>
    </TTGlyph>
    <TTGlyph name="Ocircumflex" xMin="25" yMin="-16" xMax="625" yMax="870">
      <contour>
        <pt x="285" y="-16" on="1"/>
        <pt x="168" y="-16" on="0"/>
        <pt x="98" y="56" on="1"/>
        <pt x="24" y="134" on="0"/>
        <pt x="25" y="272" on="1"/>
        <pt x="25" y="300" on="0"/>
        <pt x="28" y="330" on="1"/>
        <pt x="43" y="474" on="0"/>
        <pt x="232" y="662" on="0"/>
        <pt x="364" y="662" on="1"/>
        <pt x="483" y="662" on="0"/>
        <pt x="625" y="504" on="0"/>
        <pt x="625" y="377" on="1"/>
        <pt x="625" y="353" on="0"/>
        <pt x="623" y="330" on="1"/>
        <pt x="606" y="166" on="0"/>
        <pt x="507" y="72" on="1"/>
        <pt x="415" y="-16" on="0"/>
      </contour>
      <contour>
        <pt x="353" y="586" on="1"/>
        <pt x="245" y="586" on="0"/>
        <pt x="174" y="486" on="1"/>
        <pt x="109" y="397" on="0"/>
        <pt x="110" y="285" on="1"/>
        <pt x="110" y="190" on="0"/>
        <pt x="211" y="62" on="0"/>
        <pt x="293" y="62" on="1"/>
        <pt x="401" y="62" on="0"/>
        <pt x="473" y="159" on="1"/>
        <pt x="540" y="248" on="0"/>
        <pt x="540" y="357" on="1"/>
        <pt x="540" y="455" on="0"/>
        <pt x="490" y="519" on="1"/>
        <pt x="438" y="586" on="0"/>
      </contour>
      <contour>
        <pt x="378" y="777" on="1"/>
        <pt x="226" y="682" on="1"/>
        <pt x="234" y="755" on="1"/>
        <pt x="388" y="870" on="1"/>
        <pt x="521" y="755" on="1"/>
        <pt x="513" y="682" on="1"/>
      </contour>
    </TTGlyph>
    <TTGlyph name="Odieresis" xMin="27" yMin="-16" xMax="628" yMax="819">
      <contour>
        <pt x="288" y="-16" on="1"/>
        <pt x="171" y="-16" on="0"/>
        <pt x="101" y="56" on="1"/>
        <pt x="26" y="134" on="0"/>
        <pt x="27" y="272" on="1"/>
        <pt x="27" y="300" on="0"/>
        <pt x="31" y="330" on="1"/>
        <pt x="46" y="474" on="0"/>
        <pt x="236" y="662" on="0"/>
        <pt x="367" y="662" on="1"/>
        <pt x="486" y="662" on="0"/>
        <pt x="628" y="504" on="0"/>
        <pt x="628" y="377" on="1"/>
        <pt x="628" y="353" on="0"/>
        <pt x="626" y="330" on="1"/>
        <pt x="609" y="166" on="0"/>
        <pt x="510" y="72" on="1"/>
        <pt x="418" y="-16" on="0"/>
      </contour>
      <contour>
        <pt x="356" y="586" on="1"/>
        <pt x="247" y="586" on="0"/>
        <pt x="177" y="486" on="1"/>
        <pt x="112" y="397" on="0"/>
        <pt x="113" y="285" on="1"/>
        <pt x="113" y="190" on="0"/>
        <pt x="214" y="62" on="0"/>
        <pt x="296" y="62" on="1"/>
        <pt x="402" y="62" on="0"/>
        <pt x="475" y="159" on="1"/>
        <pt x="543" y="248" on="0"/>
        <pt x="543" y="357" on="1"/>
        <pt x="543" y="455" on="0"/>
        <pt x="441" y="586" on="0"/>
      </contour>
      <contour>
        <pt x="482" y="713" on="1"/>
        <pt x="457" y="713" on="0"/>
        <pt x="435" y="745" on="0"/>
        <pt x="437" y="766" on="1"/>
        <pt x="439" y="786" on="0"/>
        <pt x="469" y="819" on="0"/>
        <pt x="494" y="819" on="1"/>
        <pt x="518" y="819" on="0"/>
        <pt x="542" y="785" on="0"/>
        <pt x="540" y="766" on="1"/>
        <pt x="538" y="746" on="0"/>
        <pt x="506" y="713" on="0"/>
      </contour>
      <contour>
        <pt x="267" y="713" on="1"/>
        <pt x="242" y="713" on="0"/>
        <pt x="220" y="745" on="0"/>
        <pt x="222" y="766" on="1"/>
        <pt x="224" y="786" on="0"/>
        <pt x="254" y="819" on="0"/>
        <pt x="279" y="819" on="1"/>
        <pt x="303" y="819" on="0"/>
        <pt x="327" y="785" on="0"/>
        <pt x="325" y="766" on="1"/>
        <pt x="323" y="746" on="0"/>
        <pt x="291" y="713" on="0"/>
      </contour>
    </TTGlyph>
    <TTGlyph name="Ograve" xMin="25" yMin="-16" xMax="626" yMax="861">
      <contour>
        <pt x="286" y="-16" on="1"/>
        <pt x="169" y="-16" on="0"/>
        <pt x="98" y="56" on="1"/>
        <pt x="24" y="134" on="0"/>
        <pt x="25" y="272" on="1"/>
        <pt x="25" y="300" on="0"/>
        <pt x="28" y="330" on="1"/>
        <pt x="43" y="474" on="0"/>
        <pt x="233" y="662" on="0"/>
        <pt x="365" y="662" on="1"/>
        <pt x="484" y="662" on="0"/>
        <pt x="626" y="504" on="0"/>
        <pt x="626" y="377" on="1"/>
        <pt x="626" y="353" on="0"/>
        <pt x="623" y="330" on="1"/>
        <pt x="606" y="166" on="0"/>
        <pt x="507" y="72" on="1"/>
        <pt x="416" y="-16" on="0"/>
      </contour>
      <contour>
        <pt x="354" y="586" on="1"/>
        <pt x="245" y="586" on="0"/>
        <pt x="175" y="486" on="1"/>
        <pt x="110" y="397" on="0"/>
        <pt x="111" y="285" on="1"/>
        <pt x="111" y="190" on="0"/>
        <pt x="212" y="62" on="0"/>
        <pt x="294" y="62" on="1"/>
        <pt x="400" y="62" on="0"/>
        <pt x="473" y="159" on="1"/>
        <pt x="540" y="248" on="0"/>
        <pt x="540" y="357" on="1"/>
        <pt x="540" y="455" on="0"/>
        <pt x="439" y="586" on="0"/>
      </contour>
      <contour>
        <pt x="447" y="702" on="1"/>
        <pt x="244" y="795" on="1"/>
        <pt x="298" y="861" on="1"/>
        <pt x="503" y="763" on="1"/>
      </contour>
    </TTGlyph>
    <TTGlyph name="Omega" xMin="29" yMin="0" xMax="607" yMax="652">
      <contour>
        <pt x="394" y="133" on="1"/>
        <pt x="387" y="67" on="1"/>
        <pt x="549" y="67" on="1"/>
        <pt x="542" y="0" on="1"/>
        <pt x="331" y="0" on="1"/>
        <pt x="350" y="180" on="1"/>
        <pt x="412" y="180" on="0"/>
        <pt x="465" y="245" on="1"/>
        <pt x="511" y="301" on="0"/>
        <pt x="517" y="357" on="1"/>
        <pt x="520" y="382" on="0"/>
        <pt x="520" y="404" on="1"/>
        <pt x="520" y="594" on="0"/>
        <pt x="354" y="595" on="1"/>
        <pt x="259" y="595" on="0"/>
        <pt x="142" y="467" on="0"/>
        <pt x="130" y="357" on="1"/>
        <pt x="124" y="297" on="0"/>
        <pt x="153" y="245" on="1"/>
        <pt x="188" y="180" on="0"/>
        <pt x="260" y="180" on="1"/>
        <pt x="241" y="0" on="1"/>
        <pt x="29" y="0" on="1"/>
        <pt x="36" y="67" on="1"/>
        <pt x="195" y="67" on="1"/>
        <pt x="202" y="132" on="1"/>
        <pt x="136" y="142" on="0"/>
        <pt x="44" y="271" on="0"/>
        <pt x="44" y="346" on="1"/>
        <pt x="44" y="487" on="0"/>
        <pt x="220" y="652" on="0"/>
        <pt x="361" y="652" on="1"/>
        <pt x="607" y="652" on="0"/>
        <pt x="607" y="419" on="1"/>
        <pt x="607" y="394" on="0"/>
        <pt x="604" y="368" on="1"/>
        <pt x="596" y="289" on="0"/>
        <pt x="467" y="141" on="0"/>
      </contour>
    </TTGlyph>
    <TTGlyph name="Oslash" xMin="32" yMin="-71" xMax="632" yMax="698">
      <contour>
        <pt x="199" y="95" on="1"/>
        <pt x="399" y="582" on="1"/>
        <pt x="383" y="586" on="0"/>
        <pt x="360" y="586" on="1"/>
        <pt x="252" y="586" on="0"/>
        <pt x="181" y="486" on="1"/>
        <pt x="116" y="397" on="0"/>
        <pt x="117" y="286" on="1"/>
        <pt x="117" y="156" on="0"/>
      </contour>
      <contour>
        <pt x="472" y="546" on="1"/>
        <pt x="273" y="65" on="1"/>
        <pt x="291" y="63" on="0"/>
        <pt x="300" y="62" on="1"/>
        <pt x="406" y="62" on="0"/>
        <pt x="479" y="159" on="1"/>
        <pt x="547" y="248" on="0"/>
        <pt x="547" y="357" on="1"/>
        <pt x="547" y="481" on="0"/>
      </contour>
      <contour>
        <pt x="447" y="698" on="1"/>
        <pt x="524" y="674" on="1"/>
        <pt x="505" y="627" on="1"/>
        <pt x="632" y="554" on="0"/>
        <pt x="632" y="376" on="1"/>
        <pt x="632" y="353" on="0"/>
        <pt x="630" y="330" on="1"/>
        <pt x="613" y="166" on="0"/>
        <pt x="513" y="72" on="1"/>
        <pt x="422" y="-16" on="0"/>
        <pt x="292" y="-16" on="1"/>
        <pt x="263" y="-16" on="0"/>
        <pt x="242" y="-12" on="1"/>
        <pt x="218" y="-71" on="1"/>
        <pt x="141" y="-46" on="1"/>
        <pt x="165" y="12" on="1"/>
        <pt x="32" y="82" on="0"/>
        <pt x="32" y="272" on="1"/>
        <pt x="32" y="300" on="0"/>
        <pt x="35" y="330" on="1"/>
        <pt x="50" y="474" on="0"/>
        <pt x="240" y="662" on="0"/>
        <pt x="371" y="662" on="1"/>
        <pt x="403" y="662" on="0"/>
        <pt x="429" y="655" on="1"/>
      </contour>
    </TTGlyph>
    <TTGlyph name="Otilde" xMin="27" yMin="-16" xMax="628" yMax="824">
      <contour>
        <pt x="287" y="-16" on="1"/>
        <pt x="171" y="-16" on="0"/>
        <pt x="100" y="56" on="1"/>
        <pt x="26" y="134" on="0"/>
        <pt x="27" y="272" on="1"/>
        <pt x="27" y="300" on="0"/>
        <pt x="30" y="330" on="1"/>
        <pt x="45" y="474" on="0"/>
        <pt x="234" y="662" on="0"/>
        <pt x="367" y="662" on="1"/>
        <pt x="486" y="662" on="0"/>
        <pt x="628" y="504" on="0"/>
        <pt x="628" y="377" on="1"/>
        <pt x="628" y="353" on="0"/>
        <pt x="625" y="330" on="1"/>
        <pt x="608" y="166" on="0"/>
        <pt x="509" y="72" on="1"/>
        <pt x="418" y="-16" on="0"/>
      </contour>
      <contour>
        <pt x="356" y="586" on="1"/>
        <pt x="247" y="586" on="0"/>
        <pt x="176" y="486" on="1"/>
        <pt x="113" y="397" on="0"/>
        <pt x="113" y="285" on="1"/>
        <pt x="113" y="190" on="0"/>
        <pt x="214" y="62" on="0"/>
        <pt x="296" y="62" on="1"/>
        <pt x="402" y="62" on="0"/>
        <pt x="475" y="159" on="1"/>
        <pt x="542" y="248" on="0"/>
        <pt x="542" y="357" on="1"/>
        <pt x="542" y="455" on="0"/>
        <pt x="441" y="586" on="0"/>
      </contour>
      <contour>
        <pt x="424" y="685" on="1"/>
        <pt x="396" y="685" on="0"/>
        <pt x="309" y="756" on="0"/>
        <pt x="293" y="756" on="1"/>
        <pt x="253" y="756" on="0"/>
        <pt x="217" y="713" on="1"/>
        <pt x="196" y="773" on="1"/>
        <pt x="213" y="795" on="0"/>
        <pt x="275" y="823" on="0"/>
        <pt x="300" y="824" on="1"/>
        <pt x="329" y="825" on="0"/>
        <pt x="409" y="755" on="0"/>
        <pt x="429" y="755" on="1"/>
        <pt x="455" y="755" on="0"/>
        <pt x="483" y="780" on="1"/>
        <pt x="504" y="719" on="1"/>
        <pt x="493" y="708" on="0"/>
        <pt x="437" y="685" on="0"/>
      </contour>
    </TTGlyph>
    <TTGlyph name="P" xMin="30" yMin="0" xMax="454" yMax="659">
      <contour>
        <pt x="244" y="270" on="1"/>
        <pt x="205" y="270" on="0"/>
        <pt x="150" y="274" on="1"/>
        <pt x="121" y="0" on="1"/>
        <pt x="30" y="0" on="1"/>
        <pt x="99" y="655" on="1"/>
        <pt x="293" y="659" on="1"/>
        <pt x="368" y="661" on="0"/>
        <pt x="454" y="571" on="0"/>
        <pt x="454" y="498" on="1"/>
        <pt x="454" y="409" on="0"/>
        <pt x="394" y="341" on="1"/>
        <pt x="332" y="270" on="0"/>
      </contour>
      <contour>
        <pt x="274" y="599" on="1"/>
        <pt x="184" y="597" on="1"/>
        <pt x="157" y="338" on="1"/>
        <pt x="237" y="339" on="1"/>
        <pt x="297" y="340" on="0"/>
        <pt x="332" y="390" on="1"/>
        <pt x="364" y="434" on="0"/>
        <pt x="364" y="497" on="1"/>
        <pt x="363" y="601" on="0"/>
      </contour>
    </TTGlyph>
    <TTGlyph name="Q" xMin="33" yMin="-72" xMax="643" yMax="662">
      <contour>
        <pt x="583" y="-72" on="1"/>
        <pt x="469" y="38" on="1"/>
        <pt x="387" y="-16" on="0"/>
        <pt x="293" y="-16" on="1"/>
        <pt x="177" y="-16" on="0"/>
        <pt x="106" y="57" on="1"/>
        <pt x="32" y="135" on="0"/>
        <pt x="33" y="273" on="1"/>
        <pt x="33" y="301" on="0"/>
        <pt x="36" y="331" on="1"/>
        <pt x="51" y="475" on="0"/>
        <pt x="241" y="662" on="0"/>
        <pt x="373" y="662" on="1"/>
        <pt x="492" y="662" on="0"/>
        <pt x="633" y="507" on="0"/>
        <pt x="633" y="381" on="1"/>
        <pt x="633" y="307" on="0"/>
        <pt x="608" y="226" on="1"/>
        <pt x="579" y="136" on="0"/>
        <pt x="535" y="94" on="1"/>
        <pt x="643" y="-11" on="1"/>
      </contour>
      <contour>
        <pt x="361" y="585" on="1"/>
        <pt x="252" y="585" on="0"/>
        <pt x="182" y="487" on="1"/>
        <pt x="117" y="399" on="0"/>
        <pt x="118" y="287" on="1"/>
        <pt x="118" y="192" on="0"/>
        <pt x="217" y="62" on="0"/>
        <pt x="298" y="62" on="1"/>
        <pt x="354" y="62" on="0"/>
        <pt x="411" y="95" on="1"/>
        <pt x="341" y="163" on="1"/>
        <pt x="402" y="222" on="1"/>
        <pt x="474" y="153" on="1"/>
        <pt x="535" y="228" on="0"/>
        <pt x="546" y="324" on="1"/>
        <pt x="548" y="343" on="0"/>
        <pt x="548" y="361" on="1"/>
        <pt x="548" y="457" on="0"/>
        <pt x="499" y="520" on="1"/>
        <pt x="446" y="585" on="0"/>
      </contour>
    </TTGlyph>
    <TTGlyph name="R" xMin="30" yMin="-10" xMax="504" yMax="659">
      <contour>
        <pt x="388" y="-10" on="1"/>
        <pt x="341" y="43" on="0"/>
        <pt x="284" y="140" on="1"/>
        <pt x="247" y="202" on="0"/>
        <pt x="198" y="298" on="1"/>
        <pt x="153" y="296" on="1"/>
        <pt x="121" y="0" on="1"/>
        <pt x="30" y="0" on="1"/>
        <pt x="99" y="656" on="1"/>
        <pt x="306" y="659" on="0"/>
        <pt x="307" y="659" on="1"/>
        <pt x="467" y="657" on="0"/>
        <pt x="467" y="513" on="1"/>
        <pt x="467" y="497" on="0"/>
        <pt x="465" y="478" on="1"/>
        <pt x="456" y="403" on="0"/>
        <pt x="402" y="356" on="1"/>
        <pt x="356" y="316" on="0"/>
        <pt x="290" y="303" on="1"/>
        <pt x="318" y="257" on="0"/>
        <pt x="385" y="156" on="1"/>
        <pt x="420" y="103" on="0"/>
        <pt x="504" y="10" on="1"/>
      </contour>
      <contour>
        <pt x="273" y="597" on="1"/>
        <pt x="184" y="595" on="1"/>
        <pt x="160" y="365" on="1"/>
        <pt x="226" y="365" on="1"/>
        <pt x="308" y="365" on="0"/>
        <pt x="383" y="433" on="0"/>
        <pt x="383" y="513" on="1"/>
        <pt x="383" y="599" on="0"/>
      </contour>
    </TTGlyph>
    <TTGlyph name="S" xMin="14" yMin="-10" xMax="463" yMax="682">
      <contour>
        <pt x="208" y="-10" on="1"/>
        <pt x="147" y="-10" on="0"/>
        <pt x="39" y="36" on="0"/>
        <pt x="14" y="75" on="1"/>
        <pt x="69" y="140" on="1"/>
        <pt x="123" y="67" on="0"/>
        <pt x="219" y="68" on="1"/>
        <pt x="273" y="68" on="0"/>
        <pt x="310" y="96" on="1"/>
        <pt x="351" y="129" on="0"/>
        <pt x="357" y="187" on="1"/>
        <pt x="363" y="253" on="0"/>
        <pt x="292" y="287" on="1"/>
        <pt x="223" y="317" on="0"/>
        <pt x="155" y="345" on="1"/>
        <pt x="79" y="389" on="0"/>
        <pt x="79" y="477" on="1"/>
        <pt x="79" y="491" on="0"/>
        <pt x="81" y="507" on="1"/>
        <pt x="89" y="583" on="0"/>
        <pt x="154" y="633" on="1"/>
        <pt x="215" y="682" on="0"/>
        <pt x="297" y="682" on="1"/>
        <pt x="391" y="682" on="0"/>
        <pt x="463" y="620" on="1"/>
        <pt x="414" y="555" on="1"/>
        <pt x="365" y="604" on="0"/>
        <pt x="289" y="604" on="1"/>
        <pt x="185" y="604" on="0"/>
        <pt x="173" y="501" on="1"/>
        <pt x="166" y="436" on="0"/>
        <pt x="269" y="400" on="1"/>
        <pt x="368" y="365" on="0"/>
        <pt x="400" y="340" on="1"/>
        <pt x="447" y="302" on="0"/>
        <pt x="447" y="225" on="1"/>
        <pt x="447" y="209" on="0"/>
        <pt x="445" y="189" on="1"/>
        <pt x="435" y="89" on="0"/>
        <pt x="361" y="36" on="1"/>
        <pt x="298" y="-10" on="0"/>
      </contour>
    </TTGlyph>
    <TTGlyph name="Scaron" xMin="14" yMin="-10" xMax="476" yMax="864">
      <component glyphName="S" x="0" y="0" flags="0x1004"/>
      <component glyphName="caron" x="151" y="154" flags="0x1004"/>
    </TTGlyph>
    <TTGlyph name="T" xMin="59" yMin="0" xMax="551" yMax="654">
      <contour>
        <pt x="353" y="586" on="1"/>
        <pt x="291" y="0" on="1"/>
        <pt x="200" y="0" on="1"/>
        <pt x="262" y="586" on="1"/>
        <pt x="59" y="586" on="1"/>
        <pt x="67" y="654" on="1"/>
        <pt x="551" y="654" on="1"/>
        <pt x="544" y="586" on="1"/>
      </contour>
    </TTGlyph>
    <TTGlyph name="Thorn" xMin="17" yMin="-111" xMax="520" yMax="717">
      <contour>
        <pt x="269" y="148" on="1"/>
        <pt x="246" y="148" on="0"/>
        <pt x="225" y="152" on="1"/>
        <pt x="185" y="158" on="0"/>
        <pt x="136" y="194" on="1"/>
        <pt x="103" y="-111" on="1"/>
        <pt x="17" y="-111" on="1"/>
        <pt x="105" y="717" on="1"/>
        <pt x="191" y="717" on="1"/>
        <pt x="181" y="617" on="1"/>
        <pt x="237" y="692" on="0"/>
        <pt x="325" y="692" on="1"/>
        <pt x="420" y="692" on="0"/>
        <pt x="472" y="622" on="1"/>
        <pt x="520" y="557" on="0"/>
        <pt x="520" y="459" on="1"/>
        <pt x="520" y="441" on="0"/>
        <pt x="518" y="422" on="1"/>
        <pt x="504" y="279" on="0"/>
        <pt x="431" y="209" on="1"/>
        <pt x="367" y="148" on="0"/>
      </contour>
      <contour>
        <pt x="297" y="613" on="1"/>
        <pt x="216" y="613" on="0"/>
        <pt x="172" y="538" on="1"/>
        <pt x="145" y="280" on="1"/>
        <pt x="177" y="219" on="0"/>
        <pt x="271" y="218" on="1"/>
        <pt x="351" y="218" on="0"/>
        <pt x="395" y="295" on="1"/>
        <pt x="431" y="358" on="0"/>
        <pt x="431" y="445" on="1"/>
        <pt x="431" y="516" on="0"/>
        <pt x="401" y="561" on="1"/>
        <pt x="367" y="613" on="0"/>
      </contour>
    </TTGlyph>
    <TTGlyph name="U" xMin="53" yMin="-17" xMax="556" yMax="655">
      <contour>
        <pt x="511" y="236" on="1"/>
        <pt x="498" y="108" on="0"/>
        <pt x="416" y="40" on="1"/>
        <pt x="345" y="-17" on="0"/>
        <pt x="248" y="-17" on="1"/>
        <pt x="164" y="-17" on="0"/>
        <pt x="112" y="31" on="1"/>
        <pt x="54" y="85" on="0"/>
        <pt x="53" y="191" on="1"/>
        <pt x="53" y="211" on="0"/>
        <pt x="55" y="236" on="1"/>
        <pt x="100" y="655" on="1"/>
        <pt x="191" y="655" on="1"/>
        <pt x="146" y="236" on="1"/>
        <pt x="144" y="216" on="0"/>
        <pt x="144" y="196" on="1"/>
        <pt x="144" y="60" on="0"/>
        <pt x="258" y="59" on="1"/>
        <pt x="318" y="59" on="0"/>
        <pt x="359" y="97" on="1"/>
        <pt x="409" y="143" on="0"/>
        <pt x="419" y="236" on="1"/>
        <pt x="464" y="655" on="1"/>
        <pt x="556" y="655" on="1"/>
      </contour>
    </TTGlyph>
    <TTGlyph name="Uacute" xMin="47" yMin="-17" xMax="550" yMax="862">
      <contour>
        <pt x="506" y="236" on="1"/>
        <pt x="492" y="108" on="0"/>
        <pt x="410" y="40" on="1"/>
        <pt x="340" y="-17" on="0"/>
        <pt x="242" y="-17" on="1"/>
        <pt x="158" y="-17" on="0"/>
        <pt x="106" y="31" on="1"/>
        <pt x="47" y="85" on="0"/>
        <pt x="47" y="191" on="1"/>
        <pt x="47" y="211" on="0"/>
        <pt x="50" y="236" on="1"/>
        <pt x="94" y="655" on="1"/>
        <pt x="185" y="655" on="1"/>
        <pt x="141" y="236" on="1"/>
        <pt x="138" y="216" on="0"/>
        <pt x="138" y="196" on="1"/>
        <pt x="138" y="60" on="0"/>
        <pt x="253" y="59" on="1"/>
        <pt x="312" y="59" on="0"/>
        <pt x="353" y="97" on="1"/>
        <pt x="403" y="143" on="0"/>
        <pt x="414" y="236" on="1"/>
        <pt x="458" y="655" on="1"/>
        <pt x="550" y="655" on="1"/>
      </contour>
      <contour>
        <pt x="239" y="703" on="1"/>
        <pt x="197" y="764" on="1"/>
        <pt x="423" y="862" on="1"/>
        <pt x="464" y="796" on="1"/>
      </contour>
    </TTGlyph>
    <TTGlyph name="Ucircumflex" xMin="47" yMin="-17" xMax="550" yMax="870">
      <contour>
        <pt x="505" y="236" on="1"/>
        <pt x="492" y="108" on="0"/>
        <pt x="409" y="40" on="1"/>
        <pt x="339" y="-17" on="0"/>
        <pt x="242" y="-17" on="1"/>
        <pt x="157" y="-17" on="0"/>
        <pt x="105" y="31" on="1"/>
        <pt x="47" y="85" on="0"/>
        <pt x="47" y="191" on="1"/>
        <pt x="47" y="211" on="0"/>
        <pt x="49" y="236" on="1"/>
        <pt x="94" y="655" on="1"/>
        <pt x="185" y="655" on="1"/>
        <pt x="140" y="236" on="1"/>
        <pt x="138" y="216" on="0"/>
        <pt x="138" y="196" on="1"/>
        <pt x="138" y="60" on="0"/>
        <pt x="253" y="59" on="1"/>
        <pt x="312" y="59" on="0"/>
        <pt x="353" y="97" on="1"/>
        <pt x="403" y="143" on="0"/>
        <pt x="413" y="236" on="1"/>
        <pt x="458" y="655" on="1"/>
        <pt x="550" y="655" on="1"/>
      </contour>
      <contour>
        <pt x="327" y="777" on="1"/>
        <pt x="175" y="682" on="1"/>
        <pt x="183" y="755" on="1"/>
        <pt x="337" y="870" on="1"/>
        <pt x="470" y="755" on="1"/>
        <pt x="462" y="682" on="1"/>
      </contour>
    </TTGlyph>
    <TTGlyph name="Udieresis" xMin="49" yMin="-17" xMax="552" yMax="819">
      <contour>
        <pt x="508" y="236" on="1"/>
        <pt x="495" y="108" on="0"/>
        <pt x="412" y="40" on="1"/>
        <pt x="342" y="-17" on="0"/>
        <pt x="245" y="-17" on="1"/>
        <pt x="160" y="-17" on="0"/>
        <pt x="109" y="31" on="1"/>
        <pt x="50" y="85" on="0"/>
        <pt x="49" y="191" on="1"/>
        <pt x="49" y="211" on="0"/>
        <pt x="52" y="236" on="1"/>
        <pt x="96" y="655" on="1"/>
        <pt x="187" y="655" on="1"/>
        <pt x="143" y="236" on="1"/>
        <pt x="141" y="216" on="0"/>
        <pt x="141" y="196" on="1"/>
        <pt x="141" y="60" on="0"/>
        <pt x="256" y="59" on="1"/>
        <pt x="315" y="59" on="0"/>
        <pt x="356" y="97" on="1"/>
        <pt x="405" y="143" on="0"/>
        <pt x="416" y="236" on="1"/>
        <pt x="460" y="655" on="1"/>
        <pt x="552" y="655" on="1"/>
      </contour>
      <contour>
        <pt x="428" y="713" on="1"/>
        <pt x="403" y="713" on="0"/>
        <pt x="381" y="745" on="0"/>
        <pt x="383" y="766" on="1"/>
        <pt x="385" y="786" on="0"/>
        <pt x="415" y="819" on="0"/>
        <pt x="463" y="819" on="0"/>
        <pt x="487" y="785" on="0"/>
        <pt x="485" y="766" on="1"/>
        <pt x="483" y="746" on="0"/>
        <pt x="452" y="713" on="0"/>
      </contour>
      <contour>
        <pt x="214" y="713" on="1"/>
        <pt x="189" y="713" on="0"/>
        <pt x="167" y="745" on="0"/>
        <pt x="169" y="766" on="1"/>
        <pt x="171" y="786" on="0"/>
        <pt x="201" y="819" on="0"/>
        <pt x="249" y="819" on="0"/>
        <pt x="272" y="786" on="0"/>
        <pt x="270" y="766" on="1"/>
        <pt x="268" y="746" on="0"/>
        <pt x="238" y="713" on="0"/>
      </contour>
    </TTGlyph>
    <TTGlyph name="Ugrave" xMin="47" yMin="-17" xMax="550" yMax="861">
      <contour>
        <pt x="506" y="236" on="1"/>
        <pt x="492" y="108" on="0"/>
        <pt x="410" y="40" on="1"/>
        <pt x="340" y="-17" on="0"/>
        <pt x="243" y="-17" on="1"/>
        <pt x="158" y="-17" on="0"/>
        <pt x="106" y="31" on="1"/>
        <pt x="47" y="85" on="0"/>
        <pt x="47" y="191" on="1"/>
        <pt x="47" y="211" on="0"/>
        <pt x="50" y="236" on="1"/>
        <pt x="94" y="655" on="1"/>
        <pt x="185" y="655" on="1"/>
        <pt x="141" y="236" on="1"/>
        <pt x="139" y="216" on="0"/>
        <pt x="139" y="196" on="1"/>
        <pt x="139" y="60" on="0"/>
        <pt x="253" y="59" on="1"/>
        <pt x="312" y="59" on="0"/>
        <pt x="354" y="97" on="1"/>
        <pt x="403" y="143" on="0"/>
        <pt x="414" y="236" on="1"/>
        <pt x="458" y="655" on="1"/>
        <pt x="550" y="655" on="1"/>
      </contour>
      <contour>
        <pt x="404" y="702" on="1"/>
        <pt x="201" y="795" on="1"/>
        <pt x="255" y="861" on="1"/>
        <pt x="460" y="763" on="1"/>
      </contour>
    </TTGlyph>
    <TTGlyph name="V" xMin="76" yMin="-10" xMax="564" yMax="669">
      <contour>
        <pt x="283" y="-10" on="1"/>
        <pt x="216" y="-10" on="1"/>
        <pt x="76" y="645" on="1"/>
        <pt x="165" y="669" on="1"/>
        <pt x="271" y="134" on="1"/>
        <pt x="490" y="669" on="1"/>
        <pt x="564" y="645" on="1"/>
      </contour>
    </TTGlyph>
    <TTGlyph name="W" xMin="49" yMin="-6" xMax="820" yMax="660">
      <contour>
        <pt x="570" y="-6" on="1"/>
        <pt x="517" y="-6" on="1"/>
        <pt x="422" y="470" on="1"/>
        <pt x="226" y="-6" on="1"/>
        <pt x="162" y="-6" on="1"/>
        <pt x="49" y="641" on="1"/>
        <pt x="140" y="660" on="1"/>
        <pt x="222" y="150" on="1"/>
        <pt x="413" y="650" on="1"/>
        <pt x="478" y="650" on="1"/>
        <pt x="560" y="151" on="1"/>
        <pt x="753" y="660" on="1"/>
        <pt x="820" y="641" on="1"/>
      </contour>
    </TTGlyph>
    <TTGlyph name="X" xMin="3" yMin="-15" xMax="522" yMax="662">
      <contour>
        <pt x="395" y="-15" on="1"/>
        <pt x="266" y="269" on="1"/>
        <pt x="94" y="-15" on="1"/>
        <pt x="3" y="5" on="1"/>
        <pt x="227" y="325" on="1"/>
        <pt x="83" y="641" on="1"/>
        <pt x="178" y="660" on="1"/>
        <pt x="289" y="412" on="1"/>
        <pt x="447" y="662" on="1"/>
        <pt x="522" y="641" on="1"/>
        <pt x="322" y="342" on="1"/>
        <pt x="495" y="5" on="1"/>
      </contour>
    </TTGlyph>
    <TTGlyph name="Y" xMin="62" yMin="0" xMax="517" yMax="666">
      <contour>
        <pt x="297" y="279" on="1"/>
        <pt x="268" y="0" on="1"/>
        <pt x="176" y="0" on="1"/>
        <pt x="205" y="279" on="1"/>
        <pt x="62" y="642" on="1"/>
        <pt x="146" y="666" on="1"/>
        <pt x="263" y="361" on="1"/>
        <pt x="441" y="666" on="1"/>
        <pt x="517" y="642" on="1"/>
      </contour>
    </TTGlyph>
    <TTGlyph name="Yacute" xMin="60" yMin="0" xMax="515" yMax="801">
      <contour>
        <pt x="295" y="279" on="1"/>
        <pt x="266" y="0" on="1"/>
        <pt x="175" y="0" on="1"/>
        <pt x="204" y="279" on="1"/>
        <pt x="60" y="642" on="1"/>
        <pt x="144" y="666" on="1"/>
        <pt x="261" y="361" on="1"/>
        <pt x="439" y="666" on="1"/>
        <pt x="515" y="642" on="1"/>
      </contour>
      <contour>
        <pt x="223" y="642" on="1"/>
        <pt x="182" y="702" on="1"/>
        <pt x="408" y="801" on="1"/>
        <pt x="450" y="734" on="1"/>
      </contour>
    </TTGlyph>
    <TTGlyph name="Ydieresis" xMin="59" yMin="0" xMax="514" yMax="819">
      <contour>
        <pt x="294" y="279" on="1"/>
        <pt x="265" y="0" on="1"/>
        <pt x="174" y="0" on="1"/>
        <pt x="203" y="279" on="1"/>
        <pt x="59" y="642" on="1"/>
        <pt x="143" y="666" on="1"/>
        <pt x="260" y="361" on="1"/>
        <pt x="438" y="666" on="1"/>
        <pt x="514" y="642" on="1"/>
      </contour>
      <contour>
        <pt x="417" y="713" on="1"/>
        <pt x="392" y="713" on="0"/>
        <pt x="370" y="745" on="0"/>
        <pt x="372" y="766" on="1"/>
        <pt x="374" y="786" on="0"/>
        <pt x="403" y="819" on="0"/>
        <pt x="428" y="819" on="1"/>
        <pt x="452" y="819" on="0"/>
        <pt x="476" y="785" on="0"/>
        <pt x="474" y="766" on="1"/>
        <pt x="472" y="746" on="0"/>
        <pt x="442" y="713" on="0"/>
      </contour>
      <contour>
        <pt x="202" y="713" on="1"/>
        <pt x="177" y="713" on="0"/>
        <pt x="155" y="745" on="0"/>
        <pt x="157" y="766" on="1"/>
        <pt x="159" y="786" on="0"/>
        <pt x="188" y="819" on="0"/>
        <pt x="213" y="819" on="1"/>
        <pt x="237" y="819" on="0"/>
        <pt x="261" y="785" on="0"/>
        <pt x="259" y="766" on="1"/>
        <pt x="257" y="746" on="0"/>
        <pt x="227" y="713" on="0"/>
      </contour>
    </TTGlyph>
    <TTGlyph name="Z" xMin="37" yMin="0" xMax="519" yMax="654">
      <contour>
        <pt x="138" y="78" on="1"/>
        <pt x="463" y="78" on="1"/>
        <pt x="455" y="0" on="1"/>
        <pt x="37" y="0" on="1"/>
        <pt x="38" y="79" on="1"/>
        <pt x="422" y="588" on="1"/>
        <pt x="110" y="586" on="1"/>
        <pt x="117" y="654" on="1"/>
        <pt x="519" y="654" on="1"/>
        <pt x="519" y="581" on="1"/>
      </contour>
    </TTGlyph>
    <TTGlyph name="Zcaron" xMin="32" yMin="0" xMax="523" yMax="870">
      <contour>
        <pt x="132" y="78" on="1"/>
        <pt x="457" y="78" on="1"/>
        <pt x="449" y="0" on="1"/>
        <pt x="32" y="0" on="1"/>
        <pt x="32" y="79" on="1"/>
        <pt x="417" y="588" on="1"/>
        <pt x="103" y="586" on="1"/>
        <pt x="111" y="654" on="1"/>
        <pt x="513" y="654" on="1"/>
        <pt x="513" y="581" on="1"/>
      </contour>
      <contour>
        <pt x="373" y="775" on="1"/>
        <pt x="523" y="870" on="1"/>
        <pt x="516" y="798" on="1"/>
        <pt x="364" y="682" on="1"/>
        <pt x="229" y="798" on="1"/>
        <pt x="237" y="870" on="1"/>
      </contour>
    </TTGlyph>
    <TTGlyph name="a" xMin="31" yMin="-11" xMax="461" yMax="523">
      <contour>
        <pt x="374" y="447" on="1"/>
        <pt x="329" y="455" on="0"/>
        <pt x="297" y="456" on="1"/>
        <pt x="210" y="456" on="0"/>
        <pt x="160" y="379" on="1"/>
        <pt x="116" y="311" on="0"/>
        <pt x="116" y="215" on="1"/>
        <pt x="116" y="65" on="0"/>
        <pt x="208" y="66" on="1"/>
        <pt x="244" y="66" on="0"/>
        <pt x="342" y="187" on="0"/>
        <pt x="349" y="248" on="1"/>
      </contour>
      <contour>
        <pt x="461" y="514" on="1"/>
        <pt x="419" y="144" on="1"/>
        <pt x="417" y="128" on="0"/>
        <pt x="417" y="108" on="1"/>
        <pt x="417" y="57" on="0"/>
        <pt x="428" y="0" on="1"/>
        <pt x="341" y="0" on="1"/>
        <pt x="339" y="122" on="1"/>
        <pt x="316" y="84" on="0"/>
        <pt x="294" y="45" on="1"/>
        <pt x="250" y="-11" on="0"/>
        <pt x="184" y="-11" on="1"/>
        <pt x="106" y="-11" on="0"/>
        <pt x="65" y="59" on="1"/>
        <pt x="31" y="117" on="0"/>
        <pt x="31" y="202" on="1"/>
        <pt x="31" y="333" on="0"/>
        <pt x="112" y="426" on="1"/>
        <pt x="196" y="523" on="0"/>
        <pt x="325" y="523" on="1"/>
        <pt x="358" y="523" on="0"/>
        <pt x="429" y="514" on="0"/>
      </contour>
    </TTGlyph>
    <TTGlyph name="aacute" xMin="31" yMin="-11" xMax="501" yMax="729">
      <contour>
        <pt x="271" y="570" on="1"/>
        <pt x="233" y="631" on="1"/>
        <pt x="464" y="729" on="1"/>
        <pt x="501" y="663" on="1"/>
      </contour>
      <contour>
        <pt x="374" y="447" on="1"/>
        <pt x="329" y="455" on="0"/>
        <pt x="297" y="456" on="1"/>
        <pt x="210" y="456" on="0"/>
        <pt x="160" y="379" on="1"/>
        <pt x="116" y="311" on="0"/>
        <pt x="116" y="215" on="1"/>
        <pt x="116" y="65" on="0"/>
        <pt x="208" y="66" on="1"/>
        <pt x="244" y="66" on="0"/>
        <pt x="342" y="187" on="0"/>
        <pt x="349" y="248" on="1"/>
      </contour>
      <contour>
        <pt x="461" y="514" on="1"/>
        <pt x="419" y="144" on="1"/>
        <pt x="417" y="128" on="0"/>
        <pt x="417" y="108" on="1"/>
        <pt x="417" y="57" on="0"/>
        <pt x="428" y="0" on="1"/>
        <pt x="341" y="0" on="1"/>
        <pt x="339" y="122" on="1"/>
        <pt x="316" y="84" on="0"/>
        <pt x="294" y="45" on="1"/>
        <pt x="250" y="-11" on="0"/>
        <pt x="184" y="-11" on="1"/>
        <pt x="106" y="-11" on="0"/>
        <pt x="65" y="59" on="1"/>
        <pt x="31" y="117" on="0"/>
        <pt x="31" y="202" on="1"/>
        <pt x="31" y="333" on="0"/>
        <pt x="112" y="426" on="1"/>
        <pt x="196" y="523" on="0"/>
        <pt x="325" y="523" on="1"/>
        <pt x="358" y="523" on="0"/>
        <pt x="429" y="514" on="0"/>
      </contour>
    </TTGlyph>
    <TTGlyph name="acircumflex" xMin="31" yMin="-11" xMax="465" yMax="727">
      <contour>
        <pt x="323" y="634" on="1"/>
        <pt x="167" y="539" on="1"/>
        <pt x="178" y="611" on="1"/>
        <pt x="337" y="727" on="1"/>
        <pt x="465" y="611" on="1"/>
        <pt x="453" y="539" on="1"/>
      </contour>
      <contour>
        <pt x="374" y="447" on="1"/>
        <pt x="329" y="455" on="0"/>
        <pt x="297" y="456" on="1"/>
        <pt x="210" y="456" on="0"/>
        <pt x="160" y="379" on="1"/>
        <pt x="116" y="311" on="0"/>
        <pt x="116" y="215" on="1"/>
        <pt x="116" y="65" on="0"/>
        <pt x="208" y="66" on="1"/>
        <pt x="244" y="66" on="0"/>
        <pt x="342" y="187" on="0"/>
        <pt x="349" y="248" on="1"/>
      </contour>
      <contour>
        <pt x="461" y="514" on="1"/>
        <pt x="419" y="144" on="1"/>
        <pt x="417" y="128" on="0"/>
        <pt x="417" y="108" on="1"/>
        <pt x="417" y="57" on="0"/>
        <pt x="428" y="0" on="1"/>
        <pt x="341" y="0" on="1"/>
        <pt x="339" y="122" on="1"/>
        <pt x="316" y="84" on="0"/>
        <pt x="294" y="45" on="1"/>
        <pt x="250" y="-11" on="0"/>
        <pt x="184" y="-11" on="1"/>
        <pt x="106" y="-11" on="0"/>
        <pt x="65" y="59" on="1"/>
        <pt x="31" y="117" on="0"/>
        <pt x="31" y="202" on="1"/>
        <pt x="31" y="333" on="0"/>
        <pt x="112" y="426" on="1"/>
        <pt x="196" y="523" on="0"/>
        <pt x="325" y="523" on="1"/>
        <pt x="358" y="523" on="0"/>
        <pt x="429" y="514" on="0"/>
      </contour>
    </TTGlyph>
    <TTGlyph name="acute" xMin="56" yMin="570" xMax="323" yMax="729">
      <contour>
        <pt x="98" y="570" on="1"/>
        <pt x="56" y="631" on="1"/>
        <pt x="282" y="729" on="1"/>
        <pt x="323" y="663" on="1"/>
      </contour>
    </TTGlyph>
    <TTGlyph name="adieresis" xMin="31" yMin="-11" xMax="494" yMax="666">
      <contour>
        <pt x="434" y="559" on="1"/>
        <pt x="409" y="559" on="0"/>
        <pt x="388" y="592" on="0"/>
        <pt x="391" y="612" on="1"/>
        <pt x="394" y="632" on="0"/>
        <pt x="426" y="666" on="0"/>
        <pt x="451" y="666" on="1"/>
        <pt x="475" y="666" on="0"/>
        <pt x="497" y="632" on="0"/>
        <pt x="491" y="592" on="0"/>
        <pt x="458" y="559" on="0"/>
      </contour>
      <contour>
        <pt x="219" y="559" on="1"/>
        <pt x="194" y="559" on="0"/>
        <pt x="173" y="592" on="0"/>
        <pt x="176" y="612" on="1"/>
        <pt x="179" y="632" on="0"/>
        <pt x="211" y="666" on="0"/>
        <pt x="236" y="666" on="1"/>
        <pt x="261" y="666" on="0"/>
        <pt x="282" y="632" on="0"/>
        <pt x="276" y="592" on="0"/>
        <pt x="243" y="559" on="0"/>
      </contour>
      <contour>
        <pt x="374" y="447" on="1"/>
        <pt x="329" y="455" on="0"/>
        <pt x="297" y="456" on="1"/>
        <pt x="210" y="456" on="0"/>
        <pt x="160" y="379" on="1"/>
        <pt x="116" y="311" on="0"/>
        <pt x="116" y="215" on="1"/>
        <pt x="116" y="65" on="0"/>
        <pt x="208" y="66" on="1"/>
        <pt x="244" y="66" on="0"/>
        <pt x="342" y="187" on="0"/>
        <pt x="349" y="248" on="1"/>
      </contour>
      <contour>
        <pt x="461" y="514" on="1"/>
        <pt x="419" y="144" on="1"/>
        <pt x="417" y="128" on="0"/>
        <pt x="417" y="108" on="1"/>
        <pt x="417" y="57" on="0"/>
        <pt x="428" y="0" on="1"/>
        <pt x="341" y="0" on="1"/>
        <pt x="339" y="122" on="1"/>
        <pt x="316" y="84" on="0"/>
        <pt x="294" y="45" on="1"/>
        <pt x="250" y="-11" on="0"/>
        <pt x="184" y="-11" on="1"/>
        <pt x="106" y="-11" on="0"/>
        <pt x="65" y="59" on="1"/>
        <pt x="31" y="117" on="0"/>
        <pt x="31" y="202" on="1"/>
        <pt x="31" y="333" on="0"/>
        <pt x="112" y="426" on="1"/>
        <pt x="196" y="523" on="0"/>
        <pt x="325" y="523" on="1"/>
        <pt x="358" y="523" on="0"/>
        <pt x="429" y="514" on="0"/>
      </contour>
    </TTGlyph>
    <TTGlyph name="ae" xMin="28" yMin="-16" xMax="762" yMax="524">
      <contour>
        <pt x="683" y="340" on="1"/>
        <pt x="694" y="452" on="0"/>
        <pt x="584" y="452" on="1"/>
        <pt x="509" y="452" on="0"/>
        <pt x="474" y="415" on="1"/>
        <pt x="446" y="388" on="0"/>
        <pt x="420" y="307" on="1"/>
        <pt x="680" y="307" on="1"/>
      </contour>
      <contour>
        <pt x="316" y="38" on="1"/>
        <pt x="298" y="26" on="0"/>
        <pt x="259" y="4" on="1"/>
        <pt x="212" y="-16" on="0"/>
        <pt x="155" y="-16" on="1"/>
        <pt x="100" y="-16" on="0"/>
        <pt x="28" y="50" on="0"/>
        <pt x="28" y="110" on="1"/>
        <pt x="28" y="120" on="0"/>
        <pt x="29" y="130" on="1"/>
        <pt x="38" y="213" on="0"/>
        <pt x="92" y="250" on="1"/>
        <pt x="126" y="274" on="0"/>
        <pt x="220" y="295" on="1"/>
        <pt x="278" y="308" on="0"/>
        <pt x="333" y="313" on="1"/>
        <pt x="340" y="375" on="1"/>
        <pt x="343" y="409" on="0"/>
        <pt x="296" y="452" on="0"/>
        <pt x="260" y="452" on="1"/>
        <pt x="204" y="452" on="0"/>
        <pt x="118" y="386" on="1"/>
        <pt x="82" y="443" on="1"/>
        <pt x="118" y="473" on="0"/>
        <pt x="180" y="500" on="1"/>
        <pt x="238" y="525" on="0"/>
        <pt x="268" y="524" on="1"/>
        <pt x="373" y="524" on="0"/>
        <pt x="409" y="439" on="1"/>
        <pt x="484" y="519" on="0"/>
        <pt x="599" y="519" on="1"/>
        <pt x="667" y="519" on="0"/>
        <pt x="714" y="469" on="1"/>
        <pt x="762" y="416" on="0"/>
        <pt x="762" y="334" on="1"/>
        <pt x="762" y="320" on="0"/>
        <pt x="760" y="305" on="1"/>
        <pt x="754" y="243" on="1"/>
        <pt x="406" y="243" on="1"/>
        <pt x="402" y="202" on="0"/>
        <pt x="402" y="183" on="1"/>
        <pt x="404" y="159" on="0"/>
        <pt x="419" y="128" on="1"/>
        <pt x="434" y="93" on="0"/>
        <pt x="479" y="73" on="1"/>
        <pt x="516" y="58" on="0"/>
        <pt x="554" y="57" on="1"/>
        <pt x="614" y="57" on="0"/>
        <pt x="694" y="123" on="1"/>
        <pt x="730" y="66" on="1"/>
        <pt x="638" y="-12" on="0"/>
        <pt x="538" y="-12" on="1"/>
        <pt x="411" y="-12" on="0"/>
        <pt x="359" y="75" on="1"/>
      </contour>
      <contour>
        <pt x="325" y="239" on="1"/>
        <pt x="312" y="239" on="0"/>
        <pt x="175" y="215" on="0"/>
        <pt x="153" y="204" on="1"/>
        <pt x="109" y="181" on="0"/>
        <pt x="102" y="129" on="1"/>
        <pt x="98" y="95" on="0"/>
        <pt x="115" y="74" on="1"/>
        <pt x="132" y="48" on="0"/>
        <pt x="173" y="48" on="1"/>
        <pt x="213" y="48" on="0"/>
        <pt x="257" y="70" on="1"/>
        <pt x="310" y="96" on="0"/>
        <pt x="314" y="135" on="1"/>
      </contour>
    </TTGlyph>
    <TTGlyph name="agrave" xMin="31" yMin="-11" xMax="475" yMax="728">
      <contour>
        <pt x="416" y="569" on="1"/>
        <pt x="217" y="662" on="1"/>
        <pt x="275" y="728" on="1"/>
        <pt x="475" y="630" on="1"/>
      </contour>
      <contour>
        <pt x="374" y="447" on="1"/>
        <pt x="329" y="455" on="0"/>
        <pt x="297" y="456" on="1"/>
        <pt x="210" y="456" on="0"/>
        <pt x="160" y="379" on="1"/>
        <pt x="116" y="311" on="0"/>
        <pt x="116" y="215" on="1"/>
        <pt x="116" y="65" on="0"/>
        <pt x="208" y="66" on="1"/>
        <pt x="244" y="66" on="0"/>
        <pt x="342" y="187" on="0"/>
        <pt x="349" y="248" on="1"/>
      </contour>
      <contour>
        <pt x="461" y="514" on="1"/>
        <pt x="419" y="144" on="1"/>
        <pt x="417" y="128" on="0"/>
        <pt x="417" y="108" on="1"/>
        <pt x="417" y="57" on="0"/>
        <pt x="428" y="0" on="1"/>
        <pt x="341" y="0" on="1"/>
        <pt x="339" y="122" on="1"/>
        <pt x="316" y="84" on="0"/>
        <pt x="294" y="45" on="1"/>
        <pt x="250" y="-11" on="0"/>
        <pt x="184" y="-11" on="1"/>
        <pt x="106" y="-11" on="0"/>
        <pt x="65" y="59" on="1"/>
        <pt x="31" y="117" on="0"/>
        <pt x="31" y="202" on="1"/>
        <pt x="31" y="333" on="0"/>
        <pt x="112" y="426" on="1"/>
        <pt x="196" y="523" on="0"/>
        <pt x="325" y="523" on="1"/>
        <pt x="358" y="523" on="0"/>
        <pt x="429" y="514" on="0"/>
      </contour>
    </TTGlyph>
    <TTGlyph name="ampersand" xMin="8" yMin="-9" xMax="511" yMax="655">
      <contour>
        <pt x="179" y="314" on="1"/>
        <pt x="94" y="269" on="0"/>
        <pt x="85" y="182" on="1"/>
        <pt x="80" y="132" on="0"/>
        <pt x="109" y="99" on="1"/>
        <pt x="140" y="62" on="0"/>
        <pt x="200" y="62" on="1"/>
        <pt x="268" y="62" on="0"/>
        <pt x="319" y="121" on="1"/>
        <pt x="218" y="237" on="0"/>
      </contour>
      <contour>
        <pt x="457" y="4" on="1"/>
        <pt x="418" y="17" on="0"/>
        <pt x="367" y="68" on="1"/>
        <pt x="283" y="-9" on="0"/>
        <pt x="198" y="-9" on="1"/>
        <pt x="105" y="-9" on="0"/>
        <pt x="54" y="39" on="1"/>
        <pt x="8" y="83" on="0"/>
        <pt x="8" y="153" on="1"/>
        <pt x="8" y="219" on="0"/>
        <pt x="49" y="279" on="1"/>
        <pt x="89" y="336" on="0"/>
        <pt x="151" y="368" on="1"/>
        <pt x="111" y="431" on="0"/>
        <pt x="118" y="496" on="1"/>
        <pt x="125" y="565" on="0"/>
        <pt x="231" y="655" on="0"/>
        <pt x="298" y="655" on="1"/>
        <pt x="384" y="655" on="0"/>
        <pt x="444" y="582" on="1"/>
        <pt x="391" y="532" on="1"/>
        <pt x="350" y="589" on="0"/>
        <pt x="285" y="590" on="1"/>
        <pt x="209" y="590" on="0"/>
        <pt x="200" y="511" on="1"/>
        <pt x="196" y="465" on="0"/>
        <pt x="219" y="404" on="1"/>
        <pt x="276" y="427" on="0"/>
        <pt x="336" y="429" on="1"/>
        <pt x="344" y="367" on="1"/>
        <pt x="290" y="367" on="0"/>
        <pt x="253" y="350" on="1"/>
        <pt x="321" y="238" on="0"/>
        <pt x="368" y="186" on="1"/>
        <pt x="387" y="237" on="0"/>
        <pt x="389" y="258" on="1"/>
        <pt x="392" y="282" on="0"/>
        <pt x="386" y="323" on="1"/>
        <pt x="459" y="329" on="1"/>
        <pt x="463" y="225" on="0"/>
        <pt x="422" y="132" on="1"/>
        <pt x="446" y="101" on="0"/>
        <pt x="511" y="68" on="1"/>
      </contour>
    </TTGlyph>
    <TTGlyph name="apple" xMin="35" yMin="-29" xMax="538" yMax="713">
      <contour>
        <pt x="333" y="587" on="1"/>
        <pt x="333" y="644" on="1"/>
        <pt x="406" y="644" on="1"/>
        <pt x="406" y="713" on="1"/>
        <pt x="466" y="713" on="1"/>
        <pt x="466" y="644" on="1"/>
        <pt x="538" y="644" on="1"/>
        <pt x="538" y="587" on="1"/>
        <pt x="466" y="587" on="1"/>
        <pt x="466" y="517" on="1"/>
        <pt x="406" y="517" on="1"/>
        <pt x="406" y="587" on="1"/>
      </contour>
      <contour>
        <pt x="35" y="40" on="1"/>
        <pt x="35" y="97" on="1"/>
        <pt x="108" y="97" on="1"/>
        <pt x="108" y="167" on="1"/>
        <pt x="168" y="167" on="1"/>
        <pt x="168" y="97" on="1"/>
        <pt x="241" y="97" on="1"/>
        <pt x="241" y="40" on="1"/>
        <pt x="168" y="40" on="1"/>
        <pt x="168" y="-29" on="1"/>
        <pt x="108" y="-29" on="1"/>
        <pt x="108" y="40" on="1"/>
      </contour>
      <contour>
        <pt x="169" y="223" on="1"/>
        <pt x="204" y="223" on="1"/>
        <pt x="204" y="176" on="1"/>
        <pt x="169" y="176" on="1"/>
      </contour>
      <contour>
        <pt x="208" y="254" on="1"/>
        <pt x="236" y="254" on="1"/>
        <pt x="236" y="233" on="1"/>
        <pt x="208" y="233" on="1"/>
      </contour>
      <contour>
        <pt x="239" y="291" on="1"/>
        <pt x="331" y="291" on="1"/>
        <pt x="331" y="264" on="1"/>
        <pt x="239" y="264" on="1"/>
      </contour>
      <contour>
        <pt x="200" y="389" on="1"/>
        <pt x="229" y="389" on="1"/>
        <pt x="229" y="304" on="1"/>
        <pt x="200" y="304" on="1"/>
      </contour>
      <contour>
        <pt x="400" y="462" on="1"/>
        <pt x="365" y="462" on="1"/>
        <pt x="365" y="509" on="1"/>
        <pt x="400" y="509" on="1"/>
      </contour>
      <contour>
        <pt x="361" y="431" on="1"/>
        <pt x="334" y="431" on="1"/>
        <pt x="334" y="452" on="1"/>
        <pt x="361" y="452" on="1"/>
      </contour>
      <contour>
        <pt x="331" y="394" on="1"/>
        <pt x="239" y="394" on="1"/>
        <pt x="239" y="421" on="1"/>
        <pt x="331" y="421" on="1"/>
      </contour>
      <contour>
        <pt x="370" y="296" on="1"/>
        <pt x="340" y="296" on="1"/>
        <pt x="340" y="381" on="1"/>
        <pt x="370" y="381" on="1"/>
      </contour>
    </TTGlyph>
    <TTGlyph name="approxequal" xMin="93" yMin="81" xMax="460" yMax="407">
      <contour>
        <pt x="357" y="289" on="1"/>
        <pt x="332" y="289" on="0"/>
        <pt x="249" y="342" on="0"/>
        <pt x="209" y="342" on="0"/>
        <pt x="152" y="309" on="0"/>
        <pt x="132" y="286" on="1"/>
        <pt x="115" y="350" on="1"/>
        <pt x="134" y="370" on="0"/>
        <pt x="213" y="407" on="0"/>
        <pt x="241" y="407" on="1"/>
        <pt x="275" y="407" on="0"/>
        <pt x="354" y="357" on="0"/>
        <pt x="370" y="357" on="1"/>
        <pt x="384" y="357" on="0"/>
        <pt x="427" y="380" on="0"/>
        <pt x="438" y="391" on="1"/>
        <pt x="460" y="328" on="1"/>
        <pt x="444" y="314" on="0"/>
        <pt x="377" y="289" on="0"/>
      </contour>
      <contour>
        <pt x="335" y="84" on="1"/>
        <pt x="311" y="84" on="0"/>
        <pt x="231" y="137" on="0"/>
        <pt x="212" y="137" on="1"/>
        <pt x="190" y="137" on="0"/>
        <pt x="129" y="104" on="0"/>
        <pt x="111" y="81" on="1"/>
        <pt x="93" y="145" on="1"/>
        <pt x="112" y="165" on="0"/>
        <pt x="191" y="202" on="0"/>
        <pt x="219" y="202" on="1"/>
        <pt x="253" y="202" on="0"/>
        <pt x="333" y="153" on="0"/>
        <pt x="348" y="153" on="1"/>
        <pt x="362" y="153" on="0"/>
        <pt x="406" y="175" on="0"/>
        <pt x="417" y="186" on="1"/>
        <pt x="437" y="123" on="1"/>
        <pt x="422" y="109" on="0"/>
        <pt x="355" y="84" on="0"/>
      </contour>
    </TTGlyph>
    <TTGlyph name="aring" xMin="31" yMin="-11" xMax="461" yMax="757">
      <contour>
        <pt x="253" y="580" on="1"/>
        <pt x="216" y="580" on="0"/>
        <pt x="173" y="620" on="0"/>
        <pt x="173" y="652" on="1"/>
        <pt x="173" y="696" on="0"/>
        <pt x="236" y="757" on="0"/>
        <pt x="281" y="757" on="1"/>
        <pt x="318" y="757" on="0"/>
        <pt x="360" y="716" on="0"/>
        <pt x="360" y="684" on="1"/>
        <pt x="360" y="640" on="0"/>
        <pt x="297" y="580" on="0"/>
      </contour>
      <contour>
        <pt x="273" y="713" on="1"/>
        <pt x="230" y="713" on="0"/>
        <pt x="223" y="669" on="1"/>
        <pt x="216" y="624" on="0"/>
        <pt x="260" y="624" on="1"/>
        <pt x="303" y="624" on="0"/>
        <pt x="310" y="669" on="1"/>
        <pt x="317" y="713" on="0"/>
      </contour>
      <contour>
        <pt x="374" y="447" on="1"/>
        <pt x="329" y="455" on="0"/>
        <pt x="297" y="456" on="1"/>
        <pt x="210" y="456" on="0"/>
        <pt x="160" y="379" on="1"/>
        <pt x="116" y="311" on="0"/>
        <pt x="116" y="215" on="1"/>
        <pt x="116" y="65" on="0"/>
        <pt x="208" y="66" on="1"/>
        <pt x="244" y="66" on="0"/>
        <pt x="342" y="187" on="0"/>
        <pt x="349" y="248" on="1"/>
      </contour>
      <contour>
        <pt x="461" y="514" on="1"/>
        <pt x="419" y="144" on="1"/>
        <pt x="417" y="128" on="0"/>
        <pt x="417" y="108" on="1"/>
        <pt x="417" y="57" on="0"/>
        <pt x="428" y="0" on="1"/>
        <pt x="341" y="0" on="1"/>
        <pt x="339" y="122" on="1"/>
        <pt x="316" y="84" on="0"/>
        <pt x="294" y="45" on="1"/>
        <pt x="250" y="-11" on="0"/>
        <pt x="184" y="-11" on="1"/>
        <pt x="106" y="-11" on="0"/>
        <pt x="65" y="59" on="1"/>
        <pt x="31" y="117" on="0"/>
        <pt x="31" y="202" on="1"/>
        <pt x="31" y="333" on="0"/>
        <pt x="112" y="426" on="1"/>
        <pt x="196" y="523" on="0"/>
        <pt x="325" y="523" on="1"/>
        <pt x="358" y="523" on="0"/>
        <pt x="429" y="514" on="0"/>
      </contour>
    </TTGlyph>
    <TTGlyph name="asciicircum" xMin="106" yMin="464" xMax="430" yMax="694">
      <contour>
        <pt x="276" y="606" on="1"/>
        <pt x="143" y="464" on="1"/>
        <pt x="106" y="517" on="1"/>
        <pt x="286" y="694" on="1"/>
        <pt x="430" y="517" on="1"/>
        <pt x="381" y="464" on="1"/>
      </contour>
    </TTGlyph>
    <TTGlyph name="asciitilde" xMin="87" yMin="388" xMax="359" yMax="509">
      <contour>
        <pt x="280" y="388" on="1"/>
        <pt x="255" y="388" on="0"/>
        <pt x="189" y="444" on="0"/>
        <pt x="171" y="444" on="1"/>
        <pt x="141" y="444" on="0"/>
        <pt x="98" y="390" on="1"/>
        <pt x="87" y="464" on="1"/>
        <pt x="129" y="509" on="0"/>
        <pt x="180" y="509" on="1"/>
        <pt x="216" y="509" on="0"/>
        <pt x="261" y="474" on="1"/>
        <pt x="279" y="460" on="0"/>
        <pt x="311" y="460" on="0"/>
        <pt x="330" y="480" on="1"/>
        <pt x="338" y="487" on="0"/>
        <pt x="348" y="498" on="1"/>
        <pt x="359" y="426" on="1"/>
        <pt x="318" y="388" on="0"/>
      </contour>
    </TTGlyph>
    <TTGlyph name="asterisk" xMin="20" yMin="457" xMax="251" yMax="710">
      <contour>
        <pt x="224" y="486" on="1"/>
        <pt x="157" y="548" on="1"/>
        <pt x="161" y="457" on="1"/>
        <pt x="113" y="457" on="1"/>
        <pt x="116" y="548" on="1"/>
        <pt x="48" y="486" on="1"/>
        <pt x="20" y="531" on="1"/>
        <pt x="103" y="583" on="1"/>
        <pt x="22" y="635" on="1"/>
        <pt x="48" y="680" on="1"/>
        <pt x="118" y="617" on="1"/>
        <pt x="114" y="710" on="1"/>
        <pt x="162" y="709" on="1"/>
        <pt x="157" y="617" on="1"/>
        <pt x="224" y="680" on="1"/>
        <pt x="250" y="635" on="1"/>
        <pt x="171" y="584" on="1"/>
        <pt x="251" y="531" on="1"/>
      </contour>
    </TTGlyph>
    <TTGlyph name="at" xMin="54" yMin="-238" xMax="991" yMax="715">
      <contour>
        <pt x="505" y="-238" on="1"/>
        <pt x="312" y="-238" on="0"/>
        <pt x="182" y="-94" on="1"/>
        <pt x="54" y="45" on="0"/>
        <pt x="54" y="244" on="1"/>
        <pt x="54" y="440" on="0"/>
        <pt x="330" y="715" on="0"/>
        <pt x="525" y="715" on="1"/>
        <pt x="719" y="715" on="0"/>
        <pt x="952" y="471" on="0"/>
        <pt x="952" y="274" on="1"/>
        <pt x="952" y="165" on="0"/>
        <pt x="878" y="82" on="1"/>
        <pt x="846" y="46" on="0"/>
        <pt x="792" y="18" on="1"/>
        <pt x="733" y="-13" on="0"/>
        <pt x="685" y="-12" on="1"/>
        <pt x="647" y="-12" on="0"/>
        <pt x="602" y="46" on="0"/>
        <pt x="606" y="89" on="1"/>
        <pt x="529" y="-11" on="0"/>
        <pt x="434" y="-11" on="1"/>
        <pt x="277" y="-11" on="0"/>
        <pt x="278" y="205" on="1"/>
        <pt x="278" y="321" on="0"/>
        <pt x="348" y="417" on="1"/>
        <pt x="426" y="525" on="0"/>
        <pt x="542" y="524" on="1"/>
        <pt x="574" y="524" on="0"/>
        <pt x="606" y="513" on="1"/>
        <pt x="648" y="499" on="0"/>
        <pt x="666" y="472" on="1"/>
        <pt x="669" y="514" on="1"/>
        <pt x="743" y="514" on="1"/>
        <pt x="678" y="96" on="1"/>
        <pt x="679" y="84" on="0"/>
        <pt x="701" y="62" on="0"/>
        <pt x="731" y="60" on="0"/>
        <pt x="801" y="100" on="0"/>
        <pt x="818" y="120" on="1"/>
        <pt x="845" y="149" on="0"/>
        <pt x="863" y="198" on="1"/>
        <pt x="881" y="243" on="0"/>
        <pt x="882" y="274" on="1"/>
        <pt x="882" y="441" on="0"/>
        <pt x="690" y="644" on="0"/>
        <pt x="525" y="644" on="1"/>
        <pt x="359" y="644" on="0"/>
        <pt x="125" y="410" on="0"/>
        <pt x="125" y="244" on="1"/>
        <pt x="125" y="75" on="0"/>
        <pt x="231" y="-45" on="1"/>
        <pt x="342" y="-167" on="0"/>
        <pt x="505" y="-167" on="1"/>
        <pt x="664" y="-167" on="0"/>
        <pt x="767" y="-115" on="1"/>
        <pt x="861" y="-67" on="0"/>
        <pt x="923" y="33" on="1"/>
        <pt x="991" y="-11" on="1"/>
        <pt x="914" y="-140" on="0"/>
        <pt x="784" y="-194" on="1"/>
        <pt x="676" y="-238" on="0"/>
      </contour>
      <contour>
        <pt x="653" y="408" on="1"/>
        <pt x="640" y="434" on="0"/>
        <pt x="600" y="449" on="1"/>
        <pt x="568" y="461" on="0"/>
        <pt x="539" y="461" on="1"/>
        <pt x="493" y="461" on="0"/>
        <pt x="440" y="417" on="1"/>
        <pt x="362" y="350" on="0"/>
        <pt x="362" y="220" on="1"/>
        <pt x="362" y="152" on="0"/>
        <pt x="375" y="123" on="1"/>
        <pt x="399" y="66" on="0"/>
        <pt x="470" y="66" on="1"/>
        <pt x="511" y="66" on="0"/>
        <pt x="608" y="161" on="0"/>
        <pt x="617" y="210" on="1"/>
      </contour>
    </TTGlyph>
    <TTGlyph name="atilde" xMin="31" yMin="-11" xMax="471" yMax="701">
      <contour>
        <pt x="390" y="562" on="1"/>
        <pt x="361" y="562" on="0"/>
        <pt x="278" y="633" on="0"/>
        <pt x="262" y="633" on="1"/>
        <pt x="222" y="633" on="0"/>
        <pt x="183" y="590" on="1"/>
        <pt x="166" y="650" on="1"/>
        <pt x="184" y="672" on="0"/>
        <pt x="248" y="700" on="0"/>
        <pt x="273" y="701" on="1"/>
        <pt x="302" y="702" on="0"/>
        <pt x="378" y="632" on="0"/>
        <pt x="398" y="632" on="1"/>
        <pt x="423" y="632" on="0"/>
        <pt x="454" y="657" on="1"/>
        <pt x="471" y="596" on="1"/>
        <pt x="460" y="585" on="0"/>
        <pt x="402" y="562" on="0"/>
      </contour>
      <contour>
        <pt x="374" y="447" on="1"/>
        <pt x="329" y="455" on="0"/>
        <pt x="297" y="456" on="1"/>
        <pt x="210" y="456" on="0"/>
        <pt x="160" y="379" on="1"/>
        <pt x="116" y="311" on="0"/>
        <pt x="116" y="215" on="1"/>
        <pt x="116" y="65" on="0"/>
        <pt x="208" y="66" on="1"/>
        <pt x="244" y="66" on="0"/>
        <pt x="342" y="187" on="0"/>
        <pt x="349" y="248" on="1"/>
      </contour>
      <contour>
        <pt x="461" y="514" on="1"/>
        <pt x="419" y="144" on="1"/>
        <pt x="417" y="128" on="0"/>
        <pt x="417" y="108" on="1"/>
        <pt x="417" y="57" on="0"/>
        <pt x="428" y="0" on="1"/>
        <pt x="341" y="0" on="1"/>
        <pt x="339" y="122" on="1"/>
        <pt x="316" y="84" on="0"/>
        <pt x="294" y="45" on="1"/>
        <pt x="250" y="-11" on="0"/>
        <pt x="184" y="-11" on="1"/>
        <pt x="106" y="-11" on="0"/>
        <pt x="65" y="59" on="1"/>
        <pt x="31" y="117" on="0"/>
        <pt x="31" y="202" on="1"/>
        <pt x="31" y="333" on="0"/>
        <pt x="112" y="426" on="1"/>
        <pt x="196" y="523" on="0"/>
        <pt x="325" y="523" on="1"/>
        <pt x="358" y="523" on="0"/>
        <pt x="429" y="514" on="0"/>
      </contour>
    </TTGlyph>
    <TTGlyph name="b" xMin="28" yMin="-10" xMax="485" yMax="717">
      <contour>
        <pt x="240" y="-10" on="1"/>
        <pt x="174" y="-10" on="0"/>
        <pt x="114" y="41" on="1"/>
        <pt x="94" y="0" on="1"/>
        <pt x="28" y="0" on="1"/>
        <pt x="104" y="717" on="1"/>
        <pt x="185" y="717" on="1"/>
        <pt x="158" y="459" on="1"/>
        <pt x="235" y="525" on="0"/>
        <pt x="293" y="524" on="1"/>
        <pt x="386" y="524" on="0"/>
        <pt x="438" y="458" on="1"/>
        <pt x="485" y="399" on="0"/>
        <pt x="485" y="303" on="1"/>
        <pt x="485" y="285" on="0"/>
        <pt x="483" y="265" on="1"/>
        <pt x="469" y="131" on="0"/>
        <pt x="401" y="58" on="1"/>
        <pt x="338" y="-10" on="0"/>
      </contour>
      <contour>
        <pt x="284" y="454" on="1"/>
        <pt x="191" y="454" on="0"/>
        <pt x="150" y="380" on="1"/>
        <pt x="121" y="111" on="1"/>
        <pt x="136" y="86" on="0"/>
        <pt x="172" y="72" on="1"/>
        <pt x="205" y="58" on="0"/>
        <pt x="239" y="57" on="1"/>
        <pt x="369" y="57" on="0"/>
        <pt x="391" y="262" on="1"/>
        <pt x="393" y="281" on="0"/>
        <pt x="393" y="300" on="1"/>
        <pt x="394" y="454" on="0"/>
      </contour>
    </TTGlyph>
    <TTGlyph name="backslash" xMin="58" yMin="-174" xMax="352" yMax="721">
      <contour>
        <pt x="268" y="-174" on="1"/>
        <pt x="58" y="703" on="1"/>
        <pt x="141" y="721" on="1"/>
        <pt x="352" y="-157" on="1"/>
      </contour>
    </TTGlyph>
    <TTGlyph name="bar" xMin="38" yMin="-225" xMax="226" yMax="702">
      <contour>
        <pt x="38" y="-225" on="1"/>
        <pt x="136" y="702" on="1"/>
        <pt x="226" y="702" on="1"/>
        <pt x="128" y="-225" on="1"/>
      </contour>
    </TTGlyph>
    <TTGlyph name="braceleft" xMin="115" yMin="-202" xMax="477" yMax="854">
      <contour>
        <pt x="455" y="766" on="1"/>
        <pt x="414" y="779" on="0"/>
        <pt x="397" y="779" on="1"/>
        <pt x="351" y="779" on="0"/>
        <pt x="334" y="758" on="1"/>
        <pt x="314" y="730" on="0"/>
        <pt x="303" y="640" on="1"/>
        <pt x="301" y="613" on="0"/>
        <pt x="296" y="521" on="0"/>
        <pt x="295" y="506" on="1"/>
        <pt x="287" y="432" on="0"/>
        <pt x="195" y="356" on="1"/>
        <pt x="191" y="331" on="1"/>
        <pt x="221" y="307" on="0"/>
        <pt x="242" y="266" on="1"/>
        <pt x="268" y="217" on="0"/>
        <pt x="267" y="164" on="1"/>
        <pt x="267" y="154" on="0"/>
        <pt x="266" y="142" on="1"/>
        <pt x="264" y="118" on="0"/>
        <pt x="243" y="-1" on="0"/>
        <pt x="241" y="-24" on="1"/>
        <pt x="235" y="-84" on="0"/>
        <pt x="238" y="-99" on="1"/>
        <pt x="245" y="-129" on="0"/>
        <pt x="282" y="-129" on="1"/>
        <pt x="327" y="-129" on="0"/>
        <pt x="354" y="-108" on="1"/>
        <pt x="367" y="-184" on="1"/>
        <pt x="302" y="-203" on="0"/>
        <pt x="270" y="-202" on="1"/>
        <pt x="196" y="-198" on="0"/>
        <pt x="169" y="-148" on="1"/>
        <pt x="147" y="-110" on="0"/>
        <pt x="150" y="-37" on="1"/>
        <pt x="151" y="-9" on="0"/>
        <pt x="158" y="52" on="1"/>
        <pt x="159" y="66" on="0"/>
        <pt x="172" y="152" on="0"/>
        <pt x="174" y="176" on="1"/>
        <pt x="179" y="219" on="0"/>
        <pt x="160" y="263" on="1"/>
        <pt x="144" y="301" on="0"/>
        <pt x="115" y="327" on="1"/>
        <pt x="120" y="368" on="1"/>
        <pt x="164" y="408" on="0"/>
        <pt x="177" y="427" on="1"/>
        <pt x="205" y="464" on="0"/>
        <pt x="210" y="509" on="1"/>
        <pt x="212" y="534" on="0"/>
        <pt x="216" y="628" on="0"/>
        <pt x="218" y="648" on="1"/>
        <pt x="241" y="854" on="0"/>
        <pt x="403" y="854" on="1"/>
        <pt x="429" y="854" on="0"/>
        <pt x="477" y="843" on="1"/>
      </contour>
    </TTGlyph>
    <TTGlyph name="braceright" xMin="81" yMin="-202" xMax="444" yMax="854">
      <contour>
        <pt x="349" y="176" on="1"/>
        <pt x="347" y="151" on="0"/>
        <pt x="342" y="67" on="0"/>
        <pt x="341" y="52" on="1"/>
        <pt x="335" y="-5" on="0"/>
        <pt x="330" y="-33" on="1"/>
        <pt x="321" y="-83" on="0"/>
        <pt x="305" y="-116" on="1"/>
        <pt x="267" y="-198" on="0"/>
        <pt x="173" y="-202" on="1"/>
        <pt x="141" y="-203" on="0"/>
        <pt x="81" y="-184" on="1"/>
        <pt x="110" y="-108" on="1"/>
        <pt x="134" y="-130" on="0"/>
        <pt x="178" y="-129" on="1"/>
        <pt x="229" y="-129" on="0"/>
        <pt x="237" y="-66" on="1"/>
        <pt x="239" y="-53" on="0"/>
        <pt x="242" y="-24" on="1"/>
        <pt x="244" y="0" on="0"/>
        <pt x="249" y="120" on="0"/>
        <pt x="251" y="142" on="1"/>
        <pt x="257" y="201" on="0"/>
        <pt x="296" y="258" on="1"/>
        <pt x="328" y="305" on="0"/>
        <pt x="365" y="331" on="1"/>
        <pt x="368" y="356" on="1"/>
        <pt x="292" y="432" on="0"/>
        <pt x="300" y="506" on="1"/>
        <pt x="301" y="519" on="0"/>
        <pt x="313" y="603" on="1"/>
        <pt x="322" y="662" on="0"/>
        <pt x="323" y="701" on="1"/>
        <pt x="323" y="750" on="0"/>
        <pt x="306" y="767" on="1"/>
        <pt x="293" y="779" on="0"/>
        <pt x="255" y="779" on="1"/>
        <pt x="239" y="779" on="0"/>
        <pt x="196" y="766" on="1"/>
        <pt x="187" y="843" on="1"/>
        <pt x="238" y="854" on="0"/>
        <pt x="265" y="854" on="1"/>
        <pt x="408" y="854" on="0"/>
        <pt x="409" y="693" on="1"/>
        <pt x="409" y="657" on="0"/>
        <pt x="399" y="601" on="1"/>
        <pt x="387" y="525" on="0"/>
        <pt x="385" y="509" on="1"/>
        <pt x="380" y="464" on="0"/>
        <pt x="399" y="427" on="1"/>
        <pt x="409" y="408" on="0"/>
        <pt x="444" y="368" on="1"/>
        <pt x="441" y="327" on="1"/>
        <pt x="359" y="265" on="0"/>
      </contour>
    </TTGlyph>
    <TTGlyph name="bracketleft" xMin="11" yMin="-117" xMax="260" yMax="758">
      <contour>
        <pt x="11" y="-117" on="1"/>
        <pt x="103" y="758" on="1"/>
        <pt x="260" y="758" on="1"/>
        <pt x="255" y="706" on="1"/>
        <pt x="182" y="706" on="1"/>
        <pt x="102" y="-45" on="1"/>
        <pt x="185" y="-45" on="1"/>
        <pt x="178" y="-117" on="1"/>
      </contour>
    </TTGlyph>
    <TTGlyph name="bracketright" xMin="5" yMin="-117" xMax="261" yMax="758">
      <contour>
        <pt x="5" y="-117" on="1"/>
        <pt x="12" y="-45" on="1"/>
        <pt x="95" y="-45" on="1"/>
        <pt x="175" y="706" on="1"/>
        <pt x="101" y="706" on="1"/>
        <pt x="106" y="758" on="1"/>
        <pt x="261" y="758" on="1"/>
        <pt x="169" y="-117" on="1"/>
      </contour>
    </TTGlyph>
    <TTGlyph name="breve" xMin="37" yMin="551" xMax="315" yMax="666">
      <contour>
        <pt x="169" y="551" on="1"/>
        <pt x="120" y="551" on="0"/>
        <pt x="47" y="608" on="0"/>
        <pt x="37" y="658" on="1"/>
        <pt x="88" y="666" on="1"/>
        <pt x="108" y="601" on="0"/>
        <pt x="173" y="601" on="1"/>
        <pt x="233" y="601" on="0"/>
        <pt x="267" y="666" on="1"/>
        <pt x="315" y="658" on="1"/>
        <pt x="297" y="608" on="0"/>
        <pt x="218" y="551" on="0"/>
      </contour>
    </TTGlyph>
    <TTGlyph name="brokenbar" xMin="55" yMin="-18" xMax="134" yMax="672">
      <contour>
        <pt x="55" y="-18" on="1"/>
        <pt x="55" y="262" on="1"/>
        <pt x="134" y="262" on="1"/>
        <pt x="134" y="-18" on="1"/>
      </contour>
      <contour>
        <pt x="55" y="391" on="1"/>
        <pt x="55" y="672" on="1"/>
        <pt x="134" y="672" on="1"/>
        <pt x="134" y="391" on="1"/>
      </contour>
    </TTGlyph>
    <TTGlyph name="bullet" xMin="49" yMin="195" xMax="237" yMax="400">
      <contour>
        <pt x="132" y="195" on="1"/>
        <pt x="93" y="195" on="0"/>
        <pt x="44" y="253" on="0"/>
        <pt x="49" y="298" on="1"/>
        <pt x="54" y="342" on="0"/>
        <pt x="116" y="400" on="0"/>
        <pt x="155" y="400" on="1"/>
        <pt x="193" y="400" on="0"/>
        <pt x="242" y="342" on="0"/>
        <pt x="237" y="298" on="1"/>
        <pt x="232" y="254" on="0"/>
        <pt x="171" y="195" on="0"/>
      </contour>
    </TTGlyph>
    <TTGlyph name="c" xMin="38" yMin="-12" xMax="461" yMax="519">
      <contour>
        <pt x="247" y="-12" on="1"/>
        <pt x="128" y="-12" on="0"/>
        <pt x="75" y="69" on="1"/>
        <pt x="38" y="127" on="0"/>
        <pt x="38" y="214" on="1"/>
        <pt x="38" y="231" on="0"/>
        <pt x="39" y="248" on="1"/>
        <pt x="54" y="386" on="0"/>
        <pt x="138" y="459" on="1"/>
        <pt x="210" y="520" on="0"/>
        <pt x="305" y="519" on="1"/>
        <pt x="395" y="518" on="0"/>
        <pt x="461" y="465" on="1"/>
        <pt x="411" y="397" on="1"/>
        <pt x="375" y="426" on="0"/>
        <pt x="353" y="436" on="1"/>
        <pt x="324" y="449" on="0"/>
        <pt x="287" y="450" on="1"/>
        <pt x="218" y="450" on="0"/>
        <pt x="173" y="387" on="1"/>
        <pt x="133" y="331" on="0"/>
        <pt x="124" y="244" on="1"/>
        <pt x="122" y="229" on="0"/>
        <pt x="122" y="214" on="1"/>
        <pt x="122" y="140" on="0"/>
        <pt x="163" y="97" on="1"/>
        <pt x="200" y="58" on="0"/>
        <pt x="255" y="58" on="1"/>
        <pt x="329" y="58" on="0"/>
        <pt x="398" y="115" on="1"/>
        <pt x="432" y="61" on="1"/>
        <pt x="349" y="-12" on="0"/>
      </contour>
    </TTGlyph>
    <TTGlyph name="caron" xMin="38" yMin="539" xMax="333" yMax="727">
      <contour>
        <pt x="182" y="632" on="1"/>
        <pt x="333" y="727" on="1"/>
        <pt x="325" y="654" on="1"/>
        <pt x="172" y="539" on="1"/>
        <pt x="38" y="654" on="1"/>
        <pt x="46" y="727" on="1"/>
      </contour>
    </TTGlyph>
    <TTGlyph name="ccedilla" xMin="43" yMin="-224" xMax="467" yMax="519">
      <contour>
        <pt x="229" y="-224" on="1"/>
        <pt x="163" y="-224" on="0"/>
        <pt x="150" y="-175" on="1"/>
        <pt x="193" y="-140" on="1"/>
        <pt x="217" y="-173" on="0"/>
        <pt x="239" y="-173" on="1"/>
        <pt x="277" y="-173" on="0"/>
        <pt x="282" y="-138" on="1"/>
        <pt x="288" y="-98" on="0"/>
        <pt x="254" y="-98" on="1"/>
        <pt x="239" y="-98" on="0"/>
        <pt x="215" y="-114" on="1"/>
        <pt x="172" y="-92" on="1"/>
        <pt x="191" y="-6" on="1"/>
        <pt x="52" y="25" on="0"/>
        <pt x="43" y="193" on="1"/>
        <pt x="36" y="321" on="0"/>
        <pt x="105" y="416" on="1"/>
        <pt x="182" y="520" on="0"/>
        <pt x="313" y="519" on="1"/>
        <pt x="402" y="519" on="0"/>
        <pt x="467" y="465" on="1"/>
        <pt x="417" y="397" on="1"/>
        <pt x="356" y="449" on="0"/>
        <pt x="294" y="450" on="1"/>
        <pt x="212" y="450" on="0"/>
        <pt x="164" y="360" on="1"/>
        <pt x="124" y="284" on="0"/>
        <pt x="128" y="199" on="1"/>
        <pt x="131" y="132" on="0"/>
        <pt x="171" y="93" on="1"/>
        <pt x="207" y="58" on="0"/>
        <pt x="259" y="58" on="1"/>
        <pt x="333" y="58" on="0"/>
        <pt x="401" y="115" on="1"/>
        <pt x="436" y="61" on="1"/>
        <pt x="351" y="-13" on="0"/>
        <pt x="251" y="-12" on="1"/>
        <pt x="249" y="-12" on="1"/>
        <pt x="240" y="-48" on="1"/>
        <pt x="249" y="-44" on="0"/>
        <pt x="265" y="-44" on="1"/>
        <pt x="303" y="-44" on="0"/>
        <pt x="326" y="-68" on="1"/>
        <pt x="344" y="-90" on="0"/>
        <pt x="344" y="-120" on="1"/>
        <pt x="344" y="-166" on="0"/>
        <pt x="275" y="-224" on="0"/>
      </contour>
    </TTGlyph>
    <TTGlyph name="cedilla" xMin="8" yMin="-224" xMax="199" yMax="5">
      <contour>
        <pt x="91" y="-224" on="1"/>
        <pt x="24" y="-224" on="0"/>
        <pt x="8" y="-175" on="1"/>
        <pt x="49" y="-140" on="1"/>
        <pt x="76" y="-173" on="0"/>
        <pt x="97" y="-173" on="1"/>
        <pt x="134" y="-173" on="0"/>
        <pt x="138" y="-138" on="1"/>
        <pt x="142" y="-98" on="0"/>
        <pt x="108" y="-98" on="1"/>
        <pt x="94" y="-98" on="0"/>
        <pt x="71" y="-114" on="1"/>
        <pt x="26" y="-92" on="1"/>
        <pt x="41" y="4" on="1"/>
        <pt x="100" y="5" on="1"/>
        <pt x="90" y="-48" on="1"/>
        <pt x="100" y="-44" on="0"/>
        <pt x="117" y="-44" on="1"/>
        <pt x="160" y="-44" on="0"/>
        <pt x="182" y="-74" on="1"/>
        <pt x="202" y="-100" on="0"/>
        <pt x="199" y="-135" on="1"/>
        <pt x="196" y="-171" on="0"/>
        <pt x="138" y="-224" on="0"/>
      </contour>
    </TTGlyph>
    <TTGlyph name="cent" xMin="36" yMin="-91" xMax="462" yMax="604">
      <contour>
        <pt x="202" y="-10" on="1"/>
        <pt x="109" y="4" on="0"/>
        <pt x="67" y="81" on="1"/>
        <pt x="36" y="136" on="0"/>
        <pt x="36" y="213" on="1"/>
        <pt x="36" y="231" on="0"/>
        <pt x="38" y="248" on="1"/>
        <pt x="51" y="369" on="0"/>
        <pt x="118" y="440" on="1"/>
        <pt x="174" y="501" on="0"/>
        <pt x="258" y="516" on="1"/>
        <pt x="267" y="604" on="1"/>
        <pt x="358" y="604" on="1"/>
        <pt x="349" y="517" on="1"/>
        <pt x="412" y="506" on="0"/>
        <pt x="462" y="465" on="1"/>
        <pt x="410" y="395" on="1"/>
        <pt x="352" y="445" on="0"/>
        <pt x="287" y="445" on="1"/>
        <pt x="218" y="445" on="0"/>
        <pt x="174" y="385" on="1"/>
        <pt x="134" y="331" on="0"/>
        <pt x="125" y="244" on="1"/>
        <pt x="123" y="229" on="0"/>
        <pt x="123" y="214" on="1"/>
        <pt x="123" y="140" on="0"/>
        <pt x="164" y="99" on="1"/>
        <pt x="200" y="62" on="0"/>
        <pt x="255" y="62" on="1"/>
        <pt x="332" y="62" on="0"/>
        <pt x="398" y="117" on="1"/>
        <pt x="433" y="61" on="1"/>
        <pt x="367" y="3" on="0"/>
        <pt x="293" y="-9" on="1"/>
        <pt x="285" y="-91" on="1"/>
        <pt x="194" y="-91" on="1"/>
      </contour>
    </TTGlyph>
    <TTGlyph name="circumflex" xMin="26" yMin="539" xMax="321" yMax="727">
      <contour>
        <pt x="177" y="634" on="1"/>
        <pt x="26" y="539" on="1"/>
        <pt x="34" y="611" on="1"/>
        <pt x="187" y="727" on="1"/>
        <pt x="321" y="611" on="1"/>
        <pt x="312" y="539" on="1"/>
      </contour>
    </TTGlyph>
    <TTGlyph name="colon" xMin="47" yMin="-9" xMax="225" yMax="518">
      <contour>
        <pt x="148" y="369" on="1"/>
        <pt x="121" y="369" on="0"/>
        <pt x="84" y="412" on="0"/>
        <pt x="88" y="443" on="1"/>
        <pt x="91" y="475" on="0"/>
        <pt x="137" y="518" on="0"/>
        <pt x="164" y="518" on="1"/>
        <pt x="192" y="518" on="0"/>
        <pt x="228" y="475" on="0"/>
        <pt x="225" y="443" on="1"/>
        <pt x="221" y="411" on="0"/>
        <pt x="176" y="369" on="0"/>
      </contour>
      <contour>
        <pt x="109" y="-9" on="1"/>
        <pt x="81" y="-9" on="0"/>
        <pt x="44" y="34" on="0"/>
        <pt x="47" y="66" on="1"/>
        <pt x="51" y="98" on="0"/>
        <pt x="97" y="140" on="0"/>
        <pt x="124" y="140" on="1"/>
        <pt x="152" y="140" on="0"/>
        <pt x="188" y="97" on="0"/>
        <pt x="184" y="66" on="1"/>
        <pt x="181" y="34" on="0"/>
        <pt x="137" y="-9" on="0"/>
      </contour>
    </TTGlyph>
    <TTGlyph name="comma" xMin="56" yMin="-86" xMax="217" yMax="123">
      <contour>
        <pt x="56" y="-74" on="1"/>
        <pt x="100" y="-86" on="1"/>
        <pt x="206" y="36" on="0"/>
        <pt x="217" y="123" on="1"/>
        <pt x="118" y="123" on="1"/>
        <pt x="113" y="78" on="0"/>
        <pt x="91" y="12" on="1"/>
        <pt x="71" y="-48" on="0"/>
      </contour>
    </TTGlyph>
    <TTGlyph name="copyright" xMin="69" yMin="-15" xMax="746" yMax="663">
      <contour>
        <pt x="406" y="104" on="1"/>
        <pt x="317" y="104" on="0"/>
        <pt x="266" y="173" on="1"/>
        <pt x="222" y="233" on="0"/>
        <pt x="222" y="326" on="1"/>
        <pt x="222" y="413" on="0"/>
        <pt x="267" y="473" on="1"/>
        <pt x="318" y="542" on="0"/>
        <pt x="408" y="543" on="1"/>
        <pt x="469" y="543" on="0"/>
        <pt x="531" y="507" on="1"/>
        <pt x="507" y="455" on="1"/>
        <pt x="447" y="492" on="0"/>
        <pt x="411" y="492" on="1"/>
        <pt x="345" y="492" on="0"/>
        <pt x="309" y="429" on="1"/>
        <pt x="281" y="380" on="0"/>
        <pt x="282" y="317" on="1"/>
        <pt x="282" y="247" on="0"/>
        <pt x="353" y="157" on="0"/>
        <pt x="406" y="157" on="1"/>
        <pt x="460" y="157" on="0"/>
        <pt x="510" y="185" on="1"/>
        <pt x="536" y="142" on="1"/>
        <pt x="464" y="104" on="0"/>
      </contour>
      <contour>
        <pt x="135" y="324" on="1"/>
        <pt x="135" y="211" on="0"/>
        <pt x="295" y="51" on="0"/>
        <pt x="408" y="51" on="1"/>
        <pt x="521" y="51" on="0"/>
        <pt x="680" y="211" on="0"/>
        <pt x="680" y="324" on="1"/>
        <pt x="680" y="437" on="0"/>
        <pt x="520" y="596" on="0"/>
        <pt x="408" y="596" on="1"/>
        <pt x="295" y="596" on="0"/>
        <pt x="135" y="437" on="0"/>
      </contour>
      <contour>
        <pt x="69" y="324" on="1"/>
        <pt x="69" y="464" on="0"/>
        <pt x="267" y="663" on="0"/>
        <pt x="408" y="663" on="1"/>
        <pt x="548" y="663" on="0"/>
        <pt x="746" y="464" on="0"/>
        <pt x="746" y="324" on="1"/>
        <pt x="746" y="184" on="0"/>
        <pt x="548" y="-15" on="0"/>
        <pt x="408" y="-15" on="1"/>
        <pt x="268" y="-15" on="0"/>
        <pt x="69" y="184" on="0"/>
      </contour>
    </TTGlyph>
    <TTGlyph name="currency" xMin="31" yMin="0" xMax="467" yMax="655">
      <contour>
        <pt x="418" y="369" on="1"/>
        <pt x="236" y="369" on="1"/>
        <pt x="230" y="323" on="1"/>
        <pt x="413" y="323" on="1"/>
        <pt x="406" y="246" on="1"/>
        <pt x="223" y="246" on="1"/>
        <pt x="205" y="78" on="1"/>
        <pt x="402" y="79" on="1"/>
        <pt x="394" y="0" on="1"/>
        <pt x="105" y="0" on="1"/>
        <pt x="132" y="246" on="1"/>
        <pt x="31" y="246" on="1"/>
        <pt x="37" y="323" on="1"/>
        <pt x="139" y="323" on="1"/>
        <pt x="144" y="370" on="1"/>
        <pt x="43" y="370" on="1"/>
        <pt x="50" y="445" on="1"/>
        <pt x="153" y="445" on="1"/>
        <pt x="175" y="655" on="1"/>
        <pt x="467" y="655" on="1"/>
        <pt x="459" y="582" on="1"/>
        <pt x="258" y="582" on="1"/>
        <pt x="244" y="445" on="1"/>
        <pt x="426" y="445" on="1"/>
      </contour>
    </TTGlyph>
    <TTGlyph name="d" xMin="26" yMin="-13" xMax="498" yMax="714">
      <contour>
        <pt x="422" y="0" on="1"/>
        <pt x="354" y="0" on="1"/>
        <pt x="346" y="43" on="1"/>
        <pt x="257" y="-13" on="0"/>
        <pt x="198" y="-13" on="1"/>
        <pt x="115" y="-13" on="0"/>
        <pt x="68" y="56" on="1"/>
        <pt x="26" y="117" on="0"/>
        <pt x="26" y="211" on="1"/>
        <pt x="26" y="334" on="0"/>
        <pt x="88" y="423" on="1"/>
        <pt x="159" y="524" on="0"/>
        <pt x="276" y="524" on="1"/>
        <pt x="348" y="524" on="0"/>
        <pt x="391" y="465" on="1"/>
        <pt x="418" y="714" on="1"/>
        <pt x="498" y="714" on="1"/>
      </contour>
      <contour>
        <pt x="383" y="389" on="1"/>
        <pt x="359" y="427" on="0"/>
        <pt x="312" y="454" on="0"/>
        <pt x="265" y="454" on="1"/>
        <pt x="189" y="454" on="0"/>
        <pt x="150" y="372" on="1"/>
        <pt x="118" y="306" on="0"/>
        <pt x="118" y="222" on="1"/>
        <pt x="118" y="151" on="0"/>
        <pt x="145" y="109" on="1"/>
        <pt x="175" y="63" on="0"/>
        <pt x="232" y="62" on="1"/>
        <pt x="294" y="62" on="0"/>
        <pt x="353" y="109" on="1"/>
      </contour>
    </TTGlyph>
    <TTGlyph name="dagger" xMin="24" yMin="341" xMax="197" yMax="671">
      <contour>
        <pt x="197" y="572" on="1"/>
        <pt x="125" y="572" on="1"/>
        <pt x="125" y="341" on="1"/>
        <pt x="85" y="341" on="1"/>
        <pt x="85" y="572" on="1"/>
        <pt x="24" y="572" on="1"/>
        <pt x="24" y="607" on="1"/>
        <pt x="85" y="607" on="1"/>
        <pt x="85" y="671" on="1"/>
        <pt x="125" y="671" on="1"/>
        <pt x="125" y="607" on="1"/>
        <pt x="197" y="607" on="1"/>
      </contour>
    </TTGlyph>
    <TTGlyph name="daggerdbl" xMin="25" yMin="251" xMax="187" yMax="671">
      <contour>
        <pt x="187" y="407" on="1"/>
        <pt x="124" y="407" on="1"/>
        <pt x="124" y="251" on="1"/>
        <pt x="86" y="251" on="1"/>
        <pt x="86" y="407" on="1"/>
        <pt x="25" y="407" on="1"/>
        <pt x="25" y="431" on="1"/>
        <pt x="86" y="431" on="1"/>
        <pt x="86" y="562" on="1"/>
        <pt x="25" y="562" on="1"/>
        <pt x="25" y="587" on="1"/>
        <pt x="86" y="587" on="1"/>
        <pt x="86" y="671" on="1"/>
        <pt x="124" y="671" on="1"/>
        <pt x="124" y="587" on="1"/>
        <pt x="187" y="587" on="1"/>
        <pt x="187" y="562" on="1"/>
        <pt x="124" y="562" on="1"/>
        <pt x="124" y="431" on="1"/>
        <pt x="187" y="431" on="1"/>
      </contour>
    </TTGlyph>
    <TTGlyph name="degree" xMin="5" yMin="463" xMax="274" yMax="729">
      <contour>
        <pt x="156" y="729" on="1"/>
        <pt x="213" y="729" on="0"/>
        <pt x="281" y="652" on="0"/>
        <pt x="274" y="596" on="1"/>
        <pt x="268" y="540" on="0"/>
        <pt x="184" y="463" on="0"/>
        <pt x="127" y="463" on="1"/>
        <pt x="70" y="463" on="0"/>
        <pt x="-1" y="541" on="0"/>
        <pt x="5" y="596" on="1"/>
        <pt x="11" y="651" on="0"/>
        <pt x="98" y="729" on="0"/>
      </contour>
      <contour>
        <pt x="150" y="678" on="1"/>
        <pt x="115" y="678" on="0"/>
        <pt x="63" y="631" on="0"/>
        <pt x="59" y="596" on="1"/>
        <pt x="55" y="561" on="0"/>
        <pt x="97" y="514" on="0"/>
        <pt x="133" y="514" on="1"/>
        <pt x="167" y="514" on="0"/>
        <pt x="216" y="561" on="0"/>
        <pt x="220" y="596" on="1"/>
        <pt x="224" y="631" on="0"/>
        <pt x="185" y="678" on="0"/>
      </contour>
    </TTGlyph>
    <TTGlyph name="dieresis" xMin="-5" yMin="559" xMax="312" yMax="666">
      <contour>
        <pt x="255" y="559" on="1"/>
        <pt x="230" y="559" on="0"/>
        <pt x="208" y="592" on="0"/>
        <pt x="210" y="612" on="1"/>
        <pt x="212" y="632" on="0"/>
        <pt x="242" y="666" on="0"/>
        <pt x="267" y="666" on="1"/>
        <pt x="291" y="666" on="0"/>
        <pt x="314" y="632" on="0"/>
        <pt x="310" y="592" on="0"/>
        <pt x="280" y="559" on="0"/>
      </contour>
      <contour>
        <pt x="40" y="559" on="1"/>
        <pt x="16" y="559" on="0"/>
        <pt x="-7" y="592" on="0"/>
        <pt x="-5" y="612" on="1"/>
        <pt x="-3" y="632" on="0"/>
        <pt x="28" y="666" on="0"/>
        <pt x="76" y="666" on="0"/>
        <pt x="99" y="633" on="0"/>
        <pt x="97" y="612" on="1"/>
        <pt x="95" y="592" on="0"/>
        <pt x="65" y="559" on="0"/>
      </contour>
    </TTGlyph>
    <TTGlyph name="divide" xMin="54" yMin="95" xMax="457" yMax="542">
      <contour>
        <pt x="270" y="407" on="1"/>
        <pt x="244" y="407" on="0"/>
        <pt x="209" y="445" on="0"/>
        <pt x="209" y="474" on="1"/>
        <pt x="209" y="503" on="0"/>
        <pt x="245" y="542" on="0"/>
        <pt x="270" y="542" on="1"/>
        <pt x="296" y="542" on="0"/>
        <pt x="332" y="503" on="0"/>
        <pt x="332" y="474" on="1"/>
        <pt x="332" y="445" on="0"/>
        <pt x="296" y="407" on="0"/>
      </contour>
      <contour>
        <pt x="54" y="282" on="1"/>
        <pt x="54" y="353" on="1"/>
        <pt x="457" y="353" on="1"/>
        <pt x="457" y="282" on="1"/>
      </contour>
      <contour>
        <pt x="270" y="95" on="1"/>
        <pt x="244" y="95" on="0"/>
        <pt x="209" y="134" on="0"/>
        <pt x="209" y="163" on="1"/>
        <pt x="209" y="192" on="0"/>
        <pt x="245" y="230" on="0"/>
        <pt x="270" y="230" on="1"/>
        <pt x="296" y="230" on="0"/>
        <pt x="332" y="191" on="0"/>
        <pt x="332" y="163" on="1"/>
        <pt x="332" y="134" on="0"/>
        <pt x="296" y="95" on="0"/>
      </contour>
    </TTGlyph>
    <TTGlyph name="dollar" xMin="54" yMin="-102" xMax="471" yMax="707">
      <contour>
        <pt x="289" y="-6" on="1"/>
        <pt x="279" y="-102" on="1"/>
        <pt x="187" y="-102" on="1"/>
        <pt x="198" y="-9" on="1"/>
        <pt x="96" y="5" on="0"/>
        <pt x="54" y="71" on="1"/>
        <pt x="110" y="134" on="1"/>
        <pt x="161" y="65" on="0"/>
        <pt x="245" y="66" on="1"/>
        <pt x="292" y="66" on="0"/>
        <pt x="362" y="121" on="0"/>
        <pt x="367" y="171" on="1"/>
        <pt x="372" y="220" on="0"/>
        <pt x="327" y="248" on="1"/>
        <pt x="314" y="256" on="0"/>
        <pt x="240" y="284" on="1"/>
        <pt x="181" y="307" on="0"/>
        <pt x="153" y="332" on="1"/>
        <pt x="114" y="370" on="0"/>
        <pt x="114" y="432" on="1"/>
        <pt x="114" y="445" on="0"/>
        <pt x="115" y="459" on="1"/>
        <pt x="121" y="516" on="0"/>
        <pt x="164" y="560" on="1"/>
        <pt x="205" y="601" on="0"/>
        <pt x="263" y="615" on="1"/>
        <pt x="273" y="707" on="1"/>
        <pt x="365" y="707" on="1"/>
        <pt x="355" y="618" on="1"/>
        <pt x="416" y="607" on="0"/>
        <pt x="471" y="558" on="1"/>
        <pt x="420" y="499" on="1"/>
        <pt x="369" y="547" on="0"/>
        <pt x="307" y="547" on="1"/>
        <pt x="216" y="547" on="0"/>
        <pt x="207" y="454" on="1"/>
        <pt x="201" y="400" on="0"/>
        <pt x="383" y="336" on="0"/>
        <pt x="412" y="312" on="1"/>
        <pt x="456" y="276" on="0"/>
        <pt x="456" y="206" on="1"/>
        <pt x="456" y="191" on="0"/>
        <pt x="455" y="173" on="1"/>
        <pt x="440" y="25" on="0"/>
      </contour>
    </TTGlyph>
    <TTGlyph name="dotaccent" xMin="77" yMin="541" xMax="185" yMax="639">
      <contour>
        <pt x="126" y="541" on="1"/>
        <pt x="102" y="541" on="0"/>
        <pt x="75" y="570" on="0"/>
        <pt x="79" y="610" on="0"/>
        <pt x="113" y="639" on="0"/>
        <pt x="136" y="639" on="1"/>
        <pt x="160" y="639" on="0"/>
        <pt x="187" y="610" on="0"/>
        <pt x="185" y="590" on="1"/>
        <pt x="183" y="571" on="0"/>
        <pt x="150" y="541" on="0"/>
      </contour>
    </TTGlyph>
    <TTGlyph name="dotlessi" xMin="46" yMin="0" xMax="182" yMax="507">
      <contour>
        <pt x="46" y="0" on="1"/>
        <pt x="99" y="507" on="1"/>
        <pt x="182" y="507" on="1"/>
        <pt x="129" y="0" on="1"/>
      </contour>
    </TTGlyph>
    <TTGlyph name="e" xMin="32" yMin="-12" xMax="465" yMax="519">
      <contour>
        <pt x="387" y="387" on="1"/>
        <pt x="387" y="423" on="0"/>
        <pt x="342" y="452" on="0"/>
        <pt x="290" y="452" on="1"/>
        <pt x="207" y="452" on="0"/>
        <pt x="161" y="383" on="1"/>
        <pt x="132" y="340" on="0"/>
        <pt x="124" y="292" on="1"/>
        <pt x="191" y="289" on="0"/>
        <pt x="299" y="310" on="1"/>
        <pt x="388" y="328" on="0"/>
      </contour>
      <contour>
        <pt x="118" y="232" on="1"/>
        <pt x="116" y="218" on="0"/>
        <pt x="117" y="191" on="1"/>
        <pt x="118" y="161" on="0"/>
        <pt x="147" y="92" on="0"/>
        <pt x="186" y="73" on="1"/>
        <pt x="219" y="58" on="0"/>
        <pt x="255" y="57" on="1"/>
        <pt x="313" y="57" on="0"/>
        <pt x="397" y="123" on="1"/>
        <pt x="431" y="66" on="1"/>
        <pt x="339" y="-12" on="0"/>
        <pt x="240" y="-12" on="1"/>
        <pt x="43" y="-12" on="0"/>
        <pt x="32" y="188" on="1"/>
        <pt x="25" y="319" on="0"/>
        <pt x="93" y="414" on="1"/>
        <pt x="169" y="519" on="0"/>
        <pt x="304" y="519" on="1"/>
        <pt x="374" y="519" on="0"/>
        <pt x="417" y="486" on="1"/>
        <pt x="465" y="449" on="0"/>
        <pt x="465" y="378" on="1"/>
        <pt x="465" y="333" on="0"/>
        <pt x="423" y="295" on="1"/>
        <pt x="386" y="263" on="0"/>
        <pt x="340" y="253" on="1"/>
        <pt x="235" y="229" on="0"/>
        <pt x="169" y="229" on="1"/>
        <pt x="145" y="229" on="0"/>
      </contour>
    </TTGlyph>
    <TTGlyph name="eacute" xMin="32" yMin="-12" xMax="512" yMax="729">
      <contour>
        <pt x="282" y="570" on="1"/>
        <pt x="244" y="631" on="1"/>
        <pt x="474" y="729" on="1"/>
        <pt x="512" y="663" on="1"/>
      </contour>
      <contour>
        <pt x="387" y="387" on="1"/>
        <pt x="387" y="423" on="0"/>
        <pt x="342" y="452" on="0"/>
        <pt x="290" y="452" on="1"/>
        <pt x="207" y="452" on="0"/>
        <pt x="161" y="383" on="1"/>
        <pt x="132" y="340" on="0"/>
        <pt x="124" y="292" on="1"/>
        <pt x="191" y="289" on="0"/>
        <pt x="299" y="310" on="1"/>
        <pt x="388" y="328" on="0"/>
      </contour>
      <contour>
        <pt x="118" y="232" on="1"/>
        <pt x="116" y="218" on="0"/>
        <pt x="117" y="191" on="1"/>
        <pt x="118" y="161" on="0"/>
        <pt x="147" y="92" on="0"/>
        <pt x="186" y="73" on="1"/>
        <pt x="219" y="58" on="0"/>
        <pt x="255" y="57" on="1"/>
        <pt x="313" y="57" on="0"/>
        <pt x="397" y="123" on="1"/>
        <pt x="431" y="66" on="1"/>
        <pt x="339" y="-12" on="0"/>
        <pt x="240" y="-12" on="1"/>
        <pt x="43" y="-12" on="0"/>
        <pt x="32" y="188" on="1"/>
        <pt x="25" y="319" on="0"/>
        <pt x="93" y="414" on="1"/>
        <pt x="169" y="519" on="0"/>
        <pt x="304" y="519" on="1"/>
        <pt x="374" y="519" on="0"/>
        <pt x="417" y="486" on="1"/>
        <pt x="465" y="449" on="0"/>
        <pt x="465" y="378" on="1"/>
        <pt x="465" y="333" on="0"/>
        <pt x="423" y="295" on="1"/>
        <pt x="386" y="263" on="0"/>
        <pt x="340" y="253" on="1"/>
        <pt x="235" y="229" on="0"/>
        <pt x="169" y="229" on="1"/>
        <pt x="145" y="229" on="0"/>
      </contour>
    </TTGlyph>
    <TTGlyph name="ecircumflex" xMin="32" yMin="-12" xMax="487" yMax="727">
      <contour>
        <pt x="345" y="634" on="1"/>
        <pt x="189" y="539" on="1"/>
        <pt x="201" y="611" on="1"/>
        <pt x="359" y="727" on="1"/>
        <pt x="487" y="611" on="1"/>
        <pt x="475" y="539" on="1"/>
      </contour>
      <contour>
        <pt x="387" y="387" on="1"/>
        <pt x="387" y="423" on="0"/>
        <pt x="342" y="452" on="0"/>
        <pt x="290" y="452" on="1"/>
        <pt x="207" y="452" on="0"/>
        <pt x="161" y="383" on="1"/>
        <pt x="132" y="340" on="0"/>
        <pt x="124" y="292" on="1"/>
        <pt x="191" y="289" on="0"/>
        <pt x="299" y="310" on="1"/>
        <pt x="388" y="328" on="0"/>
      </contour>
      <contour>
        <pt x="118" y="232" on="1"/>
        <pt x="116" y="218" on="0"/>
        <pt x="117" y="191" on="1"/>
        <pt x="118" y="161" on="0"/>
        <pt x="147" y="92" on="0"/>
        <pt x="186" y="73" on="1"/>
        <pt x="219" y="58" on="0"/>
        <pt x="255" y="57" on="1"/>
        <pt x="313" y="57" on="0"/>
        <pt x="397" y="123" on="1"/>
        <pt x="431" y="66" on="1"/>
        <pt x="339" y="-12" on="0"/>
        <pt x="240" y="-12" on="1"/>
        <pt x="43" y="-12" on="0"/>
        <pt x="32" y="188" on="1"/>
        <pt x="25" y="319" on="0"/>
        <pt x="93" y="414" on="1"/>
        <pt x="169" y="519" on="0"/>
        <pt x="304" y="519" on="1"/>
        <pt x="374" y="519" on="0"/>
        <pt x="417" y="486" on="1"/>
        <pt x="465" y="449" on="0"/>
        <pt x="465" y="378" on="1"/>
        <pt x="465" y="333" on="0"/>
        <pt x="423" y="295" on="1"/>
        <pt x="386" y="263" on="0"/>
        <pt x="340" y="253" on="1"/>
        <pt x="235" y="229" on="0"/>
        <pt x="169" y="229" on="1"/>
        <pt x="145" y="229" on="0"/>
      </contour>
    </TTGlyph>
    <TTGlyph name="edieresis" xMin="32" yMin="-12" xMax="515" yMax="666">
      <contour>
        <pt x="456" y="559" on="1"/>
        <pt x="431" y="559" on="0"/>
        <pt x="410" y="592" on="0"/>
        <pt x="413" y="612" on="1"/>
        <pt x="416" y="632" on="0"/>
        <pt x="447" y="666" on="0"/>
        <pt x="472" y="666" on="1"/>
        <pt x="496" y="666" on="0"/>
        <pt x="518" y="632" on="0"/>
        <pt x="512" y="592" on="0"/>
        <pt x="480" y="559" on="0"/>
      </contour>
      <contour>
        <pt x="241" y="559" on="1"/>
        <pt x="216" y="559" on="0"/>
        <pt x="195" y="592" on="0"/>
        <pt x="198" y="612" on="1"/>
        <pt x="201" y="632" on="0"/>
        <pt x="232" y="666" on="0"/>
        <pt x="257" y="666" on="1"/>
        <pt x="282" y="666" on="0"/>
        <pt x="303" y="632" on="0"/>
        <pt x="297" y="592" on="0"/>
        <pt x="265" y="559" on="0"/>
      </contour>
      <contour>
        <pt x="387" y="387" on="1"/>
        <pt x="387" y="423" on="0"/>
        <pt x="342" y="452" on="0"/>
        <pt x="290" y="452" on="1"/>
        <pt x="207" y="452" on="0"/>
        <pt x="161" y="383" on="1"/>
        <pt x="132" y="340" on="0"/>
        <pt x="124" y="292" on="1"/>
        <pt x="191" y="289" on="0"/>
        <pt x="299" y="310" on="1"/>
        <pt x="388" y="328" on="0"/>
      </contour>
      <contour>
        <pt x="118" y="232" on="1"/>
        <pt x="116" y="218" on="0"/>
        <pt x="117" y="191" on="1"/>
        <pt x="118" y="161" on="0"/>
        <pt x="147" y="92" on="0"/>
        <pt x="186" y="73" on="1"/>
        <pt x="219" y="58" on="0"/>
        <pt x="255" y="57" on="1"/>
        <pt x="313" y="57" on="0"/>
        <pt x="397" y="123" on="1"/>
        <pt x="431" y="66" on="1"/>
        <pt x="339" y="-12" on="0"/>
        <pt x="240" y="-12" on="1"/>
        <pt x="43" y="-12" on="0"/>
        <pt x="32" y="188" on="1"/>
        <pt x="25" y="319" on="0"/>
        <pt x="93" y="414" on="1"/>
        <pt x="169" y="519" on="0"/>
        <pt x="304" y="519" on="1"/>
        <pt x="374" y="519" on="0"/>
        <pt x="417" y="486" on="1"/>
        <pt x="465" y="449" on="0"/>
        <pt x="465" y="378" on="1"/>
        <pt x="465" y="333" on="0"/>
        <pt x="423" y="295" on="1"/>
        <pt x="386" y="263" on="0"/>
        <pt x="340" y="253" on="1"/>
        <pt x="235" y="229" on="0"/>
        <pt x="169" y="229" on="1"/>
        <pt x="145" y="229" on="0"/>
      </contour>
    </TTGlyph>
    <TTGlyph name="egrave" xMin="32" yMin="-12" xMax="486" yMax="728">
      <contour>
        <pt x="428" y="569" on="1"/>
        <pt x="228" y="662" on="1"/>
        <pt x="287" y="728" on="1"/>
        <pt x="486" y="630" on="1"/>
      </contour>
      <contour>
        <pt x="387" y="387" on="1"/>
        <pt x="387" y="423" on="0"/>
        <pt x="342" y="452" on="0"/>
        <pt x="290" y="452" on="1"/>
        <pt x="207" y="452" on="0"/>
        <pt x="161" y="383" on="1"/>
        <pt x="132" y="340" on="0"/>
        <pt x="124" y="292" on="1"/>
        <pt x="191" y="289" on="0"/>
        <pt x="299" y="310" on="1"/>
        <pt x="388" y="328" on="0"/>
      </contour>
      <contour>
        <pt x="118" y="232" on="1"/>
        <pt x="116" y="218" on="0"/>
        <pt x="117" y="191" on="1"/>
        <pt x="118" y="161" on="0"/>
        <pt x="147" y="92" on="0"/>
        <pt x="186" y="73" on="1"/>
        <pt x="219" y="58" on="0"/>
        <pt x="255" y="57" on="1"/>
        <pt x="313" y="57" on="0"/>
        <pt x="397" y="123" on="1"/>
        <pt x="431" y="66" on="1"/>
        <pt x="339" y="-12" on="0"/>
        <pt x="240" y="-12" on="1"/>
        <pt x="43" y="-12" on="0"/>
        <pt x="32" y="188" on="1"/>
        <pt x="25" y="319" on="0"/>
        <pt x="93" y="414" on="1"/>
        <pt x="169" y="519" on="0"/>
        <pt x="304" y="519" on="1"/>
        <pt x="374" y="519" on="0"/>
        <pt x="417" y="486" on="1"/>
        <pt x="465" y="449" on="0"/>
        <pt x="465" y="378" on="1"/>
        <pt x="465" y="333" on="0"/>
        <pt x="423" y="295" on="1"/>
        <pt x="386" y="263" on="0"/>
        <pt x="340" y="253" on="1"/>
        <pt x="235" y="229" on="0"/>
        <pt x="169" y="229" on="1"/>
        <pt x="145" y="229" on="0"/>
      </contour>
    </TTGlyph>
    <TTGlyph name="eight" xMin="24" yMin="-29" xMax="492" yMax="681">
      <contour>
        <pt x="271" y="321" on="1"/>
        <pt x="187" y="282" on="0"/>
        <pt x="166" y="266" on="1"/>
        <pt x="116" y="229" on="0"/>
        <pt x="110" y="172" on="1"/>
        <pt x="103" y="102" on="0"/>
        <pt x="156" y="63" on="1"/>
        <pt x="197" y="33" on="0"/>
        <pt x="248" y="34" on="1"/>
        <pt x="310" y="34" on="0"/>
        <pt x="399" y="109" on="0"/>
        <pt x="407" y="172" on="1"/>
        <pt x="413" y="230" on="0"/>
        <pt x="370" y="268" on="1"/>
        <pt x="344" y="290" on="0"/>
      </contour>
      <contour>
        <pt x="300" y="623" on="1"/>
        <pt x="256" y="623" on="0"/>
        <pt x="221" y="594" on="1"/>
        <pt x="182" y="563" on="0"/>
        <pt x="172" y="510" on="1"/>
        <pt x="175" y="466" on="0"/>
        <pt x="204" y="438" on="1"/>
        <pt x="226" y="418" on="0"/>
        <pt x="273" y="397" on="1"/>
        <pt x="403" y="442" on="0"/>
        <pt x="411" y="513" on="1"/>
        <pt x="416" y="560" on="0"/>
        <pt x="380" y="593" on="1"/>
        <pt x="346" y="623" on="0"/>
      </contour>
      <contour>
        <pt x="234" y="-29" on="1"/>
        <pt x="144" y="-29" on="0"/>
        <pt x="86" y="14" on="1"/>
        <pt x="24" y="62" on="0"/>
        <pt x="24" y="147" on="1"/>
        <pt x="24" y="220" on="0"/>
        <pt x="80" y="280" on="1"/>
        <pt x="127" y="330" on="0"/>
        <pt x="204" y="360" on="1"/>
        <pt x="142" y="401" on="0"/>
        <pt x="123" y="422" on="1"/>
        <pt x="90" y="460" on="0"/>
        <pt x="95" y="510" on="1"/>
        <pt x="103" y="590" on="0"/>
        <pt x="175" y="639" on="1"/>
        <pt x="238" y="681" on="0"/>
        <pt x="316" y="681" on="1"/>
        <pt x="389" y="681" on="0"/>
        <pt x="438" y="640" on="1"/>
        <pt x="493" y="594" on="0"/>
        <pt x="485" y="522" on="1"/>
        <pt x="475" y="428" on="0"/>
        <pt x="346" y="365" on="1"/>
        <pt x="506" y="303" on="0"/>
        <pt x="492" y="175" on="1"/>
        <pt x="483" y="87" on="0"/>
        <pt x="419" y="32" on="1"/>
        <pt x="349" y="-29" on="0"/>
      </contour>
    </TTGlyph>
    <TTGlyph name="ellipsis" xMin="61" yMin="-16" xMax="585" yMax="125">
      <contour>
        <pt x="510" y="-16" on="1"/>
        <pt x="481" y="-16" on="0"/>
        <pt x="445" y="22" on="0"/>
        <pt x="449" y="54" on="1"/>
        <pt x="452" y="88" on="0"/>
        <pt x="475" y="108" on="1"/>
        <pt x="495" y="125" on="0"/>
        <pt x="524" y="125" on="1"/>
        <pt x="553" y="125" on="0"/>
        <pt x="588" y="88" on="0"/>
        <pt x="585" y="54" on="1"/>
        <pt x="582" y="21" on="0"/>
        <pt x="538" y="-16" on="0"/>
      </contour>
      <contour>
        <pt x="316" y="-16" on="1"/>
        <pt x="287" y="-16" on="0"/>
        <pt x="252" y="22" on="0"/>
        <pt x="255" y="54" on="1"/>
        <pt x="258" y="88" on="0"/>
        <pt x="282" y="108" on="1"/>
        <pt x="302" y="125" on="0"/>
        <pt x="331" y="125" on="1"/>
        <pt x="360" y="125" on="0"/>
        <pt x="394" y="88" on="0"/>
        <pt x="391" y="54" on="1"/>
        <pt x="388" y="21" on="0"/>
        <pt x="344" y="-16" on="0"/>
      </contour>
      <contour>
        <pt x="123" y="-16" on="1"/>
        <pt x="94" y="-16" on="0"/>
        <pt x="58" y="22" on="0"/>
        <pt x="61" y="54" on="1"/>
        <pt x="64" y="88" on="0"/>
        <pt x="88" y="108" on="1"/>
        <pt x="108" y="125" on="0"/>
        <pt x="137" y="125" on="1"/>
        <pt x="166" y="125" on="0"/>
        <pt x="201" y="88" on="0"/>
        <pt x="198" y="54" on="1"/>
        <pt x="195" y="21" on="0"/>
        <pt x="151" y="-16" on="0"/>
      </contour>
    </TTGlyph>
    <TTGlyph name="emdash" xMin="28" yMin="299" xMax="996" yMax="372">
      <contour>
        <pt x="28" y="299" on="1"/>
        <pt x="28" y="372" on="1"/>
        <pt x="996" y="372" on="1"/>
        <pt x="996" y="299" on="1"/>
      </contour>
    </TTGlyph>
    <TTGlyph name="endash" xMin="35" yMin="299" xMax="477" yMax="372">
      <contour>
        <pt x="35" y="299" on="1"/>
        <pt x="35" y="372" on="1"/>
        <pt x="477" y="372" on="1"/>
        <pt x="477" y="299" on="1"/>
      </contour>
    </TTGlyph>
    <TTGlyph name="equal" xMin="52" yMin="138" xMax="398" yMax="360">
      <contour>
        <pt x="52" y="294" on="1"/>
        <pt x="52" y="360" on="1"/>
        <pt x="398" y="360" on="1"/>
        <pt x="398" y="294" on="1"/>
      </contour>
      <contour>
        <pt x="52" y="138" on="1"/>
        <pt x="52" y="205" on="1"/>
        <pt x="398" y="205" on="1"/>
        <pt x="398" y="138" on="1"/>
      </contour>
    </TTGlyph>
    <TTGlyph name="eth" xMin="18" yMin="-17" xMax="581" yMax="749">
      <contour>
        <pt x="438" y="367" on="1"/>
        <pt x="388" y="451" on="0"/>
        <pt x="293" y="451" on="1"/>
        <pt x="220" y="451" on="0"/>
        <pt x="122" y="352" on="0"/>
        <pt x="112" y="262" on="1"/>
        <pt x="110" y="246" on="0"/>
        <pt x="110" y="230" on="1"/>
        <pt x="110" y="158" on="0"/>
        <pt x="143" y="113" on="1"/>
        <pt x="179" y="64" on="0"/>
        <pt x="242" y="63" on="1"/>
        <pt x="324" y="63" on="0"/>
        <pt x="377" y="124" on="1"/>
        <pt x="427" y="179" on="0"/>
        <pt x="436" y="268" on="1"/>
        <pt x="441" y="322" on="0"/>
      </contour>
      <contour>
        <pt x="245" y="628" on="1"/>
        <pt x="341" y="628" on="1"/>
        <pt x="300" y="683" on="0"/>
        <pt x="280" y="702" on="1"/>
        <pt x="353" y="749" on="1"/>
        <pt x="400" y="698" on="0"/>
        <pt x="441" y="628" on="1"/>
        <pt x="581" y="628" on="1"/>
        <pt x="572" y="557" on="1"/>
        <pt x="476" y="557" on="1"/>
        <pt x="527" y="440" on="0"/>
        <pt x="527" y="345" on="1"/>
        <pt x="527" y="329" on="0"/>
        <pt x="526" y="313" on="1"/>
        <pt x="508" y="162" on="0"/>
        <pt x="439" y="79" on="1"/>
        <pt x="360" y="-17" on="0"/>
        <pt x="222" y="-17" on="1"/>
        <pt x="125" y="-17" on="0"/>
        <pt x="69" y="55" on="1"/>
        <pt x="19" y="121" on="0"/>
        <pt x="18" y="216" on="1"/>
        <pt x="18" y="232" on="0"/>
        <pt x="20" y="249" on="1"/>
        <pt x="34" y="388" on="0"/>
        <pt x="119" y="459" on="1"/>
        <pt x="192" y="520" on="0"/>
        <pt x="301" y="520" on="1"/>
        <pt x="380" y="520" on="0"/>
        <pt x="419" y="475" on="1"/>
        <pt x="412" y="505" on="0"/>
        <pt x="384" y="557" on="1"/>
        <pt x="238" y="557" on="1"/>
      </contour>
    </TTGlyph>
    <TTGlyph name="exclam" xMin="26" yMin="-13" xMax="204" yMax="723">
      <contour>
        <pt x="148" y="197" on="1"/>
        <pt x="61" y="197" on="1"/>
        <pt x="117" y="723" on="1"/>
        <pt x="204" y="723" on="1"/>
      </contour>
      <contour>
        <pt x="77" y="-13" on="1"/>
        <pt x="53" y="-13" on="0"/>
        <pt x="23" y="20" on="0"/>
        <pt x="26" y="45" on="1"/>
        <pt x="28" y="70" on="0"/>
        <pt x="66" y="104" on="0"/>
        <pt x="89" y="104" on="1"/>
        <pt x="115" y="104" on="0"/>
        <pt x="145" y="70" on="0"/>
        <pt x="143" y="45" on="1"/>
        <pt x="140" y="20" on="0"/>
        <pt x="103" y="-13" on="0"/>
      </contour>
    </TTGlyph>
    <TTGlyph name="exclamdown" xMin="26" yMin="-105" xMax="214" yMax="723">
      <contour>
        <pt x="91" y="513" on="1"/>
        <pt x="177" y="513" on="1"/>
        <pt x="112" y="-105" on="1"/>
        <pt x="26" y="-105" on="1"/>
      </contour>
      <contour>
        <pt x="161" y="723" on="1"/>
        <pt x="187" y="723" on="0"/>
        <pt x="216" y="689" on="0"/>
        <pt x="214" y="665" on="1"/>
        <pt x="211" y="640" on="0"/>
        <pt x="173" y="605" on="0"/>
        <pt x="148" y="605" on="1"/>
        <pt x="123" y="605" on="0"/>
        <pt x="93" y="640" on="0"/>
        <pt x="96" y="665" on="1"/>
        <pt x="98" y="690" on="0"/>
        <pt x="136" y="723" on="0"/>
      </contour>
    </TTGlyph>
    <TTGlyph name="f" xMin="25" yMin="-176" xMax="419" yMax="764">
      <contour>
        <pt x="374" y="667" on="1"/>
        <pt x="330" y="698" on="0"/>
        <pt x="290" y="698" on="1"/>
        <pt x="254" y="699" on="0"/>
        <pt x="229" y="667" on="1"/>
        <pt x="201" y="632" on="0"/>
        <pt x="197" y="571" on="1"/>
        <pt x="197" y="571" on="0"/>
        <pt x="189" y="507" on="1"/>
        <pt x="332" y="507" on="1"/>
        <pt x="325" y="440" on="1"/>
        <pt x="182" y="440" on="1"/>
        <pt x="114" y="-176" on="1"/>
        <pt x="36" y="-176" on="1"/>
        <pt x="104" y="440" on="1"/>
        <pt x="25" y="440" on="1"/>
        <pt x="32" y="507" on="1"/>
        <pt x="112" y="507" on="1"/>
        <pt x="119" y="574" on="1"/>
        <pt x="126" y="645" on="0"/>
        <pt x="161" y="695" on="1"/>
        <pt x="209" y="764" on="0"/>
        <pt x="296" y="764" on="1"/>
        <pt x="341" y="764" on="0"/>
        <pt x="365" y="754" on="1"/>
        <pt x="372" y="751" on="0"/>
        <pt x="419" y="719" on="1"/>
      </contour>
    </TTGlyph>
    <TTGlyph name="fi" xMin="25" yMin="-176" xMax="455" yMax="764">
      <contour>
        <pt x="318" y="0" on="1"/>
        <pt x="372" y="501" on="1"/>
        <pt x="455" y="501" on="1"/>
        <pt x="401" y="0" on="1"/>
      </contour>
      <contour>
        <pt x="374" y="667" on="1"/>
        <pt x="330" y="698" on="0"/>
        <pt x="290" y="698" on="1"/>
        <pt x="254" y="699" on="0"/>
        <pt x="229" y="667" on="1"/>
        <pt x="201" y="632" on="0"/>
        <pt x="197" y="571" on="1"/>
        <pt x="197" y="571" on="0"/>
        <pt x="189" y="507" on="1"/>
        <pt x="332" y="507" on="1"/>
        <pt x="325" y="440" on="1"/>
        <pt x="182" y="440" on="1"/>
        <pt x="114" y="-176" on="1"/>
        <pt x="36" y="-176" on="1"/>
        <pt x="104" y="440" on="1"/>
        <pt x="25" y="440" on="1"/>
        <pt x="32" y="507" on="1"/>
        <pt x="112" y="507" on="1"/>
        <pt x="119" y="574" on="1"/>
        <pt x="126" y="645" on="0"/>
        <pt x="161" y="695" on="1"/>
        <pt x="209" y="764" on="0"/>
        <pt x="296" y="764" on="1"/>
        <pt x="341" y="764" on="0"/>
        <pt x="365" y="754" on="1"/>
        <pt x="372" y="751" on="0"/>
        <pt x="419" y="719" on="1"/>
      </contour>
    </TTGlyph>
    <TTGlyph name="five" xMin="28" yMin="-35" xMax="503" yMax="653">
      <contour>
        <pt x="227" y="-35" on="1"/>
        <pt x="171" y="-35" on="0"/>
        <pt x="49" y="31" on="0"/>
        <pt x="28" y="72" on="1"/>
        <pt x="67" y="127" on="1"/>
        <pt x="96" y="89" on="0"/>
        <pt x="143" y="60" on="1"/>
        <pt x="196" y="27" on="0"/>
        <pt x="243" y="28" on="1"/>
        <pt x="311" y="28" on="0"/>
        <pt x="411" y="122" on="0"/>
        <pt x="417" y="185" on="1"/>
        <pt x="424" y="253" on="0"/>
        <pt x="345" y="349" on="0"/>
        <pt x="290" y="349" on="1"/>
        <pt x="258" y="349" on="0"/>
        <pt x="219" y="331" on="1"/>
        <pt x="172" y="307" on="0"/>
        <pt x="153" y="269" on="1"/>
        <pt x="91" y="302" on="1"/>
        <pt x="129" y="653" on="1"/>
        <pt x="490" y="653" on="1"/>
        <pt x="481" y="570" on="1"/>
        <pt x="197" y="570" on="1"/>
        <pt x="173" y="352" on="1"/>
        <pt x="213" y="418" on="0"/>
        <pt x="306" y="419" on="1"/>
        <pt x="395" y="420" on="0"/>
        <pt x="503" y="314" on="0"/>
        <pt x="503" y="223" on="1"/>
        <pt x="503" y="108" on="0"/>
        <pt x="345" y="-35" on="0"/>
      </contour>
    </TTGlyph>
    <TTGlyph name="fl" xMin="26" yMin="-176" xMax="493" yMax="735">
      <contour>
        <pt x="417" y="1" on="1"/>
        <pt x="334" y="1" on="1"/>
        <pt x="399" y="616" on="1"/>
        <pt x="387" y="630" on="0"/>
        <pt x="360" y="654" on="1"/>
        <pt x="338" y="666" on="0"/>
        <pt x="288" y="668" on="1"/>
        <pt x="253" y="669" on="0"/>
        <pt x="201" y="601" on="0"/>
        <pt x="195" y="541" on="1"/>
        <pt x="192" y="508" on="0"/>
        <pt x="191" y="503" on="1"/>
        <pt x="333" y="503" on="1"/>
        <pt x="326" y="435" on="1"/>
        <pt x="186" y="435" on="1"/>
        <pt x="118" y="-176" on="1"/>
        <pt x="38" y="-176" on="1"/>
        <pt x="106" y="434" on="1"/>
        <pt x="26" y="434" on="1"/>
        <pt x="33" y="502" on="1"/>
        <pt x="114" y="502" on="1"/>
        <pt x="118" y="544" on="1"/>
        <pt x="126" y="615" on="0"/>
        <pt x="160" y="665" on="1"/>
        <pt x="208" y="736" on="0"/>
        <pt x="294" y="735" on="1"/>
        <pt x="333" y="735" on="0"/>
        <pt x="368" y="724" on="0"/>
        <pt x="401" y="702" on="1"/>
        <pt x="410" y="715" on="1"/>
        <pt x="493" y="715" on="1"/>
      </contour>
    </TTGlyph>
    <TTGlyph name="florin" xMin="9" yMin="-126" xMax="452" yMax="728">
      <contour>
        <pt x="402" y="625" on="1"/>
        <pt x="357" y="657" on="0"/>
        <pt x="317" y="656" on="1"/>
        <pt x="240" y="656" on="0"/>
        <pt x="220" y="543" on="1"/>
        <pt x="219" y="539" on="1"/>
        <pt x="213" y="508" on="0"/>
        <pt x="213" y="501" on="1"/>
        <pt x="353" y="501" on="1"/>
        <pt x="340" y="434" on="1"/>
        <pt x="202" y="434" on="1"/>
        <pt x="89" y="-125" on="1"/>
        <pt x="9" y="-126" on="1"/>
        <pt x="121" y="432" on="1"/>
        <pt x="39" y="431" on="1"/>
        <pt x="52" y="499" on="1"/>
        <pt x="133" y="500" on="1"/>
        <pt x="141" y="542" on="1"/>
        <pt x="155" y="613" on="0"/>
        <pt x="193" y="660" on="1"/>
        <pt x="245" y="727" on="0"/>
        <pt x="331" y="728" on="1"/>
        <pt x="376" y="728" on="0"/>
        <pt x="399" y="718" on="1"/>
        <pt x="407" y="714" on="0"/>
        <pt x="452" y="682" on="1"/>
      </contour>
    </TTGlyph>
    <TTGlyph name="four" xMin="18" yMin="-29" xMax="503" yMax="665">
      <contour>
        <pt x="357" y="519" on="1"/>
        <pt x="124" y="221" on="1"/>
        <pt x="326" y="221" on="1"/>
      </contour>
      <contour>
        <pt x="387" y="143" on="1"/>
        <pt x="369" y="-29" on="1"/>
        <pt x="298" y="-29" on="1"/>
        <pt x="317" y="143" on="1"/>
        <pt x="18" y="143" on="1"/>
        <pt x="27" y="221" on="1"/>
        <pt x="381" y="665" on="1"/>
        <pt x="442" y="665" on="1"/>
        <pt x="395" y="221" on="1"/>
        <pt x="503" y="221" on="1"/>
        <pt x="495" y="143" on="1"/>
      </contour>
    </TTGlyph>
    <TTGlyph name="fraction" xMin="41" yMin="68" xMax="546" yMax="602">
      <contour>
        <pt x="116" y="68" on="1"/>
        <pt x="41" y="119" on="1"/>
        <pt x="472" y="602" on="1"/>
        <pt x="546" y="551" on="1"/>
      </contour>
    </TTGlyph>
    <TTGlyph name="g" xMin="12" yMin="-255" xMax="494" yMax="517">
      <contour>
        <pt x="446" y="63" on="1"/>
        <pt x="430" y="-96" on="0"/>
        <pt x="393" y="-159" on="1"/>
        <pt x="338" y="-255" on="0"/>
        <pt x="203" y="-255" on="1"/>
        <pt x="85" y="-255" on="0"/>
        <pt x="12" y="-159" on="1"/>
        <pt x="61" y="-101" on="1"/>
        <pt x="117" y="-183" on="0"/>
        <pt x="219" y="-183" on="1"/>
        <pt x="294" y="-183" on="0"/>
        <pt x="326" y="-115" on="1"/>
        <pt x="341" y="-83" on="0"/>
        <pt x="352" y="0" on="1"/>
        <pt x="367" y="101" on="1"/>
        <pt x="312" y="-11" on="0"/>
        <pt x="239" y="-10" on="1"/>
        <pt x="148" y="-10" on="0"/>
        <pt x="95" y="52" on="1"/>
        <pt x="47" y="109" on="0"/>
        <pt x="47" y="200" on="1"/>
        <pt x="47" y="227" on="0"/>
        <pt x="52" y="254" on="1"/>
        <pt x="69" y="355" on="0"/>
        <pt x="124" y="425" on="1"/>
        <pt x="197" y="517" on="0"/>
        <pt x="314" y="517" on="1"/>
        <pt x="363" y="517" on="0"/>
        <pt x="415" y="512" on="0"/>
        <pt x="444" y="512" on="1"/>
        <pt x="494" y="512" on="1"/>
      </contour>
      <contour>
        <pt x="406" y="444" on="1"/>
        <pt x="360" y="452" on="0"/>
        <pt x="314" y="453" on="1"/>
        <pt x="226" y="452" on="0"/>
        <pt x="177" y="373" on="1"/>
        <pt x="135" y="306" on="0"/>
        <pt x="135" y="213" on="1"/>
        <pt x="135" y="152" on="0"/>
        <pt x="161" y="110" on="1"/>
        <pt x="192" y="62" on="0"/>
        <pt x="246" y="61" on="1"/>
        <pt x="288" y="61" on="0"/>
        <pt x="334" y="118" on="1"/>
        <pt x="372" y="165" on="0"/>
        <pt x="378" y="221" on="0"/>
      </contour>
    </TTGlyph>
    <TTGlyph name="germandbls" xMin="16" yMin="-15" xMax="493" yMax="732">
      <contour>
        <pt x="302" y="-15" on="1"/>
        <pt x="239" y="-15" on="0"/>
        <pt x="200" y="-1" on="1"/>
        <pt x="156" y="16" on="0"/>
        <pt x="122" y="59" on="1"/>
        <pt x="172" y="126" on="1"/>
        <pt x="198" y="84" on="0"/>
        <pt x="229" y="71" on="1"/>
        <pt x="254" y="61" on="0"/>
        <pt x="305" y="60" on="1"/>
        <pt x="344" y="60" on="0"/>
        <pt x="404" y="108" on="0"/>
        <pt x="409" y="141" on="1"/>
        <pt x="414" y="194" on="0"/>
        <pt x="337" y="221" on="1"/>
        <pt x="297" y="234" on="0"/>
        <pt x="257" y="247" on="1"/>
        <pt x="211" y="264" on="0"/>
        <pt x="190" y="288" on="1"/>
        <pt x="163" y="319" on="0"/>
        <pt x="169" y="369" on="1"/>
        <pt x="178" y="456" on="0"/>
        <pt x="237" y="496" on="1"/>
        <pt x="281" y="527" on="0"/>
        <pt x="344" y="526" on="1"/>
        <pt x="364" y="526" on="0"/>
        <pt x="384" y="523" on="1"/>
        <pt x="392" y="533" on="0"/>
        <pt x="400" y="551" on="1"/>
        <pt x="400" y="558" on="0"/>
        <pt x="401" y="578" on="1"/>
        <pt x="405" y="616" on="0"/>
        <pt x="333" y="665" on="0"/>
        <pt x="288" y="665" on="1"/>
        <pt x="234" y="665" on="0"/>
        <pt x="199" y="635" on="1"/>
        <pt x="160" y="602" on="0"/>
        <pt x="154" y="542" on="1"/>
        <pt x="96" y="0" on="1"/>
        <pt x="16" y="0" on="1"/>
        <pt x="74" y="542" on="1"/>
        <pt x="94" y="732" on="0"/>
        <pt x="300" y="732" on="1"/>
        <pt x="385" y="732" on="0"/>
        <pt x="482" y="647" on="0"/>
        <pt x="482" y="573" on="1"/>
        <pt x="482" y="553" on="0"/>
        <pt x="478" y="534" on="1"/>
        <pt x="471" y="493" on="0"/>
        <pt x="432" y="438" on="1"/>
        <pt x="387" y="454" on="0"/>
        <pt x="336" y="458" on="1"/>
        <pt x="303" y="460" on="0"/>
        <pt x="252" y="417" on="0"/>
        <pt x="249" y="384" on="1"/>
        <pt x="246" y="359" on="0"/>
        <pt x="272" y="342" on="1"/>
        <pt x="290" y="331" on="0"/>
        <pt x="340" y="314" on="1"/>
        <pt x="407" y="292" on="0"/>
        <pt x="419" y="288" on="1"/>
        <pt x="464" y="268" on="0"/>
        <pt x="480" y="239" on="1"/>
        <pt x="498" y="204" on="0"/>
        <pt x="493" y="147" on="1"/>
        <pt x="486" y="80" on="0"/>
        <pt x="371" y="-15" on="0"/>
      </contour>
    </TTGlyph>
    <TTGlyph name="grave" xMin="59" yMin="569" xMax="319" yMax="728">
      <contour>
        <pt x="264" y="569" on="1"/>
        <pt x="59" y="662" on="1"/>
        <pt x="115" y="728" on="1"/>
        <pt x="319" y="630" on="1"/>
      </contour>
    </TTGlyph>
    <TTGlyph name="greater" xMin="25" yMin="43" xMax="324" yMax="542">
      <contour>
        <pt x="101" y="43" on="1"/>
        <pt x="26" y="46" on="1"/>
        <pt x="217" y="292" on="1"/>
        <pt x="25" y="539" on="1"/>
        <pt x="101" y="542" on="1"/>
        <pt x="324" y="296" on="1"/>
      </contour>
    </TTGlyph>
    <TTGlyph name="greaterequal" xMin="20" yMin="35" xMax="250" yMax="459">
      <contour>
        <pt x="92" y="122" on="1"/>
        <pt x="20" y="125" on="1"/>
        <pt x="154" y="290" on="1"/>
        <pt x="20" y="456" on="1"/>
        <pt x="92" y="459" on="1"/>
        <pt x="250" y="293" on="1"/>
      </contour>
      <contour>
        <pt x="22" y="35" on="1"/>
        <pt x="22" y="76" on="1"/>
        <pt x="248" y="76" on="1"/>
        <pt x="248" y="35" on="1"/>
      </contour>
    </TTGlyph>
    <TTGlyph name="guillemotleft" xMin="5" yMin="125" xMax="380" yMax="462">
      <contour>
        <pt x="246" y="293" on="1"/>
        <pt x="380" y="128" on="1"/>
        <pt x="307" y="125" on="1"/>
        <pt x="151" y="296" on="1"/>
        <pt x="307" y="462" on="1"/>
        <pt x="380" y="459" on="1"/>
      </contour>
      <contour>
        <pt x="101" y="293" on="1"/>
        <pt x="234" y="128" on="1"/>
        <pt x="163" y="125" on="1"/>
        <pt x="5" y="296" on="1"/>
        <pt x="163" y="462" on="1"/>
        <pt x="234" y="459" on="1"/>
      </contour>
    </TTGlyph>
    <TTGlyph name="guillemotright" xMin="2" yMin="125" xMax="377" yMax="462">
      <contour>
        <pt x="220" y="125" on="1"/>
        <pt x="147" y="128" on="1"/>
        <pt x="282" y="293" on="1"/>
        <pt x="147" y="459" on="1"/>
        <pt x="220" y="462" on="1"/>
        <pt x="377" y="296" on="1"/>
      </contour>
      <contour>
        <pt x="76" y="125" on="1"/>
        <pt x="2" y="128" on="1"/>
        <pt x="136" y="293" on="1"/>
        <pt x="2" y="459" on="1"/>
        <pt x="76" y="462" on="1"/>
        <pt x="231" y="296" on="1"/>
      </contour>
    </TTGlyph>
    <TTGlyph name="guilsinglleft" xMin="57" yMin="125" xMax="286" yMax="462">
      <contour>
        <pt x="152" y="293" on="1"/>
        <pt x="286" y="128" on="1"/>
        <pt x="213" y="125" on="1"/>
        <pt x="57" y="296" on="1"/>
        <pt x="213" y="462" on="1"/>
        <pt x="286" y="459" on="1"/>
      </contour>
    </TTGlyph>
    <TTGlyph name="guilsinglright" xMin="48" yMin="125" xMax="278" yMax="462">
      <contour>
        <pt x="121" y="125" on="1"/>
        <pt x="48" y="128" on="1"/>
        <pt x="181" y="293" on="1"/>
        <pt x="48" y="459" on="1"/>
        <pt x="121" y="462" on="1"/>
        <pt x="278" y="296" on="1"/>
      </contour>
    </TTGlyph>
    <TTGlyph name="h" xMin="27" yMin="0" xMax="460" yMax="713">
      <contour>
        <pt x="342" y="0" on="1"/>
        <pt x="378" y="333" on="1"/>
        <pt x="379" y="344" on="0"/>
        <pt x="379" y="354" on="1"/>
        <pt x="379" y="404" on="0"/>
        <pt x="351" y="431" on="1"/>
        <pt x="328" y="454" on="0"/>
        <pt x="294" y="454" on="1"/>
        <pt x="248" y="454" on="0"/>
        <pt x="147" y="380" on="0"/>
        <pt x="144" y="348" on="1"/>
        <pt x="108" y="0" on="1"/>
        <pt x="27" y="0" on="1"/>
        <pt x="102" y="713" on="1"/>
        <pt x="183" y="713" on="1"/>
        <pt x="156" y="450" on="1"/>
        <pt x="205" y="492" on="0"/>
        <pt x="270" y="523" on="0"/>
        <pt x="309" y="523" on="1"/>
        <pt x="370" y="523" on="0"/>
        <pt x="414" y="481" on="1"/>
        <pt x="460" y="436" on="0"/>
        <pt x="460" y="368" on="1"/>
        <pt x="460" y="357" on="0"/>
        <pt x="459" y="346" on="1"/>
        <pt x="422" y="0" on="1"/>
      </contour>
    </TTGlyph>
    <TTGlyph name="hungarumlaut" xMin="33" yMin="574" xMax="331" yMax="691">
      <contour>
        <pt x="223" y="574" on="1"/>
        <pt x="159" y="574" on="1"/>
        <pt x="266" y="691" on="1"/>
        <pt x="331" y="691" on="1"/>
      </contour>
      <contour>
        <pt x="97" y="574" on="1"/>
        <pt x="33" y="574" on="1"/>
        <pt x="140" y="691" on="1"/>
        <pt x="205" y="691" on="1"/>
      </contour>
    </TTGlyph>
    <TTGlyph name="hyphen" xMin="51" yMin="273" xMax="338" yMax="369">
      <contour>
        <pt x="51" y="273" on="1"/>
        <pt x="51" y="369" on="1"/>
        <pt x="338" y="369" on="1"/>
        <pt x="338" y="273" on="1"/>
      </contour>
    </TTGlyph>
    <TTGlyph name="i" xMin="34" yMin="0" xMax="207" yMax="728">
      <contour>
        <pt x="146" y="616" on="1"/>
        <pt x="123" y="616" on="0"/>
        <pt x="94" y="648" on="0"/>
        <pt x="97" y="673" on="1"/>
        <pt x="99" y="697" on="0"/>
        <pt x="135" y="728" on="0"/>
        <pt x="159" y="728" on="1"/>
        <pt x="181" y="728" on="0"/>
        <pt x="209" y="696" on="0"/>
        <pt x="207" y="673" on="1"/>
        <pt x="204" y="648" on="0"/>
        <pt x="169" y="616" on="0"/>
      </contour>
      <contour>
        <pt x="34" y="0" on="1"/>
        <pt x="88" y="507" on="1"/>
        <pt x="171" y="507" on="1"/>
        <pt x="117" y="0" on="1"/>
      </contour>
    </TTGlyph>
    <TTGlyph name="iacute" xMin="29" yMin="0" xMax="295" yMax="729">
      <contour>
        <pt x="40" y="0" on="1"/>
        <pt x="94" y="507" on="1"/>
        <pt x="176" y="507" on="1"/>
        <pt x="122" y="0" on="1"/>
      </contour>
      <contour>
        <pt x="69" y="570" on="1"/>
        <pt x="29" y="631" on="1"/>
        <pt x="254" y="729" on="1"/>
        <pt x="295" y="663" on="1"/>
      </contour>
    </TTGlyph>
    <TTGlyph name="icircumflex" xMin="-4" yMin="0" xMax="290" yMax="727">
      <contour>
        <pt x="40" y="0" on="1"/>
        <pt x="94" y="507" on="1"/>
        <pt x="176" y="507" on="1"/>
        <pt x="122" y="0" on="1"/>
      </contour>
      <contour>
        <pt x="146" y="634" on="1"/>
        <pt x="-4" y="539" on="1"/>
        <pt x="4" y="611" on="1"/>
        <pt x="157" y="727" on="1"/>
        <pt x="290" y="611" on="1"/>
        <pt x="282" y="539" on="1"/>
      </contour>
    </TTGlyph>
    <TTGlyph name="idieresis" xMin="-15" yMin="0" xMax="301" yMax="666">
      <contour>
        <pt x="44" y="0" on="1"/>
        <pt x="97" y="507" on="1"/>
        <pt x="179" y="507" on="1"/>
        <pt x="126" y="0" on="1"/>
      </contour>
      <contour>
        <pt x="244" y="559" on="1"/>
        <pt x="219" y="559" on="0"/>
        <pt x="197" y="592" on="0"/>
        <pt x="199" y="612" on="1"/>
        <pt x="201" y="632" on="0"/>
        <pt x="230" y="666" on="0"/>
        <pt x="255" y="666" on="1"/>
        <pt x="279" y="666" on="0"/>
        <pt x="303" y="632" on="0"/>
        <pt x="299" y="592" on="0"/>
        <pt x="269" y="559" on="0"/>
      </contour>
      <contour>
        <pt x="29" y="559" on="1"/>
        <pt x="5" y="559" on="0"/>
        <pt x="-17" y="592" on="0"/>
        <pt x="-15" y="612" on="1"/>
        <pt x="-13" y="632" on="0"/>
        <pt x="16" y="666" on="0"/>
        <pt x="40" y="666" on="1"/>
        <pt x="65" y="666" on="0"/>
        <pt x="88" y="633" on="0"/>
        <pt x="86" y="612" on="1"/>
        <pt x="84" y="592" on="0"/>
        <pt x="54" y="559" on="0"/>
      </contour>
    </TTGlyph>
    <TTGlyph name="igrave" xMin="32" yMin="0" xMax="291" yMax="728">
      <contour>
        <pt x="40" y="0" on="1"/>
        <pt x="94" y="507" on="1"/>
        <pt x="176" y="507" on="1"/>
        <pt x="122" y="0" on="1"/>
      </contour>
      <contour>
        <pt x="234" y="569" on="1"/>
        <pt x="32" y="662" on="1"/>
        <pt x="86" y="728" on="1"/>
        <pt x="291" y="630" on="1"/>
      </contour>
    </TTGlyph>
    <TTGlyph name="infinity" xMin="9" yMin="270" xMax="539" yMax="544">
      <contour>
        <pt x="378" y="270" on="1"/>
        <pt x="302" y="270" on="0"/>
        <pt x="266" y="328" on="1"/>
        <pt x="216" y="271" on="0"/>
        <pt x="141" y="270" on="1"/>
        <pt x="80" y="270" on="0"/>
        <pt x="3" y="351" on="0"/>
        <pt x="9" y="408" on="1"/>
        <pt x="15" y="464" on="0"/>
        <pt x="109" y="544" on="0"/>
        <pt x="170" y="544" on="1"/>
        <pt x="245" y="544" on="0"/>
        <pt x="283" y="487" on="1"/>
        <pt x="332" y="543" on="0"/>
        <pt x="407" y="544" on="1"/>
        <pt x="467" y="544" on="0"/>
        <pt x="545" y="464" on="0"/>
        <pt x="539" y="408" on="1"/>
        <pt x="533" y="352" on="0"/>
        <pt x="438" y="270" on="0"/>
      </contour>
      <contour>
        <pt x="401" y="494" on="1"/>
        <pt x="364" y="494" on="0"/>
        <pt x="306" y="443" on="0"/>
        <pt x="302" y="409" on="1"/>
        <pt x="298" y="373" on="0"/>
        <pt x="346" y="323" on="0"/>
        <pt x="383" y="323" on="1"/>
        <pt x="421" y="323" on="0"/>
        <pt x="478" y="373" on="0"/>
        <pt x="482" y="409" on="1"/>
        <pt x="486" y="445" on="0"/>
        <pt x="439" y="494" on="0"/>
      </contour>
      <contour>
        <pt x="165" y="494" on="1"/>
        <pt x="128" y="494" on="0"/>
        <pt x="70" y="443" on="0"/>
        <pt x="66" y="409" on="1"/>
        <pt x="62" y="369" on="0"/>
        <pt x="111" y="325" on="0"/>
        <pt x="146" y="325" on="1"/>
        <pt x="183" y="325" on="0"/>
        <pt x="242" y="369" on="0"/>
        <pt x="246" y="409" on="1"/>
        <pt x="250" y="445" on="0"/>
        <pt x="203" y="494" on="0"/>
      </contour>
    </TTGlyph>
    <TTGlyph name="integral" xMin="-23" yMin="-143" xMax="370" yMax="730">
      <contour>
        <pt x="323" y="626" on="1"/>
        <pt x="300" y="645" on="0"/>
        <pt x="275" y="645" on="1"/>
        <pt x="232" y="645" on="0"/>
        <pt x="209" y="604" on="1"/>
        <pt x="191" y="570" on="0"/>
        <pt x="190" y="523" on="1"/>
        <pt x="190" y="476" on="0"/>
        <pt x="250" y="183" on="0"/>
        <pt x="250" y="103" on="1"/>
        <pt x="250" y="77" on="0"/>
        <pt x="247" y="54" on="1"/>
        <pt x="227" y="-144" on="0"/>
        <pt x="59" y="-143" on="1"/>
        <pt x="36" y="-143" on="0"/>
        <pt x="-23" y="-124" on="1"/>
        <pt x="6" y="-40" on="1"/>
        <pt x="50" y="-66" on="0"/>
        <pt x="84" y="-59" on="1"/>
        <pt x="141" y="-49" on="0"/>
        <pt x="154" y="71" on="1"/>
        <pt x="159" y="116" on="0"/>
        <pt x="127" y="262" on="1"/>
        <pt x="93" y="420" on="0"/>
        <pt x="93" y="501" on="1"/>
        <pt x="93" y="603" on="0"/>
        <pt x="135" y="662" on="1"/>
        <pt x="184" y="731" on="0"/>
        <pt x="286" y="730" on="1"/>
        <pt x="299" y="730" on="0"/>
        <pt x="357" y="711" on="0"/>
        <pt x="370" y="703" on="1"/>
      </contour>
    </TTGlyph>
    <TTGlyph name="j" xMin="-55" yMin="-223" xMax="233" yMax="729">
      <contour>
        <pt x="172" y="618" on="1"/>
        <pt x="149" y="618" on="0"/>
        <pt x="120" y="650" on="0"/>
        <pt x="123" y="674" on="1"/>
        <pt x="125" y="698" on="0"/>
        <pt x="161" y="729" on="0"/>
        <pt x="183" y="729" on="1"/>
        <pt x="207" y="729" on="0"/>
        <pt x="236" y="697" on="0"/>
        <pt x="233" y="674" on="1"/>
        <pt x="230" y="650" on="0"/>
        <pt x="195" y="618" on="0"/>
      </contour>
      <contour>
        <pt x="20" y="-112" on="1"/>
        <pt x="-12" y="-135" on="0"/>
        <pt x="-55" y="-146" on="1"/>
        <pt x="-31" y="-223" on="1"/>
        <pt x="27" y="-201" on="0"/>
        <pt x="65" y="-176" on="1"/>
        <pt x="125" y="-134" on="0"/>
        <pt x="133" y="-67" on="1"/>
        <pt x="133" y="-67" on="0"/>
        <pt x="150" y="92" on="1"/>
        <pt x="194" y="507" on="1"/>
        <pt x="113" y="507" on="1"/>
        <pt x="57" y="-22" on="1"/>
        <pt x="53" y="-56" on="0"/>
        <pt x="49" y="-71" on="1"/>
        <pt x="39" y="-99" on="0"/>
      </contour>
    </TTGlyph>
    <TTGlyph name="k" xMin="28" yMin="-26" xMax="454" yMax="714">
      <contour>
        <pt x="366" y="-26" on="1"/>
        <pt x="168" y="231" on="1"/>
        <pt x="130" y="197" on="1"/>
        <pt x="109" y="0" on="1"/>
        <pt x="28" y="0" on="1"/>
        <pt x="103" y="714" on="1"/>
        <pt x="184" y="714" on="1"/>
        <pt x="139" y="283" on="1"/>
        <pt x="389" y="534" on="1"/>
        <pt x="454" y="486" on="1"/>
        <pt x="228" y="279" on="1"/>
        <pt x="441" y="18" on="1"/>
      </contour>
    </TTGlyph>
    <TTGlyph name="l" xMin="42" yMin="0" xMax="198" yMax="715">
      <contour>
        <pt x="122" y="0" on="1"/>
        <pt x="42" y="0" on="1"/>
        <pt x="118" y="715" on="1"/>
        <pt x="198" y="715" on="1"/>
      </contour>
    </TTGlyph>
    <TTGlyph name="less" xMin="28" yMin="43" xMax="327" yMax="542">
      <contour>
        <pt x="135" y="292" on="1"/>
        <pt x="327" y="46" on="1"/>
        <pt x="252" y="43" on="1"/>
        <pt x="28" y="296" on="1"/>
        <pt x="251" y="542" on="1"/>
        <pt x="327" y="539" on="1"/>
      </contour>
    </TTGlyph>
    <TTGlyph name="lessequal" xMin="19" yMin="35" xMax="250" yMax="459">
      <contour>
        <pt x="115" y="290" on="1"/>
        <pt x="250" y="125" on="1"/>
        <pt x="176" y="122" on="1"/>
        <pt x="19" y="293" on="1"/>
        <pt x="176" y="459" on="1"/>
        <pt x="250" y="456" on="1"/>
      </contour>
      <contour>
        <pt x="22" y="35" on="1"/>
        <pt x="22" y="76" on="1"/>
        <pt x="248" y="76" on="1"/>
        <pt x="248" y="35" on="1"/>
      </contour>
    </TTGlyph>
    <TTGlyph name="logicalnot" xMin="90" yMin="29" xMax="571" yMax="351">
      <contour>
        <pt x="485" y="29" on="1"/>
        <pt x="485" y="256" on="1"/>
        <pt x="90" y="256" on="1"/>
        <pt x="90" y="351" on="1"/>
        <pt x="571" y="351" on="1"/>
        <pt x="571" y="29" on="1"/>
      </contour>
    </TTGlyph>
    <TTGlyph name="lozenge" xMin="20" yMin="87" xMax="542" yMax="596">
      <contour>
        <pt x="282" y="87" on="1"/>
        <pt x="20" y="341" on="1"/>
        <pt x="282" y="596" on="1"/>
        <pt x="542" y="341" on="1"/>
      </contour>
      <contour>
        <pt x="285" y="497" on="1"/>
        <pt x="125" y="340" on="1"/>
        <pt x="285" y="184" on="1"/>
        <pt x="444" y="340" on="1"/>
      </contour>
    </TTGlyph>
    <TTGlyph name="lslash" xMin="11" yMin="0" xMax="266" yMax="657">
      <contour>
        <pt x="174" y="371" on="1"/>
        <pt x="136" y="0" on="1"/>
        <pt x="46" y="0" on="1"/>
        <pt x="80" y="325" on="1"/>
        <pt x="11" y="292" on="1"/>
        <pt x="20" y="372" on="1"/>
        <pt x="89" y="404" on="1"/>
        <pt x="116" y="657" on="1"/>
        <pt x="206" y="657" on="1"/>
        <pt x="184" y="451" on="1"/>
        <pt x="266" y="490" on="1"/>
        <pt x="258" y="411" on="1"/>
      </contour>
    </TTGlyph>
    <TTGlyph name="m" xMin="37" yMin="0" xMax="740" yMax="524">
      <contour>
        <pt x="622" y="0" on="1"/>
        <pt x="659" y="354" on="1"/>
        <pt x="669" y="453" on="0"/>
        <pt x="580" y="454" on="1"/>
        <pt x="551" y="454" on="0"/>
        <pt x="505" y="421" on="1"/>
        <pt x="449" y="382" on="0"/>
        <pt x="443" y="330" on="1"/>
        <pt x="409" y="0" on="1"/>
        <pt x="329" y="0" on="1"/>
        <pt x="367" y="359" on="1"/>
        <pt x="372" y="406" on="0"/>
        <pt x="348" y="431" on="1"/>
        <pt x="328" y="453" on="0"/>
        <pt x="293" y="453" on="1"/>
        <pt x="251" y="453" on="0"/>
        <pt x="158" y="376" on="0"/>
        <pt x="154" y="339" on="1"/>
        <pt x="118" y="0" on="1"/>
        <pt x="37" y="0" on="1"/>
        <pt x="90" y="507" on="1"/>
        <pt x="171" y="507" on="1"/>
        <pt x="164" y="435" on="1"/>
        <pt x="251" y="519" on="0"/>
        <pt x="316" y="519" on="1"/>
        <pt x="355" y="519" on="0"/>
        <pt x="419" y="468" on="0"/>
        <pt x="432" y="426" on="1"/>
        <pt x="528" y="524" on="0"/>
        <pt x="604" y="524" on="1"/>
        <pt x="670" y="524" on="0"/>
        <pt x="710" y="471" on="1"/>
        <pt x="747" y="421" on="0"/>
        <pt x="740" y="359" on="1"/>
        <pt x="702" y="0" on="1"/>
      </contour>
    </TTGlyph>
    <TTGlyph name="macron" xMin="104" yMin="608" xMax="350" yMax="675">
      <contour>
        <pt x="104" y="608" on="1"/>
        <pt x="111" y="675" on="1"/>
        <pt x="350" y="675" on="1"/>
        <pt x="344" y="608" on="1"/>
      </contour>
    </TTGlyph>
    <TTGlyph name="minus" xMin="53" yMin="292" xMax="457" yMax="356">
      <contour>
        <pt x="53" y="292" on="1"/>
        <pt x="53" y="356" on="1"/>
        <pt x="457" y="356" on="1"/>
        <pt x="457" y="292" on="1"/>
      </contour>
    </TTGlyph>
    <TTGlyph name="mu" xMin="33" yMin="-201" xMax="503" yMax="499">
      <contour>
        <pt x="432" y="-62" on="1"/>
        <pt x="369" y="-23" on="0"/>
        <pt x="364" y="62" on="1"/>
        <pt x="328" y="31" on="0"/>
        <pt x="292" y="0" on="1"/>
        <pt x="262" y="-23" on="0"/>
        <pt x="228" y="-23" on="1"/>
        <pt x="198" y="-23" on="0"/>
        <pt x="172" y="-9" on="1"/>
        <pt x="142" y="5" on="0"/>
        <pt x="132" y="30" on="1"/>
        <pt x="108" y="-201" on="1"/>
        <pt x="33" y="-201" on="1"/>
        <pt x="106" y="498" on="1"/>
        <pt x="181" y="498" on="1"/>
        <pt x="144" y="147" on="1"/>
        <pt x="134" y="48" on="0"/>
        <pt x="253" y="48" on="1"/>
        <pt x="293" y="48" on="0"/>
        <pt x="331" y="85" on="1"/>
        <pt x="368" y="119" on="0"/>
        <pt x="371" y="153" on="1"/>
        <pt x="408" y="499" on="1"/>
        <pt x="489" y="499" on="1"/>
        <pt x="450" y="119" on="1"/>
        <pt x="444" y="70" on="0"/>
        <pt x="457" y="39" on="1"/>
        <pt x="466" y="15" on="0"/>
        <pt x="477" y="7" on="1"/>
        <pt x="495" y="-5" on="0"/>
        <pt x="503" y="-13" on="1"/>
      </contour>
    </TTGlyph>
    <TTGlyph name="n" xMin="37" yMin="0" xMax="470" yMax="523">
      <contour>
        <pt x="352" y="0" on="1"/>
        <pt x="387" y="333" on="1"/>
        <pt x="389" y="344" on="0"/>
        <pt x="389" y="354" on="1"/>
        <pt x="389" y="404" on="0"/>
        <pt x="361" y="431" on="1"/>
        <pt x="338" y="454" on="0"/>
        <pt x="304" y="454" on="1"/>
        <pt x="263" y="454" on="0"/>
        <pt x="214" y="421" on="1"/>
        <pt x="159" y="383" on="0"/>
        <pt x="154" y="336" on="1"/>
        <pt x="118" y="0" on="1"/>
        <pt x="37" y="0" on="1"/>
        <pt x="90" y="507" on="1"/>
        <pt x="171" y="507" on="1"/>
        <pt x="165" y="450" on="1"/>
        <pt x="215" y="492" on="0"/>
        <pt x="281" y="523" on="0"/>
        <pt x="321" y="523" on="1"/>
        <pt x="380" y="523" on="0"/>
        <pt x="423" y="481" on="1"/>
        <pt x="470" y="435" on="0"/>
        <pt x="470" y="367" on="1"/>
        <pt x="470" y="357" on="0"/>
        <pt x="469" y="346" on="1"/>
        <pt x="432" y="0" on="1"/>
      </contour>
    </TTGlyph>
    <TTGlyph name="nine" xMin="32" yMin="-37" xMax="529" yMax="666">
      <contour>
        <pt x="297" y="600" on="1"/>
        <pt x="236" y="600" on="0"/>
        <pt x="193" y="547" on="1"/>
        <pt x="155" y="501" on="0"/>
        <pt x="148" y="438" on="1"/>
        <pt x="141" y="377" on="0"/>
        <pt x="172" y="332" on="1"/>
        <pt x="206" y="282" on="0"/>
        <pt x="267" y="282" on="1"/>
        <pt x="343" y="282" on="0"/>
        <pt x="442" y="376" on="0"/>
        <pt x="442" y="451" on="1"/>
        <pt x="442" y="513" on="0"/>
        <pt x="407" y="554" on="1"/>
        <pt x="367" y="600" on="0"/>
      </contour>
      <contour>
        <pt x="228" y="-37" on="1"/>
        <pt x="102" y="-37" on="0"/>
        <pt x="32" y="36" on="1"/>
        <pt x="70" y="98" on="1"/>
        <pt x="139" y="30" on="0"/>
        <pt x="244" y="31" on="1"/>
        <pt x="332" y="31" on="0"/>
        <pt x="387" y="133" on="1"/>
        <pt x="430" y="212" on="0"/>
        <pt x="444" y="328" on="1"/>
        <pt x="401" y="266" on="0"/>
        <pt x="368" y="243" on="1"/>
        <pt x="324" y="213" on="0"/>
        <pt x="257" y="214" on="1"/>
        <pt x="169" y="215" on="0"/>
        <pt x="117" y="272" on="1"/>
        <pt x="68" y="326" on="0"/>
        <pt x="68" y="409" on="1"/>
        <pt x="68" y="517" on="0"/>
        <pt x="131" y="589" on="1"/>
        <pt x="198" y="666" on="0"/>
        <pt x="303" y="666" on="1"/>
        <pt x="394" y="666" on="0"/>
        <pt x="456" y="610" on="1"/>
        <pt x="530" y="544" on="0"/>
        <pt x="529" y="422" on="1"/>
        <pt x="529" y="399" on="0"/>
        <pt x="526" y="375" on="1"/>
        <pt x="509" y="212" on="0"/>
        <pt x="454" y="110" on="1"/>
        <pt x="374" y="-37" on="0"/>
      </contour>
    </TTGlyph>
    <TTGlyph name="notequal" xMin="39" yMin="-15" xMax="409" yMax="547">
      <contour>
        <pt x="137" y="-15" on="1"/>
        <pt x="77" y="6" on="1"/>
        <pt x="136" y="138" on="1"/>
        <pt x="39" y="138" on="1"/>
        <pt x="46" y="205" on="1"/>
        <pt x="166" y="205" on="1"/>
        <pt x="206" y="294" on="1"/>
        <pt x="55" y="294" on="1"/>
        <pt x="62" y="360" on="1"/>
        <pt x="237" y="360" on="1"/>
        <pt x="321" y="547" on="1"/>
        <pt x="381" y="525" on="1"/>
        <pt x="307" y="360" on="1"/>
        <pt x="409" y="360" on="1"/>
        <pt x="401" y="294" on="1"/>
        <pt x="276" y="294" on="1"/>
        <pt x="237" y="205" on="1"/>
        <pt x="392" y="205" on="1"/>
        <pt x="385" y="138" on="1"/>
        <pt x="207" y="138" on="1"/>
      </contour>
    </TTGlyph>
    <TTGlyph name="ntilde" xMin="33" yMin="0" xMax="467" yMax="701">
      <contour>
        <pt x="348" y="0" on="1"/>
        <pt x="383" y="333" on="1"/>
        <pt x="384" y="344" on="0"/>
        <pt x="384" y="354" on="1"/>
        <pt x="384" y="404" on="0"/>
        <pt x="357" y="431" on="1"/>
        <pt x="333" y="454" on="0"/>
        <pt x="300" y="454" on="1"/>
        <pt x="258" y="454" on="0"/>
        <pt x="209" y="421" on="1"/>
        <pt x="154" y="383" on="0"/>
        <pt x="148" y="336" on="1"/>
        <pt x="114" y="0" on="1"/>
        <pt x="33" y="0" on="1"/>
        <pt x="86" y="507" on="1"/>
        <pt x="167" y="507" on="1"/>
        <pt x="161" y="450" on="1"/>
        <pt x="211" y="492" on="0"/>
        <pt x="276" y="523" on="0"/>
        <pt x="316" y="523" on="1"/>
        <pt x="375" y="523" on="0"/>
        <pt x="420" y="481" on="1"/>
        <pt x="467" y="435" on="0"/>
        <pt x="467" y="367" on="1"/>
        <pt x="467" y="357" on="0"/>
        <pt x="466" y="346" on="1"/>
        <pt x="429" y="0" on="1"/>
      </contour>
      <contour>
        <pt x="364" y="562" on="1"/>
        <pt x="335" y="562" on="0"/>
        <pt x="248" y="633" on="0"/>
        <pt x="231" y="633" on="1"/>
        <pt x="191" y="633" on="0"/>
        <pt x="156" y="590" on="1"/>
        <pt x="135" y="650" on="1"/>
        <pt x="151" y="672" on="0"/>
        <pt x="184" y="686" on="1"/>
        <pt x="214" y="700" on="0"/>
        <pt x="239" y="701" on="1"/>
        <pt x="268" y="702" on="0"/>
        <pt x="348" y="632" on="0"/>
        <pt x="369" y="632" on="1"/>
        <pt x="393" y="632" on="0"/>
        <pt x="423" y="657" on="1"/>
        <pt x="442" y="596" on="1"/>
        <pt x="431" y="585" on="0"/>
        <pt x="376" y="562" on="0"/>
      </contour>
    </TTGlyph>
    <TTGlyph name="numbersign" xMin="59" yMin="310" xMax="469" yMax="696">
      <contour>
        <pt x="463" y="573" on="1"/>
        <pt x="380" y="564" on="1"/>
        <pt x="372" y="484" on="1"/>
        <pt x="454" y="493" on="1"/>
        <pt x="447" y="439" on="1"/>
        <pt x="366" y="431" on="1"/>
        <pt x="354" y="332" on="1"/>
        <pt x="296" y="326" on="1"/>
        <pt x="307" y="425" on="1"/>
        <pt x="224" y="416" on="1"/>
        <pt x="213" y="316" on="1"/>
        <pt x="154" y="310" on="1"/>
        <pt x="165" y="410" on="1"/>
        <pt x="59" y="398" on="1"/>
        <pt x="66" y="452" on="1"/>
        <pt x="171" y="463" on="1"/>
        <pt x="179" y="544" on="1"/>
        <pt x="75" y="532" on="1"/>
        <pt x="81" y="586" on="1"/>
        <pt x="186" y="597" on="1"/>
        <pt x="195" y="674" on="1"/>
        <pt x="253" y="680" on="1"/>
        <pt x="244" y="603" on="1"/>
        <pt x="328" y="611" on="1"/>
        <pt x="336" y="688" on="1"/>
        <pt x="396" y="696" on="1"/>
        <pt x="386" y="617" on="1"/>
        <pt x="469" y="627" on="1"/>
      </contour>
      <contour>
        <pt x="239" y="550" on="1"/>
        <pt x="229" y="469" on="1"/>
        <pt x="312" y="478" on="1"/>
        <pt x="322" y="558" on="1"/>
      </contour>
    </TTGlyph>
    <TTGlyph name="o" xMin="38" yMin="-11" xMax="521" yMax="524">
      <contour>
        <pt x="253" y="-11" on="1"/>
        <pt x="132" y="-11" on="0"/>
        <pt x="78" y="70" on="1"/>
        <pt x="38" y="127" on="0"/>
        <pt x="38" y="218" on="1"/>
        <pt x="38" y="238" on="0"/>
        <pt x="40" y="258" on="1"/>
        <pt x="54" y="390" on="0"/>
        <pt x="144" y="464" on="1"/>
        <pt x="219" y="524" on="0"/>
        <pt x="311" y="524" on="1"/>
        <pt x="394" y="524" on="0"/>
        <pt x="453" y="472" on="1"/>
        <pt x="522" y="411" on="0"/>
        <pt x="521" y="298" on="1"/>
        <pt x="521" y="279" on="0"/>
        <pt x="519" y="258" on="1"/>
        <pt x="510" y="167" on="0"/>
        <pt x="455" y="91" on="1"/>
        <pt x="379" y="-11" on="0"/>
      </contour>
      <contour>
        <pt x="309" y="456" on="1"/>
        <pt x="219" y="456" on="0"/>
        <pt x="169" y="378" on="1"/>
        <pt x="126" y="311" on="0"/>
        <pt x="126" y="218" on="1"/>
        <pt x="126" y="147" on="0"/>
        <pt x="156" y="104" on="1"/>
        <pt x="191" y="55" on="0"/>
        <pt x="256" y="55" on="1"/>
        <pt x="343" y="55" on="0"/>
        <pt x="392" y="134" on="1"/>
        <pt x="433" y="201" on="0"/>
        <pt x="433" y="293" on="1"/>
        <pt x="433" y="364" on="0"/>
        <pt x="404" y="407" on="1"/>
        <pt x="371" y="456" on="0"/>
      </contour>
    </TTGlyph>
    <TTGlyph name="oacute" xMin="33" yMin="-11" xMax="517" yMax="729">
      <contour>
        <pt x="248" y="-11" on="1"/>
        <pt x="126" y="-11" on="0"/>
        <pt x="72" y="70" on="1"/>
        <pt x="33" y="128" on="0"/>
        <pt x="33" y="219" on="1"/>
        <pt x="33" y="238" on="0"/>
        <pt x="35" y="258" on="1"/>
        <pt x="48" y="390" on="0"/>
        <pt x="139" y="464" on="1"/>
        <pt x="214" y="524" on="0"/>
        <pt x="306" y="524" on="1"/>
        <pt x="388" y="524" on="0"/>
        <pt x="447" y="472" on="1"/>
        <pt x="517" y="411" on="0"/>
        <pt x="517" y="298" on="1"/>
        <pt x="517" y="279" on="0"/>
        <pt x="515" y="258" on="1"/>
        <pt x="505" y="167" on="0"/>
        <pt x="450" y="91" on="1"/>
        <pt x="374" y="-11" on="0"/>
      </contour>
      <contour>
        <pt x="303" y="456" on="1"/>
        <pt x="214" y="456" on="0"/>
        <pt x="163" y="378" on="1"/>
        <pt x="120" y="311" on="0"/>
        <pt x="120" y="218" on="1"/>
        <pt x="120" y="147" on="0"/>
        <pt x="151" y="104" on="1"/>
        <pt x="185" y="55" on="0"/>
        <pt x="251" y="55" on="1"/>
        <pt x="337" y="55" on="0"/>
        <pt x="386" y="134" on="1"/>
        <pt x="427" y="201" on="0"/>
        <pt x="427" y="293" on="1"/>
        <pt x="427" y="364" on="0"/>
        <pt x="398" y="407" on="1"/>
        <pt x="365" y="456" on="0"/>
      </contour>
      <contour>
        <pt x="253" y="570" on="1"/>
        <pt x="211" y="631" on="1"/>
        <pt x="436" y="729" on="1"/>
        <pt x="477" y="663" on="1"/>
      </contour>
    </TTGlyph>
    <TTGlyph name="ocircumflex" xMin="33" yMin="-11" xMax="517" yMax="727">
      <contour>
        <pt x="248" y="-11" on="1"/>
        <pt x="126" y="-11" on="0"/>
        <pt x="72" y="70" on="1"/>
        <pt x="33" y="128" on="0"/>
        <pt x="33" y="219" on="1"/>
        <pt x="33" y="238" on="0"/>
        <pt x="35" y="258" on="1"/>
        <pt x="48" y="390" on="0"/>
        <pt x="139" y="464" on="1"/>
        <pt x="214" y="524" on="0"/>
        <pt x="306" y="524" on="1"/>
        <pt x="389" y="524" on="0"/>
        <pt x="447" y="472" on="1"/>
        <pt x="517" y="411" on="0"/>
        <pt x="517" y="298" on="1"/>
        <pt x="517" y="279" on="0"/>
        <pt x="515" y="258" on="1"/>
        <pt x="505" y="167" on="0"/>
        <pt x="450" y="91" on="1"/>
        <pt x="374" y="-11" on="0"/>
      </contour>
      <contour>
        <pt x="303" y="456" on="1"/>
        <pt x="214" y="456" on="0"/>
        <pt x="163" y="378" on="1"/>
        <pt x="120" y="311" on="0"/>
        <pt x="120" y="218" on="1"/>
        <pt x="120" y="147" on="0"/>
        <pt x="151" y="104" on="1"/>
        <pt x="185" y="55" on="0"/>
        <pt x="251" y="55" on="1"/>
        <pt x="337" y="55" on="0"/>
        <pt x="386" y="134" on="1"/>
        <pt x="427" y="201" on="0"/>
        <pt x="427" y="293" on="1"/>
        <pt x="427" y="364" on="0"/>
        <pt x="398" y="407" on="1"/>
        <pt x="366" y="456" on="0"/>
      </contour>
      <contour>
        <pt x="319" y="634" on="1"/>
        <pt x="169" y="539" on="1"/>
        <pt x="176" y="611" on="1"/>
        <pt x="329" y="727" on="1"/>
        <pt x="462" y="611" on="1"/>
        <pt x="455" y="539" on="1"/>
      </contour>
    </TTGlyph>
    <TTGlyph name="odieresis" xMin="36" yMin="-11" xMax="520" yMax="666">
      <contour>
        <pt x="251" y="-11" on="1"/>
        <pt x="130" y="-11" on="0"/>
        <pt x="75" y="70" on="1"/>
        <pt x="36" y="128" on="0"/>
        <pt x="36" y="219" on="1"/>
        <pt x="36" y="238" on="0"/>
        <pt x="38" y="258" on="1"/>
        <pt x="51" y="390" on="0"/>
        <pt x="142" y="464" on="1"/>
        <pt x="217" y="524" on="0"/>
        <pt x="309" y="524" on="1"/>
        <pt x="392" y="524" on="0"/>
        <pt x="451" y="472" on="1"/>
        <pt x="521" y="411" on="0"/>
        <pt x="520" y="298" on="1"/>
        <pt x="520" y="279" on="0"/>
        <pt x="518" y="258" on="1"/>
        <pt x="508" y="167" on="0"/>
        <pt x="453" y="91" on="1"/>
        <pt x="377" y="-11" on="0"/>
      </contour>
      <contour>
        <pt x="306" y="456" on="1"/>
        <pt x="217" y="456" on="0"/>
        <pt x="167" y="378" on="1"/>
        <pt x="123" y="311" on="0"/>
        <pt x="123" y="218" on="1"/>
        <pt x="123" y="147" on="0"/>
        <pt x="154" y="104" on="1"/>
        <pt x="188" y="55" on="0"/>
        <pt x="254" y="55" on="1"/>
        <pt x="341" y="55" on="0"/>
        <pt x="389" y="134" on="1"/>
        <pt x="431" y="201" on="0"/>
        <pt x="431" y="293" on="1"/>
        <pt x="431" y="364" on="0"/>
        <pt x="402" y="407" on="1"/>
        <pt x="369" y="456" on="0"/>
      </contour>
      <contour>
        <pt x="420" y="559" on="1"/>
        <pt x="395" y="559" on="0"/>
        <pt x="372" y="592" on="0"/>
        <pt x="375" y="612" on="1"/>
        <pt x="377" y="632" on="0"/>
        <pt x="407" y="666" on="0"/>
        <pt x="455" y="666" on="0"/>
        <pt x="479" y="632" on="0"/>
        <pt x="477" y="612" on="1"/>
        <pt x="474" y="592" on="0"/>
        <pt x="444" y="559" on="0"/>
      </contour>
      <contour>
        <pt x="206" y="559" on="1"/>
        <pt x="181" y="559" on="0"/>
        <pt x="158" y="592" on="0"/>
        <pt x="161" y="612" on="1"/>
        <pt x="163" y="632" on="0"/>
        <pt x="193" y="666" on="0"/>
        <pt x="241" y="666" on="0"/>
        <pt x="264" y="633" on="0"/>
        <pt x="262" y="612" on="1"/>
        <pt x="259" y="592" on="0"/>
        <pt x="246" y="577" on="1"/>
        <pt x="230" y="559" on="0"/>
      </contour>
    </TTGlyph>
    <TTGlyph name="oe" xMin="38" yMin="-12" xMax="925" yMax="524">
      <contour>
        <pt x="309" y="456" on="1"/>
        <pt x="219" y="456" on="0"/>
        <pt x="169" y="378" on="1"/>
        <pt x="126" y="311" on="0"/>
        <pt x="126" y="218" on="1"/>
        <pt x="126" y="147" on="0"/>
        <pt x="156" y="104" on="1"/>
        <pt x="191" y="55" on="0"/>
        <pt x="256" y="55" on="1"/>
        <pt x="343" y="55" on="0"/>
        <pt x="392" y="134" on="1"/>
        <pt x="433" y="201" on="0"/>
        <pt x="433" y="293" on="1"/>
        <pt x="433" y="364" on="0"/>
        <pt x="404" y="407" on="1"/>
        <pt x="371" y="456" on="0"/>
      </contour>
      <contour>
        <pt x="579" y="263" on="1"/>
        <pt x="570" y="176" on="0"/>
        <pt x="590" y="128" on="1"/>
        <pt x="604" y="92" on="0"/>
        <pt x="645" y="73" on="1"/>
        <pt x="677" y="58" on="0"/>
        <pt x="713" y="57" on="1"/>
        <pt x="773" y="57" on="0"/>
        <pt x="854" y="123" on="1"/>
        <pt x="889" y="66" on="1"/>
        <pt x="799" y="-12" on="0"/>
        <pt x="698" y="-12" on="1"/>
        <pt x="518" y="-12" on="0"/>
        <pt x="493" y="157" on="1"/>
        <pt x="418" y="-11" on="0"/>
        <pt x="253" y="-11" on="1"/>
        <pt x="132" y="-11" on="0"/>
        <pt x="78" y="70" on="1"/>
        <pt x="38" y="127" on="0"/>
        <pt x="38" y="218" on="1"/>
        <pt x="38" y="238" on="0"/>
        <pt x="40" y="258" on="1"/>
        <pt x="54" y="390" on="0"/>
        <pt x="144" y="464" on="1"/>
        <pt x="219" y="524" on="0"/>
        <pt x="311" y="524" on="1"/>
        <pt x="381" y="524" on="0"/>
        <pt x="436" y="485" on="1"/>
        <pt x="499" y="440" on="0"/>
        <pt x="516" y="356" on="1"/>
        <pt x="548" y="431" on="0"/>
        <pt x="674" y="519" on="0"/>
        <pt x="759" y="519" on="1"/>
        <pt x="830" y="519" on="0"/>
        <pt x="874" y="477" on="1"/>
        <pt x="924" y="432" on="0"/>
        <pt x="925" y="353" on="1"/>
        <pt x="925" y="340" on="0"/>
        <pt x="923" y="326" on="1"/>
        <pt x="916" y="263" on="1"/>
      </contour>
      <contour>
        <pt x="844" y="340" on="1"/>
        <pt x="855" y="452" on="0"/>
        <pt x="744" y="452" on="1"/>
        <pt x="692" y="452" on="0"/>
        <pt x="660" y="430" on="1"/>
        <pt x="617" y="400" on="0"/>
        <pt x="592" y="328" on="1"/>
        <pt x="842" y="328" on="1"/>
      </contour>
    </TTGlyph>
    <TTGlyph name="ograve" xMin="33" yMin="-11" xMax="517" yMax="728">
      <contour>
        <pt x="248" y="-11" on="1"/>
        <pt x="126" y="-11" on="0"/>
        <pt x="72" y="70" on="1"/>
        <pt x="33" y="128" on="0"/>
        <pt x="33" y="219" on="1"/>
        <pt x="33" y="238" on="0"/>
        <pt x="35" y="258" on="1"/>
        <pt x="48" y="390" on="0"/>
        <pt x="139" y="464" on="1"/>
        <pt x="214" y="524" on="0"/>
        <pt x="306" y="524" on="1"/>
        <pt x="389" y="524" on="0"/>
        <pt x="447" y="472" on="1"/>
        <pt x="517" y="411" on="0"/>
        <pt x="517" y="298" on="1"/>
        <pt x="517" y="279" on="0"/>
        <pt x="515" y="258" on="1"/>
        <pt x="505" y="167" on="0"/>
        <pt x="450" y="91" on="1"/>
        <pt x="374" y="-11" on="0"/>
      </contour>
      <contour>
        <pt x="303" y="456" on="1"/>
        <pt x="214" y="456" on="0"/>
        <pt x="163" y="378" on="1"/>
        <pt x="120" y="311" on="0"/>
        <pt x="120" y="218" on="1"/>
        <pt x="120" y="147" on="0"/>
        <pt x="151" y="104" on="1"/>
        <pt x="185" y="55" on="0"/>
        <pt x="251" y="55" on="1"/>
        <pt x="337" y="55" on="0"/>
        <pt x="386" y="134" on="1"/>
        <pt x="427" y="201" on="0"/>
        <pt x="427" y="293" on="1"/>
        <pt x="427" y="364" on="0"/>
        <pt x="398" y="407" on="1"/>
        <pt x="365" y="456" on="0"/>
      </contour>
      <contour>
        <pt x="419" y="569" on="1"/>
        <pt x="214" y="662" on="1"/>
        <pt x="269" y="728" on="1"/>
        <pt x="474" y="630" on="1"/>
      </contour>
    </TTGlyph>
    <TTGlyph name="one" xMin="105" yMin="0" xMax="345" yMax="652">
      <contour>
        <pt x="275" y="0" on="1"/>
        <pt x="184" y="0" on="1"/>
        <pt x="247" y="591" on="1"/>
        <pt x="105" y="591" on="1"/>
        <pt x="113" y="652" on="1"/>
        <pt x="345" y="652" on="1"/>
      </contour>
    </TTGlyph>
    <TTGlyph name="oslash" xMin="38" yMin="-71" xMax="521" yMax="592">
      <contour>
        <pt x="164" y="94" on="1"/>
        <pt x="311" y="456" on="1"/>
        <pt x="308" y="456" on="1"/>
        <pt x="219" y="456" on="0"/>
        <pt x="169" y="378" on="1"/>
        <pt x="125" y="311" on="0"/>
        <pt x="125" y="218" on="1"/>
        <pt x="125" y="138" on="0"/>
      </contour>
      <contour>
        <pt x="387" y="426" on="1"/>
        <pt x="236" y="56" on="1"/>
        <pt x="242" y="55" on="0"/>
        <pt x="256" y="55" on="1"/>
        <pt x="343" y="55" on="0"/>
        <pt x="391" y="134" on="1"/>
        <pt x="433" y="202" on="0"/>
        <pt x="433" y="293" on="1"/>
        <pt x="433" y="384" on="0"/>
      </contour>
      <contour>
        <pt x="368" y="592" on="1"/>
        <pt x="445" y="567" on="1"/>
        <pt x="417" y="498" on="1"/>
        <pt x="521" y="440" on="0"/>
        <pt x="521" y="299" on="1"/>
        <pt x="521" y="279" on="0"/>
        <pt x="519" y="258" on="1"/>
        <pt x="509" y="167" on="0"/>
        <pt x="454" y="91" on="1"/>
        <pt x="379" y="-11" on="0"/>
        <pt x="253" y="-11" on="1"/>
        <pt x="228" y="-11" on="0"/>
        <pt x="209" y="-8" on="1"/>
        <pt x="183" y="-71" on="1"/>
        <pt x="105" y="-46" on="1"/>
        <pt x="132" y="17" on="1"/>
        <pt x="38" y="73" on="0"/>
        <pt x="38" y="218" on="1"/>
        <pt x="38" y="238" on="0"/>
        <pt x="40" y="258" on="1"/>
        <pt x="53" y="390" on="0"/>
        <pt x="144" y="464" on="1"/>
        <pt x="219" y="524" on="0"/>
        <pt x="310" y="524" on="1"/>
        <pt x="320" y="524" on="0"/>
        <pt x="339" y="522" on="1"/>
      </contour>
    </TTGlyph>
    <TTGlyph name="otilde" xMin="34" yMin="-11" xMax="518" yMax="701">
      <contour>
        <pt x="249" y="-11" on="1"/>
        <pt x="128" y="-11" on="0"/>
        <pt x="74" y="70" on="1"/>
        <pt x="34" y="128" on="0"/>
        <pt x="34" y="219" on="1"/>
        <pt x="34" y="238" on="0"/>
        <pt x="36" y="258" on="1"/>
        <pt x="50" y="390" on="0"/>
        <pt x="140" y="464" on="1"/>
        <pt x="215" y="524" on="0"/>
        <pt x="308" y="524" on="1"/>
        <pt x="390" y="524" on="0"/>
        <pt x="449" y="472" on="1"/>
        <pt x="519" y="411" on="0"/>
        <pt x="518" y="298" on="1"/>
        <pt x="518" y="279" on="0"/>
        <pt x="516" y="258" on="1"/>
        <pt x="507" y="167" on="0"/>
        <pt x="451" y="91" on="1"/>
        <pt x="376" y="-11" on="0"/>
      </contour>
      <contour>
        <pt x="304" y="456" on="1"/>
        <pt x="215" y="456" on="0"/>
        <pt x="165" y="378" on="1"/>
        <pt x="122" y="311" on="0"/>
        <pt x="122" y="218" on="1"/>
        <pt x="122" y="147" on="0"/>
        <pt x="152" y="104" on="1"/>
        <pt x="187" y="55" on="0"/>
        <pt x="252" y="55" on="1"/>
        <pt x="339" y="55" on="0"/>
        <pt x="387" y="134" on="1"/>
        <pt x="429" y="201" on="0"/>
        <pt x="429" y="293" on="1"/>
        <pt x="429" y="364" on="0"/>
        <pt x="400" y="407" on="1"/>
        <pt x="367" y="456" on="0"/>
      </contour>
      <contour>
        <pt x="395" y="562" on="1"/>
        <pt x="367" y="562" on="0"/>
        <pt x="281" y="633" on="0"/>
        <pt x="265" y="633" on="1"/>
        <pt x="225" y="633" on="0"/>
        <pt x="188" y="590" on="1"/>
        <pt x="168" y="650" on="1"/>
        <pt x="184" y="672" on="0"/>
        <pt x="217" y="686" on="1"/>
        <pt x="247" y="700" on="0"/>
        <pt x="272" y="701" on="1"/>
        <pt x="300" y="702" on="0"/>
        <pt x="381" y="632" on="0"/>
        <pt x="401" y="632" on="1"/>
        <pt x="427" y="632" on="0"/>
        <pt x="455" y="657" on="1"/>
        <pt x="475" y="596" on="1"/>
        <pt x="465" y="585" on="0"/>
        <pt x="408" y="562" on="0"/>
      </contour>
    </TTGlyph>
    <TTGlyph name="p" xMin="26" yMin="-202" xMax="506" yMax="524">
      <contour>
        <pt x="246" y="-13" on="1"/>
        <pt x="181" y="-13" on="0"/>
        <pt x="133" y="45" on="1"/>
        <pt x="106" y="-202" on="1"/>
        <pt x="26" y="-202" on="1"/>
        <pt x="101" y="507" on="1"/>
        <pt x="182" y="507" on="1"/>
        <pt x="177" y="459" on="1"/>
        <pt x="252" y="525" on="0"/>
        <pt x="304" y="524" on="1"/>
        <pt x="506" y="524" on="0"/>
        <pt x="506" y="323" on="1"/>
        <pt x="506" y="188" on="0"/>
        <pt x="446" y="95" on="1"/>
        <pt x="376" y="-13" on="0"/>
      </contour>
      <contour>
        <pt x="295" y="456" on="1"/>
        <pt x="258" y="456" on="0"/>
        <pt x="181" y="408" on="0"/>
        <pt x="168" y="373" on="1"/>
        <pt x="139" y="103" on="1"/>
        <pt x="196" y="55" on="0"/>
        <pt x="258" y="55" on="1"/>
        <pt x="324" y="55" on="0"/>
        <pt x="369" y="127" on="1"/>
        <pt x="406" y="186" on="0"/>
        <pt x="413" y="259" on="1"/>
        <pt x="415" y="283" on="0"/>
        <pt x="415" y="303" on="1"/>
        <pt x="415" y="456" on="0"/>
      </contour>
    </TTGlyph>
    <TTGlyph name="paragraph" xMin="51" yMin="0" xMax="447" yMax="657">
      <contour>
        <pt x="447" y="0" on="1"/>
        <pt x="377" y="0" on="1"/>
        <pt x="377" y="657" on="1"/>
        <pt x="447" y="657" on="1"/>
      </contour>
      <contour>
        <pt x="304" y="0" on="1"/>
        <pt x="233" y="0" on="1"/>
        <pt x="233" y="345" on="1"/>
        <pt x="208" y="345" on="1"/>
        <pt x="50" y="345" on="0"/>
        <pt x="51" y="505" on="1"/>
        <pt x="51" y="589" on="0"/>
        <pt x="91" y="625" on="1"/>
        <pt x="128" y="658" on="0"/>
        <pt x="211" y="657" on="1"/>
        <pt x="304" y="657" on="1"/>
      </contour>
    </TTGlyph>
    <TTGlyph name="parenleft" xMin="42" yMin="-141" xMax="290" yMax="802">
      <contour>
        <pt x="128" y="-141" on="1"/>
        <pt x="42" y="40" on="0"/>
        <pt x="42" y="242" on="1"/>
        <pt x="42" y="386" on="0"/>
        <pt x="92" y="536" on="1"/>
        <pt x="141" y="681" on="0"/>
        <pt x="228" y="802" on="1"/>
        <pt x="290" y="771" on="1"/>
        <pt x="157" y="523" on="0"/>
        <pt x="136" y="331" on="1"/>
        <pt x="131" y="286" on="0"/>
        <pt x="131" y="243" on="1"/>
        <pt x="131" y="158" on="0"/>
        <pt x="152" y="66" on="1"/>
        <pt x="162" y="19" on="0"/>
        <pt x="199" y="-111" on="1"/>
      </contour>
    </TTGlyph>
    <TTGlyph name="parenright" xMin="33" yMin="-141" xMax="281" yMax="802">
      <contour>
        <pt x="98" y="-141" on="1"/>
        <pt x="33" y="-111" on="1"/>
        <pt x="113" y="49" on="0"/>
        <pt x="133" y="100" on="1"/>
        <pt x="178" y="212" on="0"/>
        <pt x="190" y="327" on="1"/>
        <pt x="194" y="371" on="0"/>
        <pt x="195" y="415" on="1"/>
        <pt x="195" y="575" on="0"/>
        <pt x="130" y="771" on="1"/>
        <pt x="199" y="802" on="1"/>
        <pt x="281" y="638" on="0"/>
        <pt x="281" y="432" on="1"/>
        <pt x="280" y="125" on="0"/>
      </contour>
    </TTGlyph>
    <TTGlyph name="partialdiff" xMin="32" yMin="-17" xMax="524" yMax="707">
      <contour>
        <pt x="238" y="-17" on="1"/>
        <pt x="139" y="-17" on="0"/>
        <pt x="82" y="52" on="1"/>
        <pt x="32" y="114" on="0"/>
        <pt x="32" y="208" on="1"/>
        <pt x="32" y="223" on="0"/>
        <pt x="33" y="239" on="1"/>
        <pt x="47" y="379" on="0"/>
        <pt x="125" y="449" on="1"/>
        <pt x="194" y="510" on="0"/>
        <pt x="301" y="510" on="1"/>
        <pt x="343" y="510" on="0"/>
        <pt x="424" y="479" on="0"/>
        <pt x="445" y="457" on="1"/>
        <pt x="445" y="495" on="0"/>
        <pt x="433" y="534" on="1"/>
        <pt x="419" y="584" on="0"/>
        <pt x="392" y="604" on="1"/>
        <pt x="351" y="636" on="0"/>
        <pt x="273" y="636" on="1"/>
        <pt x="200" y="636" on="0"/>
        <pt x="129" y="606" on="1"/>
        <pt x="115" y="686" on="1"/>
        <pt x="189" y="706" on="0"/>
        <pt x="261" y="707" on="1"/>
        <pt x="376" y="707" on="0"/>
        <pt x="435" y="662" on="1"/>
        <pt x="524" y="593" on="0"/>
        <pt x="524" y="410" on="1"/>
        <pt x="524" y="362" on="0"/>
        <pt x="518" y="303" on="1"/>
        <pt x="502" y="150" on="0"/>
        <pt x="443" y="74" on="1"/>
        <pt x="375" y="-17" on="0"/>
      </contour>
      <contour>
        <pt x="442" y="358" on="1"/>
        <pt x="385" y="450" on="0"/>
        <pt x="294" y="451" on="1"/>
        <pt x="223" y="451" on="0"/>
        <pt x="134" y="344" on="0"/>
        <pt x="124" y="252" on="1"/>
        <pt x="123" y="237" on="0"/>
        <pt x="123" y="222" on="1"/>
        <pt x="123" y="149" on="0"/>
        <pt x="157" y="103" on="1"/>
        <pt x="193" y="53" on="0"/>
        <pt x="256" y="53" on="1"/>
        <pt x="417" y="53" on="0"/>
        <pt x="439" y="268" on="1"/>
        <pt x="444" y="313" on="0"/>
      </contour>
    </TTGlyph>
    <TTGlyph name="percent" xMin="-3" yMin="-80" xMax="524" yMax="666">
      <contour>
        <pt x="145" y="420" on="1"/>
        <pt x="101" y="420" on="0"/>
        <pt x="48" y="472" on="0"/>
        <pt x="48" y="523" on="1"/>
        <pt x="48" y="532" on="0"/>
        <pt x="49" y="544" on="1"/>
        <pt x="54" y="597" on="0"/>
        <pt x="124" y="666" on="0"/>
        <pt x="172" y="666" on="1"/>
        <pt x="219" y="666" on="0"/>
        <pt x="274" y="597" on="0"/>
        <pt x="269" y="544" on="1"/>
        <pt x="263" y="484" on="0"/>
        <pt x="194" y="420" on="0"/>
      </contour>
      <contour>
        <pt x="70" y="-80" on="1"/>
        <pt x="-3" y="-54" on="1"/>
        <pt x="457" y="643" on="1"/>
        <pt x="524" y="616" on="1"/>
      </contour>
      <contour>
        <pt x="379" y="-2" on="1"/>
        <pt x="279" y="-2" on="0"/>
        <pt x="279" y="102" on="1"/>
        <pt x="279" y="113" on="0"/>
        <pt x="281" y="125" on="1"/>
        <pt x="286" y="179" on="0"/>
        <pt x="357" y="250" on="0"/>
        <pt x="407" y="250" on="1"/>
        <pt x="454" y="250" on="0"/>
        <pt x="510" y="179" on="0"/>
        <pt x="505" y="125" on="1"/>
        <pt x="498" y="63" on="0"/>
        <pt x="429" y="-2" on="0"/>
      </contour>
      <contour>
        <pt x="165" y="608" on="1"/>
        <pt x="149" y="608" on="0"/>
        <pt x="133" y="593" on="1"/>
        <pt x="115" y="575" on="0"/>
        <pt x="112" y="541" on="1"/>
        <pt x="108" y="507" on="0"/>
        <pt x="123" y="489" on="1"/>
        <pt x="134" y="475" on="0"/>
        <pt x="152" y="475" on="1"/>
        <pt x="169" y="475" on="0"/>
        <pt x="183" y="489" on="1"/>
        <pt x="201" y="506" on="0"/>
        <pt x="206" y="541" on="1"/>
        <pt x="209" y="575" on="0"/>
        <pt x="194" y="593" on="1"/>
        <pt x="181" y="608" on="0"/>
      </contour>
      <contour>
        <pt x="398" y="190" on="1"/>
        <pt x="382" y="190" on="0"/>
        <pt x="367" y="175" on="1"/>
        <pt x="349" y="156" on="0"/>
        <pt x="344" y="121" on="1"/>
        <pt x="341" y="86" on="0"/>
        <pt x="356" y="69" on="1"/>
        <pt x="367" y="56" on="0"/>
        <pt x="385" y="55" on="1"/>
        <pt x="402" y="55" on="0"/>
        <pt x="417" y="69" on="1"/>
        <pt x="436" y="87" on="0"/>
        <pt x="439" y="121" on="1"/>
        <pt x="443" y="156" on="0"/>
        <pt x="428" y="175" on="1"/>
        <pt x="415" y="190" on="0"/>
      </contour>
    </TTGlyph>
    <TTGlyph name="period" xMin="62" yMin="-9" xMax="199" yMax="140">
      <contour>
        <pt x="123" y="-9" on="1"/>
        <pt x="95" y="-9" on="0"/>
        <pt x="59" y="34" on="0"/>
        <pt x="62" y="66" on="1"/>
        <pt x="65" y="98" on="0"/>
        <pt x="112" y="140" on="0"/>
        <pt x="139" y="140" on="1"/>
        <pt x="167" y="140" on="0"/>
        <pt x="202" y="97" on="0"/>
        <pt x="199" y="66" on="1"/>
        <pt x="196" y="34" on="0"/>
        <pt x="151" y="-9" on="0"/>
      </contour>
    </TTGlyph>
    <TTGlyph name="periodcentered" xMin="62" yMin="342" xMax="199" yMax="504">
      <contour>
        <pt x="123" y="342" on="1"/>
        <pt x="94" y="342" on="0"/>
        <pt x="59" y="389" on="0"/>
        <pt x="62" y="423" on="1"/>
        <pt x="66" y="457" on="0"/>
        <pt x="112" y="504" on="0"/>
        <pt x="139" y="504" on="1"/>
        <pt x="168" y="504" on="0"/>
        <pt x="203" y="457" on="0"/>
        <pt x="199" y="423" on="1"/>
        <pt x="196" y="389" on="0"/>
        <pt x="151" y="342" on="0"/>
      </contour>
    </TTGlyph>
</ttFont>
